<?xml version="1.0" standalone="no"?>
<!DOCTYPE svg PUBLIC "-//W3C//DTD SVG 1.1//EN" "http://www.w3.org/Graphics/SVG/1.1/DTD/svg11.dtd" >
<svg>
<metadata>
Created by FontForge 20090914 at Thu Nov 12 14:03:53 2015
 By www-data
&#194;&#169; 2007 by P22 type foundry. All rights reserved.
</metadata>
<defs>
<font id="P22UndergroundCYProThin" horiz-adv-x="600" >
  <font-face 
    font-family="P22UndergroundCYProThin"
    font-weight="400"
    font-stretch="normal"
    units-per-em="1000"
    panose-1="0 0 3 0 0 0 0 0 0 0"
    ascent="730"
    descent="-270"
    x-height="470"
    cap-height="700"
    bbox="-655 -300 1540 1015"
    underline-thickness="50"
    underline-position="-50"
    unicode-range="U+0020-U+FB02"
  />
<missing-glyph horiz-adv-x="740" 
d="M85 700h570l5 -5v-690l-5 -5h-570l-5 5v690zM125 605v-130h25v90l45 -50l45 50v-90h25v130h-25l-45 -55l-45 55h-25zM300 605v-130h25v130h-25zM360 605v-130h25v90l65 -90h30v130h-25v-90l-65 90h-30zM515 605v-130h45c21.333 0 38.333 5.5 51 16.5s19 27.167 19 48.5
s-6.33301 37.5 -19 48.5s-29.667 16.5 -51 16.5h-45zM540 580h20c30 0 45 -13.333 45 -40s-15 -40 -45 -40h-20v80zM170 405v-25h45v-105h25v105h45v25h-115zM310 405v-130h25v60h65v-60h25v130h-25v-45h-65v45h-25zM460 405v-130h90v25h-65v30h45v25h-45v25h60v25h-85z
M290 170l0.000976562 30c-13.333 6.66699 -28.333 10 -45 10c-21.333 0 -39.166 -6.66699 -53.499 -20s-21.5 -30 -21.5 -50s7 -36.667 21 -50s32 -20 54 -20c18 0 34.667 5 50 15v66l-50 -1v-25h25v-25c-6.66699 -3.33301 -15 -5 -25 -5
c-14.667 0 -25.834 4.16699 -33.501 12.5s-11.5 19.166 -11.5 32.499c0 12.667 4.16699 22.834 12.5 30.501s19.166 11.5 32.499 11.5c15.333 0 30.333 -4 45 -12zM375.001 205l-55 -130h30l10 25h50l10 -25h30l-55 130h-20zM385.001 170l17 -45h-34zM470.001 205v-130.002
h25v40h20c14.667 0 26.667 4.33301 36 13s14 19.334 14 32.001s-4.66699 23.334 -14 32.001s-21.333 13 -36 13h-45zM495.001 179.998h20c13.333 0 20 -6.66699 20 -20s-6.66699 -20 -20 -20h-20v40z" />
    <glyph glyph-name="f_f" unicode="ff" horiz-adv-x="660" 
d="M45 470h75v50c0 51.333 13.167 93.333 39.5 126s61.5 49 105.5 49c23.333 0 48.333 -6.66699 75 -20v-15l-5 -5c-26.667 13.333 -50 20 -70 20c-39.333 0 -70 -14.5 -92 -43.5s-33 -67.833 -33 -116.5v-45h280v70c0 51.333 13.167 93.333 39.5 126s61.5 49 105.5 49
c23.333 0 48.333 -6.66699 75 -20v-15l-5 -5c-26.667 13.333 -50 20 -70 20c-39.333 0 -70 -14.5 -92 -43.5s-33 -67.833 -33 -116.5v-65h195l5 -5v-10l-5 -5h-195v-445l-5 -5h-10l-5 5v445h-280v-445l-5 -5h-10l-5 5v445h-75l-5 5v11z" />
    <glyph glyph-name="t_t" unicode="tt" horiz-adv-x="690" 
d="M130 590h9.99805l5 -6v-114h280v115l5 5h10l5 -6v-114h220l5 -5v-10l-5 -5h-220v-300c0 -51.333 10.833 -88.333 32.5 -111s49.167 -34 82.5 -34c42 0 77 10 105 30l5 -5v-15c-30 -20 -66.667 -30 -110 -30c-41.333 0 -74.166 13.333 -98.499 40s-36.5 66.667 -36.5 120
v305h-280v-300c0 -50.667 10.333 -87.5 31 -110.5s45.334 -34.5 74.001 -34.5c35.333 0 67 10 95 30l5 -5v-15c-30 -20 -63.333 -30 -100 -30c-37.333 0 -67.5 13.5 -90.5 40.5s-34.5 66.833 -34.5 119.5v305h-80l-5 5v10l5 5h80v115z" />
    <glyph glyph-name="uni0457_uni0457" unicode="&#x457;&#x457;" horiz-adv-x="440" 
d="M105 470h10l5 -5v-460l-5 -5h-10l-5 5v460zM5 630h10l25 -25v-10l-25 -25h-10l-25 25v10zM215 630h10l25 -25v-10l-25 -25h-10l-25 25v10zM325 470h10l5 -5v-460l-5 -5h-10l-5 5v460zM425 630h10l25 -25v-10l-25 -25h-10l-25 25v10z" />
    <glyph glyph-name="uni0407_uni0407" unicode="&#x407;&#x407;" horiz-adv-x="440" 
d="M105 700h10l5 -5v-690l-5 -5h-10l-5 5v690zM0 840h10l30 -30v-10l-30 -30h-10l-30 30v10zM215 840h10l30 -30v-10l-30 -30h-10l-30 30v10zM325 700h10l5 -5v-690l-5 -5h-10l-5 5v690zM430 840h10l30 -30v-10l-30 -30h-10l-30 30v10z" />
    <glyph glyph-name=".notdef" horiz-adv-x="740" 
d="M85 700h570l5 -5v-690l-5 -5h-570l-5 5v690zM125 605v-130h25v90l45 -50l45 50v-90h25v130h-25l-45 -55l-45 55h-25zM300 605v-130h25v130h-25zM360 605v-130h25v90l65 -90h30v130h-25v-90l-65 90h-30zM515 605v-130h45c21.333 0 38.333 5.5 51 16.5s19 27.167 19 48.5
s-6.33301 37.5 -19 48.5s-29.667 16.5 -51 16.5h-45zM540 580h20c30 0 45 -13.333 45 -40s-15 -40 -45 -40h-20v80zM170 405v-25h45v-105h25v105h45v25h-115zM310 405v-130h25v60h65v-60h25v130h-25v-45h-65v45h-25zM460 405v-130h90v25h-65v30h45v25h-45v25h60v25h-85z
M290 170l0.000976562 30c-13.333 6.66699 -28.333 10 -45 10c-21.333 0 -39.166 -6.66699 -53.499 -20s-21.5 -30 -21.5 -50s7 -36.667 21 -50s32 -20 54 -20c18 0 34.667 5 50 15v66l-50 -1v-25h25v-25c-6.66699 -3.33301 -15 -5 -25 -5
c-14.667 0 -25.834 4.16699 -33.501 12.5s-11.5 19.166 -11.5 32.499c0 12.667 4.16699 22.834 12.5 30.501s19.166 11.5 32.499 11.5c15.333 0 30.333 -4 45 -12zM375.001 205l-55 -130h30l10 25h50l10 -25h30l-55 130h-20zM385.001 170l17 -45h-34zM470.001 205v-130.002
h25v40h20c14.667 0 26.667 4.33301 36 13s14 19.334 14 32.001s-4.66699 23.334 -14 32.001s-21.333 13 -36 13h-45zM495.001 179.998h20c13.333 0 20 -6.66699 20 -20s-6.66699 -20 -20 -20h-20v40z" />
    <glyph glyph-name="space" unicode=" " horiz-adv-x="260" 
 />
    <glyph glyph-name="exclam" unicode="!" horiz-adv-x="300" 
d="M145 700h10l5 -5v-115v-405l-5 -5h-10l-5 5v405v115zM145 45h10l25 -25v-10l-25 -25h-10l-25 25v10z" />
    <glyph glyph-name="quotedbl" unicode="&#x22;" horiz-adv-x="480" 
d="M145 700h10l5 -5v-95v-135l-5 -5h-10l-5 5v135v95zM325 700h10l5 -5v-95v-135l-5 -5h-10l-5 5v135v95z" />
    <glyph glyph-name="numbersign" unicode="#" horiz-adv-x="640" 
d="M75 475h139l16 180l5 5h10l5 -5l-16 -180h190l16 180l5 5h10l5 -5l-16 -180h131l5 -5v-10l-5 -5h-133l-15 -180h138l5 -5v-10l-5 -5h-140l-20 -210l-5 -5h-10l-5 5l20 210h-190l-20 -210l-5 -5h-10l-5 5l20 210h-130l-5 5v10l5 5h132l15 180h-137l-5 5v10zM232 455
l-15 -180h190l15 180h-190z" />
    <glyph glyph-name="dollar" unicode="$" horiz-adv-x="560" 
d="M275 800l10 -0.00292969l5 -5v-80c70 -8 123.333 -43 160 -105l-10 -5h-10c-32.667 54.667 -79.334 84.667 -140.001 90v-300c29.333 -14 52.333 -25.667 69 -35s36.834 -22.666 60.501 -39.999s41.334 -36.833 53.001 -58.5s17.5 -45.5 17.5 -71.5
c0 -58.667 -21.167 -107.5 -63.5 -146.5s-87.833 -58.5 -136.5 -58.5v-80l-5 -5h-10l-5 5v80c-94.667 8.66699 -159.667 57 -195 145l10 5h10c12.667 -35.333 35.167 -65.166 67.5 -89.499s68.166 -37.833 107.499 -40.5v375c-48.667 22.667 -87.5 47.834 -116.5 75.501
s-43.5 60.834 -43.5 99.501c0 43.333 15 80.166 45 110.499s68.333 46.833 115 49.5v80zM270 404.997l-0.000976562 290c-37.333 -2.66699 -69.666 -16.5 -96.999 -41.5s-41 -57.833 -41 -98.5c0 -34 12 -62 36 -84s58 -44 102 -66zM289.999 369.997l-0.000976562 -364.999
c42.667 0 83 17 121 51s57 78.667 57 134c0 18 -4 35.333 -12 52s-17.333 30.667 -28 42s-25.167 23 -43.5 35s-33.666 21.167 -45.999 27.5s-28.5 14.166 -48.5 23.499z" />
    <glyph glyph-name="percent" unicode="%" horiz-adv-x="840" 
d="M225 705c45.333 0 84.166 -15.5 116.499 -46.5s48.5 -68.833 48.5 -113.5s-16.167 -82.5 -48.5 -113.5s-71.166 -46.5 -116.499 -46.5s-84.166 15.5 -116.499 46.5s-48.5 68.833 -48.5 113.5s16.167 82.5 48.5 113.5s71.166 46.5 116.499 46.5zM225 685
c-40 0 -73.833 -13.333 -101.5 -40s-41.5 -60 -41.5 -100s13.833 -73.333 41.5 -100s61.5 -40 101.5 -40s73.833 13.333 101.5 40s41.5 60 41.5 100s-13.833 73.333 -41.5 100s-61.5 40 -101.5 40zM646 700h10l5 -5l-460 -690l-10 -5h-10l-5 5l460 690zM615 315
c45.333 0 84.166 -15.5 116.499 -46.5s48.5 -68.833 48.5 -113.5s-16.167 -82.5 -48.5 -113.5s-71.166 -46.5 -116.499 -46.5s-84.166 15.5 -116.499 46.5s-48.5 68.833 -48.5 113.5s16.167 82.5 48.5 113.5s71.166 46.5 116.499 46.5zM615 295
c-40 0 -73.833 -13.333 -101.5 -40s-41.5 -60 -41.5 -100s13.833 -73.333 41.5 -100s61.5 -40 101.5 -40s73.833 13.333 101.5 40s41.5 60 41.5 100s-13.833 73.333 -41.5 100s-61.5 40 -101.5 40z" />
    <glyph glyph-name="ampersand" unicode="&#x26;" horiz-adv-x="700" 
d="M616 375l4.00195 -5.00098c-45.333 -83.333 -88.666 -155 -129.999 -215c39.333 -39.333 92.666 -89 159.999 -149l-5 -6h-20c-62 54.667 -111.333 101.334 -148 140.001c-75.333 -103.333 -151 -155 -227 -155c-52.667 0 -97.5 19.167 -134.5 57.5
s-55.5 84.833 -55.5 139.5c0 12.667 1.66699 25 5 37s9.5 24.333 18.5 37l22.5 31c6 8 17 18.5 33 31.5l31.5 25.5c5 4 17.333 13.167 37 27.5s30.5 22.166 32.5 23.499c-1.33301 1.33301 -7.16602 8 -17.499 20l-23.5 27.5c-5.33301 6.33301 -12.833 16 -22.5 29
s-16.834 24.333 -21.501 34s-9.16699 20.834 -13.5 33.501s-6.5 24.667 -6.5 36c0 38.667 13.167 71.667 39.5 99s58.166 41 95.499 41s69.166 -13.667 95.499 -41s39.5 -60.333 39.5 -99c0 -50 -45 -110 -135 -180c86.667 -100 155 -175 205 -225
c37.333 52 79 120.333 125 205h16zM255.002 409.999c16.667 12 33.3291 25.3359 49.9961 40.0029s33.834 34.167 51.501 58.5s26.5 46.5 26.5 66.5c0 33.333 -11 61.666 -33 84.999s-48.333 35 -79 35c-31.333 0 -58.166 -11.667 -80.499 -35s-33.5 -51.666 -33.5 -84.999
c0 -15.333 4.5 -32.333 13.5 -51s17.833 -33.834 26.5 -45.501s20.334 -25.834 35.001 -42.501s22.334 -25.334 23.001 -26.001zM254.997 380.002c-4 -2.66699 -14.8359 -10.3311 -32.5029 -22.998s-29.5 -21.5 -35.5 -26.5l-30.5 -25
c-14.333 -11.667 -24.666 -21.334 -30.999 -29.001s-13.5 -17 -21.5 -28s-13.667 -22 -17 -33s-5 -22.167 -5 -33.5c0 -48.667 16.333 -90.334 49 -125.001s72.334 -52 119.001 -52c68.667 0 139.334 50 212.001 150c-82 86 -151 161 -207 225z" />
    <glyph glyph-name="quotesingle" unicode="'" horiz-adv-x="300" 
d="M145 700h10l5 -5v-95v-135l-5 -5h-10l-5 5v135v95z" />
    <glyph glyph-name="parenleft" unicode="(" horiz-adv-x="340" 
d="M235 720l5 -5.00391c-32 -49.333 -59.667 -116.666 -83 -201.999s-35 -179.666 -35 -282.999s11.667 -197.666 35 -282.999s51 -152.666 83 -201.999l-5 -5h-15c-32 54 -60 122.833 -84 206.5s-36 178.167 -36 283.5s12 199.833 36 283.5s52 152.5 84 206.5h15z" />
    <glyph glyph-name="parenright" unicode=")" horiz-adv-x="340" 
d="M105 720l15 0.00390625c32 -54 60 -122.833 84 -206.5s36 -178.167 36 -283.5s-12 -199.833 -36 -283.5s-52 -152.5 -84 -206.5h-15l-5 5c32 49.333 59.667 116.666 83 201.999s35 179.666 35 282.999s-11.667 197.666 -35 282.999s-51 152.666 -83 201.999z" />
    <glyph glyph-name="asterisk" unicode="*" horiz-adv-x="480" 
d="M235 700h10l5 -5v-160l140 78h5l7 -13v-5l-142 -75l142 -75v-5l-7 -13h-5l-140 78v-160l-5 -5h-10l-5 5v160l-140 -78h-5l-7 13v5l142 75l-142 75v5l7 13h5l140 -78v160z" />
    <glyph glyph-name="plus" unicode="+" horiz-adv-x="560" 
d="M275 560h10l5 -5v-180h180l5 -5v-10l-5 -5h-180v-180l-5 -5h-10l-5 5v180h-180l-5 5v10l5 5h180v180z" />
    <glyph glyph-name="comma" unicode="," horiz-adv-x="300" 
d="M145 40h10.001l5 -5v-45c0 -63.333 -15 -95 -45 -95c-6.66699 0 -13.334 1.66699 -20.001 5v5c30 0 45 26.667 45 80v50z" />
    <glyph glyph-name="hyphen" unicode="-" horiz-adv-x="400" 
d="M45 245h310l5 -5v-10l-5 -5h-310l-5 5v10z" />
    <glyph glyph-name="period" unicode="." horiz-adv-x="300" 
d="M135 40h30l5 -5v-30l-5 -5h-30l-5 5v30z" />
    <glyph glyph-name="slash" unicode="/" horiz-adv-x="280" 
d="M235 700h12l5 -5l-200 -940l-5 -5h-12l-5 5l200 940z" />
    <glyph glyph-name="zero" unicode="0" horiz-adv-x="580" 
d="M290 715c63.333 0 114.166 -34.833 152.499 -104.5s57.5 -156.5 57.5 -260.5s-19.167 -190.833 -57.5 -260.5s-89.166 -104.5 -152.499 -104.5s-114.166 34.833 -152.499 104.5s-57.5 156.5 -57.5 260.5s19.167 190.833 57.5 260.5s89.166 104.5 152.499 104.5zM290 695
c-54.667 0 -99.667 -33 -135 -99s-53 -148 -53 -246s17.667 -180 53 -246s80.333 -99 135 -99s99.667 33 135 99s53 148 53 246s-17.667 180 -53 246s-80.333 99 -135 99z" />
    <glyph glyph-name="one" unicode="1" horiz-adv-x="220" 
d="M115 705l5 -5v-695l-5 -5h-10l-5 5v680l5 10z" />
    <glyph glyph-name="two" unicode="2" horiz-adv-x="520" 
d="M70 610v19.999c54 56.667 107.333 85 160 85s94.167 -16.167 124.5 -48.5s45.5 -76.166 45.5 -131.499c0 -48.667 -31.667 -123.667 -95 -225l-180 -290h290l5 -5v-10l-5 -5h-320l-5 5l200 320c58.667 90.667 88 160.667 88 210c0 50 -13.333 89.167 -40 117.5
s-62.667 42.5 -108 42.5c-55.333 0 -107 -30 -155 -90z" />
    <glyph glyph-name="three" unicode="3" horiz-adv-x="540" 
d="M65 700l350.001 -0.00292969l5 -5l-185 -285c71.333 2.66699 128.333 -14.666 171 -51.999s64 -86.666 64 -147.999c0 -62 -22 -115 -66 -159s-97 -66 -159 -66c-82.667 0 -151 36.667 -205 110l10 10h10c22 -31.333 49.833 -55.833 83.5 -73.5s67.5 -26.5 101.5 -26.5
c56 0 103.833 20 143.5 60s59.5 88.333 59.5 145c0 52.667 -18.833 95.834 -56.5 129.501s-86.5 50.5 -146.5 50.5c-16.667 0 -33.334 -3.33301 -50.001 -10l-5 5l195 295h-320l-5 5v10z" />
    <glyph glyph-name="four" unicode="4" horiz-adv-x="650" 
d="M425 705l5 -5v-440h145l5 -5v-10l-5 -5h-145v-235l-5 -5h-10l-5 5v235h-375l-5 5zM410 655l-340 -395h340v395z" />
    <glyph glyph-name="five" unicode="5" horiz-adv-x="530" 
d="M140 700l335.001 0.00195312l5 -5l-10 -15h-315l-29 -260c90.667 29.333 170.667 22 240 -22s104 -106.667 104 -188c0 -64.667 -22.667 -118.334 -68 -161.001s-101 -64 -167 -64c-78.667 0 -143.667 33.333 -195 100l10 10h10c21.333 -28.667 48 -50.834 80 -66.501
s63.667 -23.5 95 -23.5c59.333 0 110 20 152 60s63 88.333 63 145c0 58 -21.167 106.667 -63.5 146s-94.5 59 -156.5 59c-36.667 0 -76.334 -6.66699 -119.001 -20l-5 5l29 295z" />
    <glyph glyph-name="six" unicode="6" horiz-adv-x="560" 
d="M310 700l5 -5.00098c-52.667 -36.667 -101 -89.167 -145 -157.5s-71.667 -137.5 -83 -207.5c60 63.333 127.667 95 203 95c64 0 116.667 -21.333 158 -64s62 -94.667 62 -156s-20.667 -113.333 -62 -156s-94 -64 -158 -64c-30 0 -58.333 5.5 -85 16.5s-51 27.5 -73 49.5
s-39.5 51.833 -52.5 89.5s-19.5 80.834 -19.5 129.501c0 82 24.5 165.167 73.5 249.5s101.167 144.5 156.5 180.5h20zM83 299.999c-0.666992 -6.66699 -1 -16.667 -1 -30c0 -86.667 20.333 -152.5 61 -197.5s89.667 -67.5 147 -67.5c54.667 0 101.334 19.5 140.001 58.5
s58 86.167 58 141.5s-19.333 102.5 -58 141.5s-85.334 58.5 -140.001 58.5c-72 0 -141 -35 -207 -105z" />
    <glyph glyph-name="seven" unicode="7" horiz-adv-x="560" 
d="M115 700h375l5 -5l-360 -690l-10 -5h-10l-5 5l355 675h-350l-5 5v10z" />
    <glyph glyph-name="eight" unicode="8" horiz-adv-x="540" 
d="M270 715c42.667 0 79.167 -15.167 109.5 -45.5s45.5 -66.833 45.5 -109.5c0 -36 -11.833 -68.833 -35.5 -98.5s-55.167 -54.5 -94.5 -74.5c48 -16.667 89.167 -43.834 123.5 -81.501s51.5 -77.834 51.5 -120.501c0 -58.667 -19.333 -106.667 -58 -144s-86 -56 -142 -56
s-103.333 18.667 -142 56s-58 85.333 -58 144c0 42.667 17.167 82.834 51.5 120.501s75.5 64.834 123.5 81.501c-39.333 20 -70.833 44.833 -94.5 74.5s-35.5 62.5 -35.5 98.5c0 42.667 15.167 79.167 45.5 109.5s66.833 45.5 109.5 45.5zM270 400
c40 14.667 72.167 36.834 96.5 66.501s36.5 60.834 36.5 93.501c0 37.333 -12.833 69.166 -38.5 95.499s-57.167 39.5 -94.5 39.5s-68.833 -13.167 -94.5 -39.5s-38.5 -58.166 -38.5 -95.499c0 -32.667 12.167 -63.834 36.5 -93.501s56.5 -51.834 96.5 -66.501zM270 375
c-50 -16 -92.167 -41.5 -126.5 -76.5s-51.5 -72.833 -51.5 -113.5c0 -52 17 -95 51 -129s76.333 -51 127 -51s93 17 127 51s51 77 51 129c0 40.667 -17.167 78.5 -51.5 113.5s-76.5 60.5 -126.5 76.5z" />
    <glyph glyph-name="nine" unicode="9" horiz-adv-x="560" 
d="M50 495c0 61.333 20.667 113.334 62 156.001s94 64 158 64c30 0 58.333 -5.5 85 -16.5s51 -27.5 73 -49.5s39.5 -51.833 52.5 -89.5s19.5 -80.834 19.5 -129.501c0 -82 -24.5 -165.167 -73.5 -249.5s-101.167 -144.5 -156.5 -180.5h-20l-5 5
c52.667 36.667 101 89.167 145 157.5s71.667 137.5 83 207.5c-60 -63.333 -127.667 -95 -203 -95c-64 0 -116.667 21.333 -158 64s-62 94.667 -62 156zM270 295.001c72 0 141 35 207 105c0.666992 6.66699 1 16.667 1 30c0 86.667 -20.333 152.5 -61 197.5
s-89.667 67.5 -147 67.5c-54.667 0 -101.334 -19.5 -140.001 -58.5s-58 -86.167 -58 -141.5s19.333 -102.5 58 -141.5s85.334 -58.5 140.001 -58.5z" />
    <glyph glyph-name="colon" unicode=":" horiz-adv-x="300" 
d="M135 360h30l5 -5v-30l-5 -5h-30l-5 5v30zM135 40h30l5 -5v-30l-5 -5h-30l-5 5v30z" />
    <glyph glyph-name="semicolon" unicode=";" horiz-adv-x="300" 
d="M145 40h10.001l5 -5v-45c0 -63.333 -15 -95 -45 -95c-6.66699 0 -13.334 1.66699 -20.001 5v5c30 0 45 26.667 45 80v50zM135.001 360h30l5 -5v-30l-5 -5h-30l-5 5v30z" />
    <glyph glyph-name="less" unicode="&#x3c;" horiz-adv-x="560" 
d="M470 515l5 -5v-10l-5 -5l-360 -130l360 -130l5 -5v-10l-5 -5l-390 140l-5 5v10l5 5z" />
    <glyph glyph-name="equal" unicode="=" horiz-adv-x="560" 
d="M110 475h380l5 -5v-10l-5 -5h-380l-5 5v10zM110 275h380l5 -5v-10l-5 -5h-380l-5 5v10z" />
    <glyph glyph-name="greater" unicode="&#x3e;" horiz-adv-x="560" 
d="M85 510l5 5l390 -140l5 -5v-10l-5 -5l-390 -140l-5 5v10l5 5l360 130l-360 130l-5 5v10z" />
    <glyph glyph-name="question" unicode="?" horiz-adv-x="470" 
d="M53 582l-12.998 8c18 38.667 43 69.167 75 91.5s68.667 33.5 110 33.5c45.333 0 84.166 -16.167 116.499 -48.5s48.5 -71.166 48.5 -116.499c0 -24 -7 -47.667 -21 -71s-30.833 -44.166 -50.5 -62.499l-59.5 -54c-20 -17.667 -37 -36.334 -51 -56.001
s-21 -38.5 -21 -56.5c0 -20 4 -36 12 -48s20 -24.333 36 -37l-15 -15c-36.667 25.333 -55 58.666 -55 99.999c0 20 7 40.333 21 61s30.833 40 50.5 58l59.5 54.5c20 18.333 37 38.5 51 60.5s21 44 21 66c0 40 -14 74.167 -42 102.5s-61.667 42.5 -101 42.5
c-70.667 0 -126.334 -37.667 -167.001 -113h-5zM215.002 45h10l25 -25v-10l-25 -25h-10l-25 25v10z" />
    <glyph glyph-name="at" unicode="@" horiz-adv-x="880" 
d="M315 400l10.001 20.0029c36 20 74.333 30 115 30c80 0 120 -54 120 -162v-158c0 -25.333 8.16699 -44.166 24.5 -56.499s34.833 -18.5 55.5 -18.5c41.333 0 74.666 19.5 99.999 58.5s38 87.833 38 146.5c0 90 -33.167 166.667 -99.5 230s-145.833 95 -238.5 95
s-172.167 -33.833 -238.5 -101.5s-99.5 -148.834 -99.5 -243.501s33.167 -175.834 99.5 -243.501s145.833 -101.5 238.5 -101.5c69.333 0 129.333 18.333 180 55h5l9 -14c-56.667 -40.667 -121.334 -61 -194.001 -61c-98.667 0 -183.334 35 -254.001 105
s-106 156.667 -106 260s35.333 190 106 260s155.334 105 254.001 105c98 0 182.5 -33.833 253.5 -101.5s106.5 -148.834 106.5 -243.501c0 -62.667 -14.667 -115.834 -44 -159.501s-68 -65.5 -116 -65.5c-45.333 0 -77 19 -95 57c-10 -12.667 -27.833 -24.5 -53.5 -35.5
s-49.5 -16.5 -71.5 -16.5c-40 0 -72.5 10.5 -97.5 31.5s-37.5 48.833 -37.5 83.5c0 76 85 121 255 135c0 93.333 -34 140 -102 140c-41.333 0 -80.666 -11.667 -117.999 -35zM540.001 115.003l-0.000976562 155.001c-26 -1.33301 -51.667 -4.33301 -77 -9
s-50.166 -11.334 -74.499 -20.001s-44 -20.5 -59 -35.5s-22.5 -31.833 -22.5 -50.5c0 -29.333 10.5 -52.5 31.5 -69.5s48.167 -25.5 81.5 -25.5c16.667 0 37.667 4.66699 63 14s44.333 23 57 41z" />
    <glyph glyph-name="A" unicode="A" horiz-adv-x="640" 
d="M310 700h20l5 -5l275 -690l-5 -5h-10l-5 5l-97 240h-346l-97 -240l-5 -5h-10l-5 5l275 690zM320 680l-165 -415h330z" />
    <glyph glyph-name="B" unicode="B" 
d="M105 700h144.999c67.333 0 118.333 -15 153 -45s52 -70 52 -120c0 -34 -9.83301 -63.5 -29.5 -88.5s-46.5 -43.833 -80.5 -56.5c62.667 -7.33301 110.834 -28.5 144.501 -63.5s50.5 -77.167 50.5 -126.5c0 -59.333 -22.167 -107.5 -66.5 -144.5
s-100.5 -55.5 -168.5 -55.5h-200l-5 5v690zM119.999 680l-0.000976562 -290h130c50 0 93 14.167 129 42.5s54 62.5 54 102.5c0 41.333 -15.167 75.833 -45.5 103.5s-76.166 41.5 -137.499 41.5h-130zM119.998 370l-0.00195312 -350.001h185
c62.667 0 113.834 16.833 153.501 50.5s59.5 76.834 59.5 129.501c0 52 -19.667 93.333 -59 124s-90.666 46 -153.999 46h-185z" />
    <glyph glyph-name="C" unicode="C" horiz-adv-x="760" 
d="M680 620l-5 -4.99805c-68 53.333 -146.333 80 -235 80c-95.333 0 -177.166 -33.833 -245.499 -101.5s-102.5 -148.834 -102.5 -243.501s34.167 -175.834 102.5 -243.501s150.166 -101.5 245.499 -101.5c88.667 0 167 26.667 235 80l5 -5v-20
c-69.333 -50 -149.333 -75 -240 -75c-102 0 -189.167 35.833 -261.5 107.5s-108.5 157.5 -108.5 257.5s36.167 185.833 108.5 257.5s159.5 107.5 261.5 107.5c90.667 0 170.667 -25 240 -75v-20z" />
    <glyph glyph-name="D" unicode="D" horiz-adv-x="690" 
d="M105 700h155c106.667 0 195 -33.667 265 -101s105 -150.333 105 -249s-35 -181.667 -105 -249s-158.333 -101 -265 -101h-155l-5 5v690zM120 680v-660.002h140c97.333 0 179.666 31.833 246.999 95.5s101 141.834 101 234.501s-33.667 170.834 -101 234.501
s-149.666 95.5 -246.999 95.5h-140z" />
    <glyph glyph-name="E" unicode="E" horiz-adv-x="520" 
d="M105 700h340l5 -5v-10l-5 -5h-325v-285h245l5 -5v-10l-5 -5h-245v-355h355l5 -5v-10l-5 -5h-370l-5 5v690z" />
    <glyph glyph-name="F" unicode="F" horiz-adv-x="480" 
d="M105 700h340l5 -5v-10l-5 -5h-325v-285h245l5 -5v-10l-5 -5h-245v-370l-5 -5h-10l-5 5v690z" />
    <glyph glyph-name="G" unicode="G" horiz-adv-x="800" 
d="M700 630l-4.99902 -5.00195c-59.333 46.667 -141 70 -245 70c-100 0 -184.667 -33.667 -254 -101s-104 -148.666 -104 -243.999s35.5 -176.666 106.5 -243.999s156.5 -101 256.5 -101c40.667 0 82.667 6.5 126 19.5s79.666 30.5 108.999 52.5v258h-215l-5 5v10l5 5h230
l5 -5v-285c-72.667 -53.333 -157.667 -80 -255 -80c-107.333 0 -198.333 35.167 -273 105.5s-112 156.833 -112 259.5c0 100.667 36.667 186.667 110 258s163.333 107 270 107c108 0 191.333 -21.667 250 -65v-20z" />
    <glyph glyph-name="H" unicode="H" horiz-adv-x="700" 
d="M105 700h10l5 -5v-300h460v300l5 5h10l5 -5v-690l-5 -5h-10l-5 5v370h-460v-370l-5 -5h-10l-5 5v690z" />
    <glyph glyph-name="I" unicode="I" horiz-adv-x="220" 
d="M105 700h10l5 -5v-690l-5 -5h-10l-5 5v690z" />
    <glyph glyph-name="J" unicode="J" horiz-adv-x="480" 
d="M365 700l9.99902 0.000976562l5 -5v-510c0 -63.333 -16.167 -112.5 -48.5 -147.5s-74.5 -52.5 -126.5 -52.5c-37.333 0 -71.166 11.167 -101.499 33.5s-51.5 55.166 -63.5 98.499l15 8h5c12 -40 31.167 -70 57.5 -90s55.5 -30 87.5 -30c44.667 0 81.667 15 111 45
s44 76.667 44 140v505z" />
    <glyph glyph-name="K" unicode="K" horiz-adv-x="540" 
d="M105 700h10l5 -5v-275l330 275l10 5h15l5 -5l-355 -295l385 -395l-5 -5h-15l-10 5l-360 370v-370l-5 -5h-10l-5 5v690z" />
    <glyph glyph-name="L" unicode="L" horiz-adv-x="500" 
d="M104 700h12l4 -4v-676h326l4 -5v-11l-4 -4h-342l-4 4v692z" />
    <glyph glyph-name="M" unicode="M" horiz-adv-x="820" 
d="M105 700h10l10 -5l285 -360l285 360l10 5h10l5 -5v-690l-5 -5h-10l-5 5v665l-285 -360h-10l-285 360v-665l-5 -5h-10l-5 5v690z" />
    <glyph glyph-name="N" unicode="N" horiz-adv-x="740" 
d="M105 700h13l10 -5l492 -665v665l5 5h10l5 -5v-690l-5 -5h-12l-10 5l-493 665v-665l-5 -5h-10l-5 5v690z" />
    <glyph glyph-name="O" unicode="O" horiz-adv-x="880" 
d="M440 715c102 0 189.167 -35.667 261.5 -107s108.5 -157.333 108.5 -258s-36.167 -186.667 -108.5 -258s-159.5 -107 -261.5 -107s-189.167 35.667 -261.5 107s-108.5 157.333 -108.5 258s36.167 186.667 108.5 258s159.5 107 261.5 107zM440 695
c-95.333 0 -177.166 -33.833 -245.499 -101.5s-102.5 -148.834 -102.5 -243.501s34.167 -175.834 102.5 -243.501s150.166 -101.5 245.499 -101.5s177.166 33.833 245.499 101.5s102.5 148.834 102.5 243.501s-34.167 175.834 -102.5 243.501s-150.166 101.5 -245.499 101.5
z" />
    <glyph glyph-name="P" unicode="P" horiz-adv-x="540" 
d="M104 700l136 -0.00195312c83.333 0 145.833 -17.167 187.5 -51.5s62.5 -82.166 62.5 -143.499s-20.833 -109.166 -62.5 -143.499s-104.167 -51.5 -187.5 -51.5h-120v-305l-5 -5h-10l-5 5v690zM120 679.998v-350h120c73.333 0 129.666 14.833 168.999 44.5
s59 73.167 59 130.5s-19.667 100.833 -59 130.5s-95.666 44.5 -168.999 44.5h-120z" />
    <glyph glyph-name="Q" unicode="Q" horiz-adv-x="880" 
d="M810 15v-5l-10 -10h-5l-100 86c-71.333 -67.333 -156.333 -101 -255 -101c-102 0 -189.167 35.667 -261.5 107s-108.5 157.333 -108.5 258s36.167 186.667 108.5 258s159.5 107 261.5 107s189.167 -35.667 261.5 -107s108.5 -157.333 108.5 -258
c0 -96 -33.333 -179.333 -100 -250zM595 195l4.99902 0.00195312l93 -80c63.333 65.333 95 143.666 95 234.999c0 94.667 -34.167 175.834 -102.5 243.501s-150.166 101.5 -245.499 101.5s-177.166 -33.833 -245.499 -101.5s-102.5 -148.834 -102.5 -243.501
s34.167 -175.834 102.5 -243.501s150.166 -101.5 245.499 -101.5c92 0 171.333 31.667 238 95l-93 80v5z" />
    <glyph glyph-name="R" unicode="R" horiz-adv-x="580" 
d="M105 700l155.001 -0.000976562c65.333 0 116.666 -15.667 153.999 -47s56 -75.666 56 -132.999c0 -50.667 -16.333 -90.5 -49 -119.5s-74.667 -48.5 -126 -58.5l255 -337l-5 -5h-15l-5 5l-255 335h-150v-335l-5 -5h-10l-5 5v690zM120.001 679.999v-320h120
c55.333 0 103.833 13 145.5 39s62.5 66.333 62.5 121c0 51.333 -16.667 90.833 -50 118.5s-79.333 41.5 -138 41.5h-140z" />
    <glyph glyph-name="S" unicode="S" horiz-adv-x="550" 
d="M420 605h-10.001c-38 60 -89.667 90 -155 90c-39.333 0 -73 -13.667 -101 -41s-42 -60.333 -42 -99c0 -30 12.333 -57 37 -81s54.5 -44.667 89.5 -62l105 -53.5c35 -18.333 64.833 -41.833 89.5 -70.5s37 -61.334 37 -98.001c0 -56.667 -20 -105 -60 -145
s-88.333 -60 -145 -60c-49.333 0 -92.166 12.833 -128.499 38.5s-63.5 61.167 -81.5 106.5l10 5h10c14.667 -41.333 39.5 -73.333 74.5 -96s73.5 -34 115.5 -34c50.667 0 93.834 18 129.501 54s53.5 79.667 53.5 131c0 32.667 -12.333 62 -37 88s-54.5 48 -89.5 66
l-105 53.5c-35 17.667 -64.833 39.834 -89.5 66.501s-37 57 -37 91c0 44 16.167 81.667 48.5 113s71.166 47 116.499 47c38 0 72 -9.5 102 -28.5s54.333 -44.5 73 -76.5z" />
    <glyph glyph-name="T" unicode="T" horiz-adv-x="620" 
d="M35 700h550l5 -5v-10l-5 -5h-265v-675l-5 -5h-10l-5 5v675h-265l-5 5v10z" />
    <glyph glyph-name="U" unicode="U" horiz-adv-x="740" 
d="M105 700h9.99805l5 -5v-385c0 -96.667 22.167 -171.667 66.5 -225s105.5 -80 183.5 -80s139.167 26.667 183.5 80s66.5 128.333 66.5 225v385l5 5h10l5 -5v-385c0 -102.667 -23.667 -182.5 -71 -239.5s-113.666 -85.5 -198.999 -85.5s-151.666 28.5 -198.999 85.5
s-71 136.833 -71 239.5v385z" />
    <glyph glyph-name="V" unicode="V" horiz-adv-x="620" 
d="M35 700h10l5 -5l260 -675l260 675l5 5h10l5 -5l-265 -690l-5 -5h-20l-5 5l-265 690z" />
    <glyph glyph-name="W" unicode="W" horiz-adv-x="940" 
d="M35 700h10l5 -5l210 -675l200 665l5 5h10l5 -5l200 -665l210 675l5 5h10l5 -5l-215 -690l-5 -5h-20l-5 5l-195 645l-195 -645l-5 -5h-20l-5 5l-215 690z" />
    <glyph glyph-name="X" unicode="X" horiz-adv-x="660" 
d="M55 700h10l10 -5l255 -317l255 317l10 5h10l5 -5l-268 -333l288 -357l-5 -5h-10l-10 5l-275 342l-275 -342l-10 -5h-10l-5 5l288 357l-268 333z" />
    <glyph glyph-name="Y" unicode="Y" 
d="M35 700h10l10 -5l245 -310l246 310l9 5h10l5 -5l-260 -330v-360l-5 -5h-10l-5 5v360l-260 330z" />
    <glyph glyph-name="Z" unicode="Z" 
d="M65 700h485l5 -5l-490 -675h490l5 -6v-9l-5 -5h-520l-5 5l490 675h-455l-5 5v10z" />
    <glyph glyph-name="bracketleft" unicode="[" horiz-adv-x="340" 
d="M105 720h170l5 -5v-10l-5 -5h-155v-940h155l5 -5v-10l-5 -5h-170l-5 5v970z" />
    <glyph glyph-name="backslash" unicode="\" horiz-adv-x="280" 
d="M35 700h12l5 -5l200 -940l-5 -5h-12l-5 5l-200 940z" />
    <glyph glyph-name="bracketright" unicode="]" horiz-adv-x="340" 
d="M65 720h170l5 -5v-970l-5 -5h-170l-5 5v10l5 5h155v940h-155l-5 5v10z" />
    <glyph glyph-name="asciicircum" unicode="^" horiz-adv-x="560" 
d="M275 700h10l5 -5l140 -390l-5 -5h-10l-5 5l-130 360l-130 -360l-5 -5h-10l-5 5l140 390z" />
    <glyph glyph-name="underscore" unicode="_" horiz-adv-x="500" 
d="M45 -90h410l5 -5v-10l-5 -5h-410l-5 5v10z" />
    <glyph glyph-name="grave" unicode="`" horiz-adv-x="610" 
d="M184 670h16l10 -5l145 -145l-5 -5h-10l-10 5l-150 145z" />
    <glyph glyph-name="a" unicode="a" horiz-adv-x="520" 
d="M95 430l9.99902 19.9971c46.667 23.333 91.667 35 135 35c64.667 0 112.5 -16.333 143.5 -49s46.5 -83 46.5 -151v-280l-5 -5h-10l-5 5v50c-60 -46.667 -123.333 -70 -190 -70c-46.667 0 -85 11.167 -115 33.5s-45 52.833 -45 91.5c0 30.667 8.33301 56.834 25 78.501
s41.334 39.167 74.001 52.5s69.167 23.333 109.5 30s87.5 11.334 141.5 14.001c0 64.667 -14.5 110.834 -43.5 138.501s-71.167 41.5 -126.5 41.5c-40 0 -86.667 -13.333 -140 -40zM409.999 79.9971l0.000976562 185c-50.667 -2.66699 -94.167 -6.83398 -130.5 -12.501
s-70.333 -14.167 -102 -25.5s-55.5 -26.666 -71.5 -45.999s-24 -43 -24 -71c0 -33.333 13.167 -59.166 39.5 -77.499s59.166 -27.5 98.499 -27.5c33.333 0 67.333 7.16699 102 21.5s64 32.166 88 53.499z" />
    <glyph glyph-name="b" unicode="b" horiz-adv-x="630" 
d="M105 700h10l5 -5v-310c50 66.667 116.667 100 200 100c67.333 0 124.166 -24.167 170.499 -72.5s69.5 -107.5 69.5 -177.5s-23.167 -129.167 -69.5 -177.5s-103.166 -72.5 -170.499 -72.5c-83.333 0 -150 33.333 -200 100v-80l-5 -5h-10l-5 5v690zM120 350v-230
c20 -35.333 47.833 -63.333 83.5 -84s74.5 -31 116.5 -31c60.667 0 112.167 22.167 154.5 66.5s63.5 98.833 63.5 163.5s-21.167 119.167 -63.5 163.5s-93.833 66.5 -154.5 66.5c-42 0 -80.833 -10.333 -116.5 -31s-63.5 -48.667 -83.5 -84z" />
    <glyph glyph-name="c" unicode="c" horiz-adv-x="530" 
d="M470 420l-5 -5c-46 33.333 -97.667 50 -155 50c-64.667 0 -118.834 -22 -162.501 -66s-65.5 -98.667 -65.5 -164s21.833 -120 65.5 -164s97.834 -66 162.501 -66c57.333 0 109 16.667 155 50l5 -5v-15c-44.667 -33.333 -98 -50 -160 -50c-73.333 0 -133.333 24 -180 72
s-70 107.333 -70 178s23.333 130 70 178s106.667 72 180 72c62 0 115.333 -16.667 160 -50v-15z" />
    <glyph glyph-name="d" unicode="d" horiz-adv-x="620" 
d="M505 700h10l5 -5v-690l-5 -5h-10l-5 5v80c-50 -66.667 -116.667 -100 -200 -100c-67.333 0 -124.166 24.167 -170.499 72.5s-69.5 107.5 -69.5 177.5s23.167 129.167 69.5 177.5s103.166 72.5 170.499 72.5c83.333 0 150 -33.333 200 -100v310zM500 120v230
c-20 35.333 -47.833 63.333 -83.5 84s-74.5 31 -116.5 31c-60.667 0 -112.167 -22.167 -154.5 -66.5s-63.5 -98.833 -63.5 -163.5s21.167 -119.167 63.5 -163.5s93.833 -66.5 154.5 -66.5c42 0 80.833 10.333 116.5 31s63.5 48.667 83.5 84z" />
    <glyph glyph-name="e" unicode="e" horiz-adv-x="550" 
d="M480 65l-0.000976562 -15.001c-16.667 -16.667 -41 -31.667 -73 -45s-64.333 -20 -97 -20c-75.333 0 -135.833 24.5 -181.5 73.5s-68.5 109.5 -68.5 181.5c0 69.333 21.167 127.5 63.5 174.5s97.833 70.5 166.5 70.5c45.333 0 83.833 -12 115.5 -36
s53.667 -51.667 66 -83s18.5 -63.333 18.5 -96c0 -9.33301 -1.66699 -17.666 -5 -24.999l-10 -5h-393c0 -66.667 20.833 -122.5 62.5 -167.5s96.834 -67.5 165.501 -67.5c61.333 0 116.333 21.667 165 65zM81.999 259.999h388
c-2.66699 61.333 -19.834 110.833 -51.501 148.5s-74.5 56.5 -128.5 56.5c-60.667 0 -109.167 -19.167 -145.5 -57.5s-57.166 -87.5 -62.499 -147.5z" />
    <glyph glyph-name="f" unicode="f" horiz-adv-x="360" 
d="M45 470h75v70c0 51.333 13.167 93.333 39.5 126s61.5 49 105.5 49c23.333 0 48.333 -6.66699 75 -20v-15l-5 -5c-26.667 13.333 -50 20 -70 20c-39.333 0 -70 -14.5 -92 -43.5s-33 -67.833 -33 -116.5v-65h195l5 -5v-10l-5 -5h-195v-445l-5 -5h-10l-5 5v445h-75l-5 5v11z
" />
    <glyph glyph-name="g" unicode="g" horiz-adv-x="520" 
d="M471 470l3.99805 -3.99805v-12l-4 -4h-100c52.667 -37.333 79 -87.333 79 -150c0 -51.333 -18.5 -95 -55.5 -131s-81.833 -54 -134.5 -54c-38 0 -72.333 9.66699 -103 29c-13.333 -12.667 -20 -25.667 -20 -39c0 -15.333 11.833 -28.833 35.5 -40.5
s52.167 -22.167 85.5 -31.5s66.833 -19.833 100.5 -31.5s62.334 -28.334 86.001 -50.001s35.5 -47.167 35.5 -76.5c0 -40.667 -18.667 -74.167 -56 -100.5s-89.333 -39.5 -156 -39.5c-152 0 -228 45 -228 135c0 17.333 4.16699 34 12.5 50s20.833 31.5 37.5 46.5
s31.334 27 44.001 36s29 19.833 49 32.5c-45.333 19.333 -68 42.666 -68 69.999c0 20 8.33301 37 25 51c-46.667 36.667 -70 84.667 -70 144c0 51.333 18.5 95 55.5 131s81.833 54 134.5 54c24.667 0 49.667 -5 75 -15h136zM259.998 465.002
c-45.333 0 -84.666 -16.333 -117.999 -49s-50 -71.334 -50 -116.001s16.667 -83.334 50 -116.001s72.666 -49 117.999 -49s84.666 16.333 117.999 49s50 71.334 50 116.001s-16.667 83.334 -50 116.001s-72.666 49 -117.999 49zM204.998 27.002
c-95.333 -56 -142.999 -108.334 -142.999 -157.001c0 -38.667 18.333 -67.5 55 -86.5s87 -28.5 151 -28.5c60.667 0 107.5 11.333 140.5 34s49.5 51.334 49.5 86.001c0 14.667 -4.16699 28.334 -12.5 41.001s-18.333 23.167 -30 31.5s-27.167 16.666 -46.5 24.999
s-37 14.833 -53 19.5l-58 17.5c-22.667 7 -40.334 12.833 -53.001 17.5z" />
    <glyph glyph-name="h" unicode="h" 
d="M105 700h9.99805l5 -5v-310c22.667 30.667 50.834 55 84.501 73s68.834 27 105.501 27c133.333 0 200 -80 200 -240v-240l-5 -5h-10l-5 5v235c0 76 -14.5 132.5 -43.5 169.5s-74.5 55.5 -136.5 55.5c-37.333 0 -73.333 -10.5 -108 -31.5s-62 -48.833 -82 -83.5v-345
l-5 -5h-10l-5 5v690z" />
    <glyph glyph-name="i" unicode="i" horiz-adv-x="220" 
d="M105 470h10l5 -5v-460l-5 -5h-10l-5 5v460zM105 630h10l25 -25v-10l-25 -25h-10l-25 25v10z" />
    <glyph glyph-name="j" unicode="j" horiz-adv-x="220" 
d="M105 470h9.99902l5 -5v-575c0 -103.333 -35 -155 -105 -155c-23.333 0 -41.666 3.33301 -54.999 10v15l5 5c13.333 -6.66699 30 -10 50 -10c56.667 0 85 46.667 85 140v570zM104.999 630h10l25 -25v-10l-25 -25h-10l-25 25v10z" />
    <glyph glyph-name="k" unicode="k" horiz-adv-x="460" 
d="M105 700h10l5 -5v-425l250 195l10 5h15l5 -5l-265 -210l295 -250l-5 -5h-15l-10 5l-280 235v-235l-5 -5h-10l-5 5v690z" />
    <glyph glyph-name="l" unicode="l" horiz-adv-x="300" 
d="M95 700h10.001l5 -5v-560c0 -86.667 26.667 -130 80 -130c26 0 51 10 75 30l5 -5v-15c-26.667 -20 -53.334 -30 -80.001 -30c-66.667 0 -100 48.333 -100 145v565z" />
    <glyph glyph-name="m" unicode="m" horiz-adv-x="910" 
d="M105 470l9.99805 -0.000976562l5 -5v-80c50 66.667 110 100 180 100c38 0 71.833 -10.667 101.5 -32s49.834 -50.666 60.501 -87.999c24.667 38 52.334 67.5 83.001 88.5s69 31.5 115 31.5c106.667 0 160 -73.333 160 -220v-260l-5 -5h-10l-5 5v255
c0 71.333 -12.667 123.333 -38 156s-59.333 49 -102 49c-79.333 0 -142.666 -41.667 -189.999 -125v-335l-5 -5h-10l-5 5v270c0 62.667 -13.833 110 -41.5 142s-63.834 48 -108.501 48c-36.667 0 -70.667 -10.167 -102 -30.5s-57.333 -48.5 -78 -84.5v-345l-5 -5h-10l-5 5
v460z" />
    <glyph glyph-name="n" unicode="n" 
d="M105 470h9.99805l5 -5v-80c22.667 30.667 50.834 55 84.501 73s68.834 27 105.501 27c133.333 0 200 -80 200 -240v-240l-5 -5h-10l-5 5v235c0 76 -14.5 132.5 -43.5 169.5s-74.5 55.5 -136.5 55.5c-37.333 0 -73.333 -10.5 -108 -31.5s-62 -48.833 -82 -83.5v-345l-5 -5
h-10l-5 5v460z" />
    <glyph glyph-name="o" unicode="o" 
d="M300 485c67.333 0 124.166 -24.167 170.499 -72.5s69.5 -107.5 69.5 -177.5s-23.167 -129.167 -69.5 -177.5s-103.166 -72.5 -170.499 -72.5s-124.166 24.167 -170.499 72.5s-69.5 107.5 -69.5 177.5s23.167 129.167 69.5 177.5s103.166 72.5 170.499 72.5zM300 465
c-60.667 0 -112.167 -22.167 -154.5 -66.5s-63.5 -98.833 -63.5 -163.5s21.167 -119.167 63.5 -163.5s93.833 -66.5 154.5 -66.5s112.167 22.167 154.5 66.5s63.5 98.833 63.5 163.5s-21.167 119.167 -63.5 163.5s-93.833 66.5 -154.5 66.5z" />
    <glyph glyph-name="p" unicode="p" horiz-adv-x="620" 
d="M105 470h10l5 -5v-80c50 66.667 116.667 100 200 100c67.333 0 124.166 -24.167 170.499 -72.5s69.5 -107.5 69.5 -177.5s-23.167 -129.167 -69.5 -177.5s-103.166 -72.5 -170.499 -72.5c-83.333 0 -150 33.333 -200 100v-310l-5 -5h-10l-5 5v690zM120 350v-230
c20 -35.333 47.833 -63.333 83.5 -84s74.5 -31 116.5 -31c60.667 0 112.167 22.167 154.5 66.5s63.5 98.833 63.5 163.5s-21.167 119.167 -63.5 163.5s-93.833 66.5 -154.5 66.5c-42 0 -80.833 -10.333 -116.5 -31s-63.5 -48.667 -83.5 -84z" />
    <glyph glyph-name="q" unicode="q" horiz-adv-x="630" 
d="M515 470h10l5 -5v-690l-5 -5h-10l-5 5v310c-50 -66.667 -116.667 -100 -200 -100c-67.333 0 -124.166 24.167 -170.499 72.5s-69.5 107.5 -69.5 177.5s23.167 129.167 69.5 177.5s103.166 72.5 170.499 72.5c83.333 0 150 -33.333 200 -100v80zM510 120v230
c-20 35.333 -47.833 63.333 -83.5 84s-74.5 31 -116.5 31c-60.667 0 -112.167 -22.167 -154.5 -66.5s-63.5 -98.833 -63.5 -163.5s21.167 -119.167 63.5 -163.5s93.833 -66.5 154.5 -66.5c42 0 80.833 10.333 116.5 31s63.5 48.667 83.5 84z" />
    <glyph glyph-name="r" unicode="r" horiz-adv-x="460" 
d="M105 470h9.99805l5 -5v-80c22.667 30 52.334 54.167 89.001 72.5s73.667 27.5 111 27.5c36.667 0 68.334 -6.66699 95.001 -20l5 -20l-5 -5c-23.333 16.667 -55 25 -95 25c-38 0 -76 -10.667 -114 -32s-66.667 -49 -86 -83v-345l-5 -5h-10l-5 5v460z" />
    <glyph glyph-name="s" unicode="s" horiz-adv-x="460" 
d="M380 428l-5.00195 -5.00391c-44 28 -94 42 -150 42c-37.333 0 -68.833 -10 -94.5 -30s-38.5 -45 -38.5 -75c0 -24.667 10.5 -44.667 31.5 -60s46.667 -27.166 77 -35.499l91 -26c30.333 -9 56 -22.833 77 -41.5s31.5 -42.667 31.5 -72
c0 -39.333 -17.167 -72.5 -51.5 -99.5s-75.5 -40.5 -123.5 -40.5c-62 0 -115.333 13.333 -160 40v17l5 5c41.333 -28 93 -42 155 -42c42.667 0 78.834 11.333 108.501 34s44.5 51.334 44.5 86.001c0 24.667 -10.5 44.834 -31.5 60.501s-46.667 27.834 -77 36.501l-91 26.5
c-30.333 9 -56 22.667 -77 41s-31.5 41.833 -31.5 70.5c0 34.667 15.167 64.167 45.5 88.5s66.833 36.5 109.5 36.5c60.667 0 112.334 -13.333 155.001 -40v-17z" />
    <glyph glyph-name="t" unicode="t" horiz-adv-x="390" 
d="M130 590h9.99902l5 -6v-114h220l5 -5v-10l-5 -5h-220v-300c0 -51.333 10.833 -88.333 32.5 -111s49.167 -34 82.5 -34c42 0 77 10 105 30l5 -5v-15c-30 -20 -66.667 -30 -110 -30c-41.333 0 -74.166 13.333 -98.499 40s-36.5 66.667 -36.5 120v305h-80l-5 5v10l5 5h80
v115z" />
    <glyph glyph-name="u" unicode="u" 
d="M95 470h10.002l5 -5v-235c0 -76 14.5 -132.5 43.5 -169.5s74.5 -55.5 136.5 -55.5c37.333 0 73.333 10.5 108 31.5s62 48.833 82 83.5v345l5 5h10l5 -5v-460l-5 -5h-10l-5 5v80c-22.667 -30.667 -50.834 -55 -84.501 -73s-68.834 -27 -105.501 -27
c-133.333 0 -200 80 -200 240v240z" />
    <glyph glyph-name="v" unicode="v" horiz-adv-x="500" 
d="M35 470h12l5 -5l198 -445l198 445l5 5h12l5 -5l-205 -460l-5 -5h-20l-5 5l-205 460z" />
    <glyph glyph-name="w" unicode="w" horiz-adv-x="780" 
d="M35 470h12l5 -5l178 -443l150 423l5 5h10l5 -5l150 -423l178 443l5 5h12l5 -5l-185 -460l-5 -5h-20l-5 5l-145 410l-145 -410l-5 -5h-20l-5 5l-185 460z" />
    <glyph glyph-name="x" unicode="x" horiz-adv-x="440" 
d="M45 470h10l10 -5l155 -210l155 210l10 5h10l5 -5l-167 -225l177 -235l-5 -5h-10l-10 5l-165 220l-165 -220l-10 -5h-10l-5 5l177 235l-167 225z" />
    <glyph glyph-name="y" unicode="y" horiz-adv-x="500" 
d="M35 470h9.99902l10 -5l200 -385l190 385l10 5h10l5 -5l-290 -585c-22 -42 -43.5 -72.5 -64.5 -91.5s-47.833 -28.5 -80.5 -28.5l-5 7v8l5 5c25.333 0 46.833 8.5 64.5 25.5s37.834 45.167 60.501 84.5l80 165l-210 410z" />
    <glyph glyph-name="z" unicode="z" horiz-adv-x="450" 
d="M65 470h340l5 -5l-335 -445h330l5 -5v-10l-5 -5h-360l-5 5l335 445h-311l-4 5v10z" />
    <glyph glyph-name="braceleft" unicode="{" horiz-adv-x="380" 
d="M320 715v-10l-5 -5c-88.667 0 -133 -46.667 -133 -140c0 -34 1.33301 -68.833 4 -104.5s4 -60.834 4 -75.501c0 -79.333 -28.333 -129.333 -85 -150c56.667 -20.667 85 -70.667 85 -150c0 -14 -1.33301 -38.833 -4 -74.5s-4 -70.834 -4 -105.501
c0 -93.333 44.333 -140 133 -140l5 -5v-10l-5 -5c-103.333 0 -155 53.333 -155 160c0 34.667 1.33301 69.834 4 105.501s4 60.5 4 74.5c0 41.333 -8.33301 75 -25 101s-42.667 39 -78 39l-5 5v10l5 5c35.333 0 61.333 13 78 39s25 59.667 25 101
c0 14.667 -1.33301 39.834 -4 75.501s-4 70.5 -4 104.5c0 106.667 51.667 160 155 160z" />
    <glyph glyph-name="bar" unicode="|" horiz-adv-x="300" 
d="M145 700h10l5 -5v-990l-5 -5h-10l-5 5v990z" />
    <glyph glyph-name="braceright" unicode="}" horiz-adv-x="380" 
d="M60 715l5 5c103.333 0 155 -53.333 155 -160c0 -34 -1.33301 -68.833 -4 -104.5s-4 -60.834 -4 -75.501c0 -41.333 8.33301 -75 25 -101s42.667 -39 78 -39l5 -5v-10l-5 -5c-35.333 0 -61.333 -13 -78 -39s-25 -59.667 -25 -101c0 -14 1.33301 -38.833 4 -74.5
s4 -70.834 4 -105.501c0 -106.667 -51.667 -160 -155 -160l-5 5v10l5 5c88.667 0 133 46.667 133 140c0 34.667 -1.33301 69.834 -4 105.501s-4 60.5 -4 74.5c0 79.333 28.333 129.333 85 150c-56.667 20.667 -85 70.667 -85 150c0 14.667 1.33301 39.834 4 75.501
s4 70.5 4 104.5c0 93.333 -44.333 140 -133 140l-5 5v10z" />
    <glyph glyph-name="asciitilde" unicode="~" horiz-adv-x="560" 
d="M480 405l5 -5c-25.333 -46.667 -62 -70 -110 -70c-26 0 -59.833 7.5 -101.5 22.5s-72.834 22.5 -93.501 22.5c-41.333 0 -74.666 -16.667 -99.999 -50l-5 5c25.333 46.667 62 70 110 70c26 0 59.833 -7.5 101.5 -22.5s72.834 -22.5 93.501 -22.5
c41.333 0 74.666 16.667 99.999 50z" />
    <glyph glyph-name="uni00A0" unicode="&#xa0;" horiz-adv-x="260" 
 />
    <glyph glyph-name="exclamdown" unicode="&#xa1;" horiz-adv-x="300" 
d="M155 -240h-10l-5 5v115v405l5 5h10l5 -5v-405v-115zM155 415h-10l-25 25v10l25 25h10l25 -25v-10z" />
    <glyph glyph-name="cent" unicode="&#xa2;" horiz-adv-x="560" 
d="M295 700l10 -0.00195312l5 -5v-90c62 0 115.333 -16.667 160 -50v-15l-5 -5c-46 33.333 -97.667 50 -155 50v-460c57.333 0 109 16.667 155 50l5 -5v-15c-44.667 -33.333 -98 -50 -160 -50v-100l-5 -5h-10l-5 5v100c-69.333 4.66699 -125 30.334 -167 77.001
s-63 104.334 -63 173.001c0 67.333 21 124 63 170s97.667 72.667 167 80v90zM290 124.998v460c-60 -5.33301 -109.667 -29.5 -149 -72.5s-59 -95.5 -59 -157.5s19.667 -114.5 59 -157.5s89 -67.167 149 -72.5z" />
    <glyph glyph-name="sterling" unicode="&#xa3;" horiz-adv-x="560" 
d="M445 620l-4.99512 -0.00292969c-32 50 -72 75 -120 75c-19.333 0 -36.5 -3.66699 -51.5 -11s-27.5 -19.666 -37.5 -36.999s-18.333 -35.166 -25 -53.499s-12.334 -43.666 -17.001 -75.999s-8.33398 -61.5 -11.001 -87.5s-5.33398 -61 -8.00098 -105h200l5 -5l-5 -10
l-5 -5h-195c-5.33301 -56.667 -16.5 -114.667 -33.5 -174s-34.167 -96.333 -51.5 -111h440l5 -5l-6 -12l-9 -3h-465l-5 5c27.333 22.667 50.166 63.5 68.499 122.5s30.5 118.167 36.5 177.5h-105l-5 5l5 10l5 5h101c2.66699 43.333 5.5 80.333 8.5 111s7.16699 62 12.5 94
s12 58.333 20 79s17.833 39.5 29.5 56.5s25.667 29.5 42 37.5s35.166 12 56.499 12c53.333 0 98.333 -26.667 135 -80z" />
    <glyph glyph-name="currency" unicode="&#xa4;" horiz-adv-x="560" 
d="M65 585h9.99902l67 -67c38.667 31.333 83 47 133 47c52 0 98 -17.333 138 -52l72 72h10l5 -5v-10l-71 -71c37.333 -40.667 56 -87 56 -139c0 -51.333 -17 -96 -51 -134l66 -66v-10l-5 -5h-10l-66 66c-40.667 -37.333 -88.667 -56 -144 -56
c-53.333 0 -99.666 17 -138.999 51l-61 -61h-10l-5 5v10l61 61c-37.333 38.667 -56 85 -56 139c0 56.667 20.333 104.667 61 144l-66 66v10zM274.999 545c-52 0 -96.333 -18 -133 -54s-55 -79.667 -55 -131s18.333 -95 55 -131s81 -54 133 -54s96.333 18 133 54
s55 79.667 55 131s-18.333 95 -55 131s-81 54 -133 54z" />
    <glyph glyph-name="yen" unicode="&#xa5;" horiz-adv-x="560" 
d="M75 700h10l10 -5l185 -325l185 326l10 4h10l5 -5l-190 -330h145l5 -5v-10l-5 -5h-155v-140h155l5 -5v-10l-5 -5h-155v-180l-5 -5h-10l-5 5v180h-155l-5 5v10l5 5h155v140h-155l-5 5v10l5 5h145l-190 330z" />
    <glyph glyph-name="brokenbar" unicode="&#xa6;" horiz-adv-x="300" 
d="M145 700h10l5 -5v-460l-5 -5h-10l-5 5v460zM145 170h10l5 -5v-460l-5 -5h-10l-5 5v460z" />
    <glyph glyph-name="section" unicode="&#xa7;" horiz-adv-x="495" 
d="M405 615l-10.002 -0.00292969c-18.667 28.667 -37 49.167 -55 61.5s-41.333 18.5 -70 18.5c-31.333 0 -58 -10.667 -80 -32s-33 -47.333 -33 -78c0 -25.333 6.83301 -48.5 20.5 -69.5s30.834 -38.167 51.501 -51.5l67 -43.5c24 -15.667 46.333 -31 67 -46
s37.834 -35 51.501 -60s20.5 -53.167 20.5 -84.5c0 -57.333 -17 -105.666 -51 -144.999c10.667 -19.333 16 -39.333 16 -60c0 -44 -16.167 -81.667 -48.5 -113s-71.166 -47 -116.499 -47c-80 0 -138.333 41.667 -175 125l10 5h10c34 -73.333 85.667 -110 155 -110
c39.333 0 73 13.667 101 41s42 60.333 42 99c0 26.667 -10.5 50.5 -31.5 71.5s-46.667 39.5 -77 55.5s-60.666 33 -90.999 51s-56 41.167 -77 69.5s-31.5 60.833 -31.5 97.5c0 30.667 7 59.334 21 86.001s33.333 48.334 58 65.001c-9.33301 20 -14 41.333 -14 64
c0 36 13.167 66.667 39.5 92s58.166 38 95.499 38c33.333 0 61.166 -7.83301 83.499 -23.5s42.833 -39.5 61.5 -71.5zM157.998 503.997c-44 -32 -66 -76.668 -66 -134.001c0 -27.333 7 -52 21 -74s32.5 -40.833 55.5 -56.5s46.667 -30.167 71 -43.5s49 -28.166 74 -44.499
s44.167 -32.5 57.5 -48.5c28 34 42 76.333 42 127c0 34 -10.333 64.333 -31 91s-44.167 47.5 -70.5 62.5s-55 33.333 -86 55s-53.5 43.5 -67.5 65.5z" />
    <glyph glyph-name="dieresis" unicode="&#xa8;" 
d="M185 630h10l25 -25v-10l-25 -25h-10l-25 25v10zM405 630h10l25 -25v-10l-25 -25h-10l-25 25v10z" />
    <glyph glyph-name="copyright" unicode="&#xa9;" horiz-adv-x="840" 
d="M420 715c98.667 0 183.334 -35 254.001 -105s106 -156.667 106 -260s-35.333 -190 -106 -260s-155.334 -105 -254.001 -105s-183.334 35 -254.001 105s-106 156.667 -106 260s35.333 190 106 260s155.334 105 254.001 105zM420 695
c-92.667 0 -172.167 -33.833 -238.5 -101.5s-99.5 -148.834 -99.5 -243.501s33.167 -175.834 99.5 -243.501s145.833 -101.5 238.5 -101.5s172.167 33.833 238.5 101.5s99.5 148.834 99.5 243.501s-33.167 175.834 -99.5 243.501s-145.833 101.5 -238.5 101.5zM550 495
l-4.99902 -5c-32.667 23.333 -71 35 -115 35c-48 0 -88.833 -16.5 -122.5 -49.5s-50.5 -73.167 -50.5 -120.5s16.833 -87.5 50.5 -120.5s74.5 -49.5 122.5 -49.5c39.333 0 77.666 13.333 114.999 40l5 -7v-13c-35.333 -26.667 -75.333 -40 -120 -40
c-54 0 -100 18.5 -138 55.5s-57 81.833 -57 134.5s19 97.5 57 134.5s84 55.5 138 55.5c48.667 0 88.667 -11.667 120 -35v-15z" />
    <glyph glyph-name="ordfeminine" unicode="&#xaa;" horiz-adv-x="440" 
d="M350 710h10l5 -5v-300l-5 -5h-10l-5 5v43c-36.667 -35.333 -78.334 -53 -125.001 -53c-45.333 0 -84.166 15.667 -116.499 47s-48.5 69 -48.5 113s16.167 81.667 48.5 113s71.166 47 116.499 47c46.667 0 88.334 -17.667 125.001 -53v43zM345 483v143
c-18 24 -38.667 41.5 -62 52.5s-44.333 16.5 -63 16.5c-39.333 0 -73 -13.667 -101 -41s-42 -60.333 -42 -99s14 -71.667 42 -99s61.667 -41 101 -41c52 0 93.667 22.667 125 68zM70 325h310l5 -5v-10l-5 -5h-310l-5 5v10z" />
    <glyph glyph-name="guillemotleft" unicode="&#xab;" horiz-adv-x="480" 
d="M235 435l5 -5v-15l-180 -180l180 -180v-15l-5 -5l-195 195v10zM415 435l5 -5v-15l-180 -180l180 -180v-15l-5 -5l-195 195v10z" />
    <glyph glyph-name="logicalnot" unicode="&#xac;" horiz-adv-x="560" 
d="M90 415h380l5 -5v-235l-5 -5h-10l-5 5v220h-365l-5 5v10z" />
    <glyph glyph-name="uni00AD" unicode="&#xad;" horiz-adv-x="440" 
d="M65 245h310l5 -5v-10l-5 -5h-310l-5 5v10z" />
    <glyph glyph-name="registered" unicode="&#xae;" horiz-adv-x="560" 
d="M280 730c60.667 0 112.5 -21.5 155.5 -64.5s64.5 -94.833 64.5 -155.5s-21.5 -112.5 -64.5 -155.5s-94.833 -64.5 -155.5 -64.5s-112.5 21.5 -155.5 64.5s-64.5 94.833 -64.5 155.5s21.5 112.5 64.5 155.5s94.833 64.5 155.5 64.5zM280 710
c-54.667 0 -101.334 -19.5 -140.001 -58.5s-58 -86.167 -58 -141.5s19.333 -102.5 58 -141.5s85.334 -58.5 140.001 -58.5s101.334 19.5 140.001 58.5s58 86.167 58 141.5s-19.333 102.5 -58 141.5s-85.334 58.5 -140.001 58.5zM220 625h70.001
c24.667 0 44.167 -6.66699 58.5 -20s21.5 -30 21.5 -50c0 -18.667 -5.83301 -34 -17.5 -46s-25.834 -19 -42.501 -21l60 -83l-5 -5h-10l-10 5l-60 80h-50v-80l-5 -5h-10l-5 5v215zM235.001 605v-100h55c18.667 0 33 4.66699 43 14s15 21.333 15 36s-4.83301 26.667 -14.5 36
s-24.167 14 -43.5 14h-55z" />
    <glyph glyph-name="macron" unicode="&#xaf;" 
d="M145 610h310l5 -5v-10l-5 -5h-310l-5 5v10z" />
    <glyph glyph-name="degree" unicode="&#xb0;" horiz-adv-x="440" 
d="M220 725c45.333 0 84.166 -15.667 116.499 -47s48.5 -69 48.5 -113s-16.167 -81.667 -48.5 -113s-71.166 -47 -116.499 -47s-84.166 15.667 -116.499 47s-48.5 69 -48.5 113s16.167 81.667 48.5 113s71.166 47 116.499 47zM220 705c-39.333 0 -73 -13.833 -101 -41.5
s-42 -60.5 -42 -98.5s14 -70.833 42 -98.5s61.667 -41.5 101 -41.5s73 13.833 101 41.5s42 60.5 42 98.5s-14 70.833 -42 98.5s-61.667 41.5 -101 41.5z" />
    <glyph glyph-name="plusminus" unicode="&#xb1;" horiz-adv-x="560" 
d="M275 560h10l5 -5v-180h180l5 -5v-10l-5 -5h-180v-180l-5 -5h-10l-5 5v180h-180l-5 5v10l5 5h180v180zM90 60h380l5 -5v-10l-5 -5h-380l-5 5v10z" />
    <glyph glyph-name="twosuperior" unicode="&#xb2;" horiz-adv-x="320" 
d="M40 810l0.000976562 15.002c33.333 33.333 66.666 50 99.999 50c30.667 0 56.667 -10.333 78 -31s32 -47 32 -79c0 -30 -20 -78.333 -60 -145l-105 -160h170l5 -5v-10l-5 -5h-200l-5 5l125 190c35.333 55.333 53 98.666 53 129.999c0 27.333 -8.33301 49.166 -25 65.499
s-37.667 24.5 -63 24.5c-30 0 -61.667 -16.667 -95 -50z" />
    <glyph glyph-name="threesuperior" unicode="&#xb3;" horiz-adv-x="360" 
d="M55 860l220 -0.00195312l5 -5l-110 -165c42 2.66699 75.833 -8 101.5 -32s38.5 -55 38.5 -93c0 -37.333 -14 -70 -42 -98s-60.667 -42 -98 -42c-52.667 0 -96 21.667 -130 65l10 15h5c30 -40 68.333 -60 115 -60c32.667 0 60.5 11.833 83.5 35.5s34.5 51.834 34.5 84.501
s-10.333 58.334 -31 77.001s-49.667 28 -87 28c-10 0 -21.667 -3.33301 -35 -10l-5 5l115 175h-190l-5 5v10z" />
    <glyph glyph-name="acute" unicode="&#xb4;" 
d="M400 670h16l4 -5l-150 -145l-10 -5h-10l-5 5l145 145z" />
    <glyph glyph-name="mu" unicode="&#xb5;" horiz-adv-x="620" 
d="M105 470h10.001l5 -5v-245c0 -143.333 60 -215 180 -215c37.333 0 74.5 10.333 111.5 31s68.167 48.667 93.5 84c-3.33301 48 -5 124.667 -5 230v115l5 5h10l5 -5v-115c0 -150 8.33301 -265 25 -345l-5 -5h-13l-5 5c-4 21.333 -8 51.333 -12 90
c-26.667 -34 -58.834 -60.833 -96.501 -80.5s-75.5 -29.5 -113.5 -29.5c-90 0 -150 35 -180 105v-315l-5 -5h-10l-5 5v690z" />
    <glyph glyph-name="paragraph" unicode="&#xb6;" horiz-adv-x="620" 
d="M516 700l4.00098 -5v-690l-5 -5h-10l-5 5v675h-160v-675l-5 -5h-10l-5 5v265c-81.333 0 -145 20.667 -191 62s-69 92.333 -69 153s22.667 111.667 68 153s102.666 62 171.999 62h216z" />
    <glyph glyph-name="periodcentered" unicode="&#xb7;" horiz-adv-x="300" 
d="M135 360h30l5 -5v-30l-5 -5h-30l-5 5v30z" />
    <glyph glyph-name="cedilla" unicode="&#xb8;" 
d="M290 0h20.002l-15 -75c23.333 -5.33301 41.666 -15.333 54.999 -30s20 -33 20 -55c0 -22.667 -9.16699 -42.5 -27.5 -59.5s-40.833 -25.5 -67.5 -25.5c-36.667 0 -65 13.333 -85 40l10 15h5c17.333 -23.333 40.666 -35 69.999 -35c22 0 39.667 6.33301 53 19s20 28 20 46
s-6.66699 33.333 -20 46s-31 19 -53 19l-5 5z" />
    <glyph glyph-name="onesuperior" unicode="&#xb9;" horiz-adv-x="220" 
d="M135 865l5 -5v-415l-5 -5h-10l-5 5v400l5 10z" />
    <glyph glyph-name="ordmasculine" unicode="&#xba;" horiz-adv-x="440" 
d="M220 715c45.333 0 84.166 -15.667 116.499 -47s48.5 -69 48.5 -113s-16.167 -81.667 -48.5 -113s-71.166 -47 -116.499 -47s-84.166 15.667 -116.499 47s-48.5 69 -48.5 113s16.167 81.667 48.5 113s71.166 47 116.499 47zM220 695c-39.333 0 -73 -13.833 -101 -41.5
s-42 -60.5 -42 -98.5s14 -70.833 42 -98.5s61.667 -41.5 101 -41.5s73 13.833 101 41.5s42 60.5 42 98.5s-14 70.833 -42 98.5s-61.667 41.5 -101 41.5zM70 325h310l5 -5v-10l-5 -5h-310l-5 5v10z" />
    <glyph glyph-name="guillemotright" unicode="&#xbb;" horiz-adv-x="480" 
d="M60 430l5 5l195 -195v-10l-195 -195l-5 5v15l180 180l-180 180v15zM240 430l5 5l195 -195v-10l-195 -195l-5 5v15l180 180l-180 180v15z" />
    <glyph glyph-name="onequarter" unicode="&#xbc;" horiz-adv-x="840" 
d="M215 705l5 -5v-415l-5 -5h-10l-5 5v400l5 10zM615 700h10l5 -5l-395 -690l-10 -5h-10l-5 5l395 690zM705 425l5 -5v-255h85l5 -5v-10l-5 -5h-85v-140l-5 -5h-10l-5 5v140h-225l-5 5zM690 380l-190 -215h190v215z" />
    <glyph glyph-name="onehalf" unicode="&#xbd;" horiz-adv-x="840" 
d="M215 705l5 -5v-415l-5 -5h-10l-5 5v400l5 10zM595 700h10l5 -5l-395 -690l-10 -5h-10l-5 5l395 690zM520 370l0.000976562 15.002c33.333 33.333 66.666 50 99.999 50c30.667 0 56.667 -10.333 78 -31s32 -47 32 -79c0 -30 -20 -78.333 -60 -145l-105 -160h170l5 -5v-10
l-5 -5h-200l-5 5l125 190c35.333 55.333 53 98.666 53 129.999c0 27.333 -8.33301 49.166 -25 65.499s-37.667 24.5 -63 24.5c-30 0 -61.667 -16.667 -95 -50z" />
    <glyph glyph-name="threequarters" unicode="&#xbe;" horiz-adv-x="840" 
d="M85 700h220l5 -5l-110 -165c42 2.66699 75.833 -7.83301 101.5 -31.5s38.5 -54.5 38.5 -92.5s-14 -71 -42 -99s-60.667 -42 -98 -42c-48 0 -89.667 20 -125 60l10 15h5c31.333 -36.667 68 -55 110 -55c32.667 0 60.5 11.833 83.5 35.5s34.5 52.167 34.5 85.5
c0 32 -10.333 57.333 -31 76s-49.667 28 -87 28c-10 0 -21.667 -3.33301 -35 -10l-5 5l115 175h-190l-5 5v10zM635 700h10l5 -5l-395 -690l-10 -5h-10l-5 5l395 690zM705 425l5 -5v-255h85l5 -5v-10l-5 -5h-85v-140l-5 -5h-10l-5 5v140h-225l-5 5zM690 380l-190 -215h190
v215z" />
    <glyph glyph-name="questiondown" unicode="&#xbf;" horiz-adv-x="470" 
d="M397 -122l12.998 -8c-18 -38.667 -43 -69.167 -75 -91.5s-68.667 -33.5 -110 -33.5c-45.333 0 -84.166 16.167 -116.499 48.5s-48.5 71.166 -48.5 116.499c0 24 7 47.667 21 71s30.833 44.166 50.5 62.499l59.5 54c20 17.667 37 36.334 51 56.001s21 38.5 21 56.5
c0 20 -4 36 -12 48s-20 24.333 -36 37l15 15c36.667 -25.333 55 -58.666 55 -99.999c0 -20 -7 -40.333 -21 -61s-30.833 -40 -50.5 -58l-59.5 -54.5c-20 -18.333 -37 -38.5 -51 -60.5s-21 -44 -21 -66c0 -40 14 -74.167 42 -102.5s61.667 -42.5 101 -42.5
c70.667 0 126.334 37.667 167.001 113h5zM234.998 415h-10l-25 25v10l25 25h10l25 -25v-10z" />
    <glyph glyph-name="Agrave" unicode="&#xc0;" horiz-adv-x="640" 
d="M310 700h20l5 -5l275 -690l-5 -5h-10l-5 5l-97 240h-346l-97 -240l-5 -5h-10l-5 5l275 690zM320 680l-165 -415h330zM194 875h26l10 -5l145 -125l-5 -5h-10l-10 5l-160 125z" />
    <glyph glyph-name="Aacute" unicode="&#xc1;" horiz-adv-x="640" 
d="M310 700h20l5 -5l275 -690l-5 -5h-10l-5 5l-97 240h-346l-97 -240l-5 -5h-10l-5 5l275 690zM320 680l-165 -415h330zM420 875h26l4 -5l-160 -125l-10 -5h-10l-5 5l145 125z" />
    <glyph glyph-name="Acircumflex" unicode="&#xc2;" horiz-adv-x="640" 
d="M310 700h20l5 -5l275 -690l-5 -5h-10l-5 5l-97 240h-346l-97 -240l-5 -5h-10l-5 5l275 690zM320 680l-165 -415h330zM315 875h10l10 -5l120 -125l-5 -5h-10l-10 5l-110 115l-110 -115l-10 -5h-10l-5 5l120 125z" />
    <glyph glyph-name="Atilde" unicode="&#xc3;" horiz-adv-x="640" 
d="M310 700h20l5 -5l275 -690l-5 -5h-10l-5 5l-97 240h-346l-97 -240l-5 -5h-10l-5 5l275 690zM320 680l-165 -415h330zM505 845l5 -5c-25.333 -46.667 -58.666 -70 -99.999 -70c-26 0 -58.167 9.16699 -96.5 27.5s-67.833 27.5 -88.5 27.5
c-32.667 0 -62.667 -18.333 -90 -55l-5 5c25.333 46.667 58.666 70 99.999 70c26 0 58.167 -9.16699 96.5 -27.5s67.833 -27.5 88.5 -27.5c32.667 0 62.667 18.333 90 55z" />
    <glyph glyph-name="Adieresis" unicode="&#xc4;" horiz-adv-x="640" 
d="M310 700h20l5 -5l275 -690l-5 -5h-10l-5 5l-97 240h-346l-97 -240l-5 -5h-10l-5 5l275 690zM320 680l-165 -415h330zM200 840h10l30 -30v-10l-30 -30h-10l-30 30v10zM430 840h10l30 -30v-10l-30 -30h-10l-30 30v10z" />
    <glyph glyph-name="Aring" unicode="&#xc5;" horiz-adv-x="640" 
d="M310 700h20l5 -5l275 -690l-5 -5h-10l-5 5l-97 240h-346l-97 -240l-5 -5h-10l-5 5l275 690zM320 680l-165 -415h330zM320 895c27.333 0 50.833 -9.33301 70.5 -28s29.5 -41 29.5 -67s-9.83301 -48.333 -29.5 -67s-43.167 -28 -70.5 -28s-50.833 9.33301 -70.5 28
s-29.5 41 -29.5 67s9.83301 48.333 29.5 67s43.167 28 70.5 28zM320 875c-22 0 -40.5 -7.33301 -55.5 -22s-22.5 -32.334 -22.5 -53.001s7.5 -38.334 22.5 -53.001s33.5 -22 55.5 -22s40.5 7.33301 55.5 22s22.5 32.334 22.5 53.001s-7.5 38.334 -22.5 53.001
s-33.5 22 -55.5 22z" />
    <glyph glyph-name="AE" unicode="&#xc6;" horiz-adv-x="980" 
d="M560 700h345l5 -5v-10l-5 -5h-325v-285h245l5 -5v-10l-5 -5h-245v-355h355l5 -5v-10l-5 -5h-370l-5 5v240h-325l-180 -240l-10 -5h-10l-5 5l520 690zM560 675l-310 -410h310v410z" />
    <glyph glyph-name="Ccedilla" unicode="&#xc7;" horiz-adv-x="760" 
d="M680 620l-5 -4.99805c-68 53.333 -146.333 80 -235 80c-95.333 0 -177.166 -33.833 -245.499 -101.5s-102.5 -148.834 -102.5 -243.501s34.167 -175.834 102.5 -243.501s150.166 -101.5 245.499 -101.5c88.667 0 167 26.667 235 80l5 -5v-20
c-69.333 -50 -149.333 -75 -240 -75c-102 0 -189.167 35.833 -261.5 107.5s-108.5 157.5 -108.5 257.5s36.167 185.833 108.5 257.5s159.5 107.5 261.5 107.5c90.667 0 170.667 -25 240 -75v-20zM450 -59.998h15l5 -5l-45 -165l-5 -5h-10l-5 5l35 165z" />
    <glyph glyph-name="Egrave" unicode="&#xc8;" horiz-adv-x="520" 
d="M105 700h340l5 -5v-10l-5 -5h-325v-285h245l5 -5v-10l-5 -5h-245v-355h355l5 -5v-10l-5 -5h-370l-5 5v690zM154 875h26l10 -5l145 -125l-5 -5h-10l-10 5l-160 125z" />
    <glyph glyph-name="Eacute" unicode="&#xc9;" horiz-adv-x="520" 
d="M105 700h340l5 -5v-10l-5 -5h-325v-285h245l5 -5v-10l-5 -5h-245v-355h355l5 -5v-10l-5 -5h-370l-5 5v690zM380 875h26l4 -5l-160 -125l-10 -5h-10l-5 5l145 125z" />
    <glyph glyph-name="Ecircumflex" unicode="&#xca;" horiz-adv-x="520" 
d="M105 700h340l5 -5v-10l-5 -5h-325v-285h245l5 -5v-10l-5 -5h-245v-355h355l5 -5v-10l-5 -5h-370l-5 5v690zM275 875h10l10 -5l120 -125l-5 -5h-10l-10 5l-110 115l-110 -115l-10 -5h-10l-5 5l120 125z" />
    <glyph glyph-name="Edieresis" unicode="&#xcb;" horiz-adv-x="520" 
d="M105 700h340l5 -5v-10l-5 -5h-325v-285h245l5 -5v-10l-5 -5h-245v-355h355l5 -5v-10l-5 -5h-370l-5 5v690zM160 840h10l30 -30v-10l-30 -30h-10l-30 30v10zM390 840h10l30 -30v-10l-30 -30h-10l-30 30v10z" />
    <glyph glyph-name="Igrave" unicode="&#xcc;" horiz-adv-x="220" 
d="M105 700h10l5 -5v-690l-5 -5h-10l-5 5v690zM4 875h26l10 -5l125 -125l-5 -5h-10l-10 5l-140 125z" />
    <glyph glyph-name="Iacute" unicode="&#xcd;" horiz-adv-x="220" 
d="M105 700h10l5 -5v-690l-5 -5h-10l-5 5v690zM190 875h26l4 -5l-140 -125l-10 -5h-10l-5 5l125 125z" />
    <glyph glyph-name="Icircumflex" unicode="&#xce;" horiz-adv-x="220" 
d="M105 700h10l5 -5v-690l-5 -5h-10l-5 5v690zM105 875h10l10 -5l100 -125l-5 -5h-10l-10 5l-90 110l-90 -110l-10 -5h-10l-5 5l100 125z" />
    <glyph glyph-name="Idieresis" unicode="&#xcf;" horiz-adv-x="220" 
d="M105 700h10l5 -5v-690l-5 -5h-10l-5 5v690zM10 840h10l30 -30v-10l-30 -30h-10l-30 30v10zM200 840h10l30 -30v-10l-30 -30h-10l-30 30v10z" />
    <glyph glyph-name="Eth" unicode="&#xd0;" horiz-adv-x="690" 
d="M105 700h155c106.667 0 195 -33.667 265 -101s105 -150.333 105 -249s-35 -181.667 -105 -249s-158.333 -101 -265 -101h-155l-5 5v350h-75l-5 5v10l5 5h75v320zM120 680v-305.002h205l5 -5v-10l-5 -5h-205v-335h140c97.333 0 179.666 31.833 246.999 95.5
s101 141.834 101 234.501s-33.667 170.834 -101 234.501s-149.666 95.5 -246.999 95.5h-140z" />
    <glyph glyph-name="Ntilde" unicode="&#xd1;" horiz-adv-x="740" 
d="M105 700h13l10 -5l492 -665v665l5 5h10l5 -5v-690l-5 -5h-12l-10 5l-493 665v-665l-5 -5h-10l-5 5v690zM575 845l5 -5c-25.333 -46.667 -58.666 -70 -99.999 -70c-26 0 -58.167 9.16699 -96.5 27.5s-67.833 27.5 -88.5 27.5c-32.667 0 -62.667 -18.333 -90 -55l-5 5
c25.333 46.667 58.666 70 99.999 70c26 0 58.167 -9.16699 96.5 -27.5s67.833 -27.5 88.5 -27.5c32.667 0 62.667 18.333 90 55z" />
    <glyph glyph-name="Ograve" unicode="&#xd2;" horiz-adv-x="880" 
d="M440 715c102 0 189.167 -35.667 261.5 -107s108.5 -157.333 108.5 -258s-36.167 -186.667 -108.5 -258s-159.5 -107 -261.5 -107s-189.167 35.667 -261.5 107s-108.5 157.333 -108.5 258s36.167 186.667 108.5 258s159.5 107 261.5 107zM440 695
c-95.333 0 -177.166 -33.833 -245.499 -101.5s-102.5 -148.834 -102.5 -243.501s34.167 -175.834 102.5 -243.501s150.166 -101.5 245.499 -101.5s177.166 33.833 245.499 101.5s102.5 148.834 102.5 243.501s-34.167 175.834 -102.5 243.501s-150.166 101.5 -245.499 101.5
zM314 875h26l10 -5l145 -125l-5 -5h-10l-10 5l-160 125z" />
    <glyph glyph-name="Oacute" unicode="&#xd3;" horiz-adv-x="880" 
d="M440 715c102 0 189.167 -35.667 261.5 -107s108.5 -157.333 108.5 -258s-36.167 -186.667 -108.5 -258s-159.5 -107 -261.5 -107s-189.167 35.667 -261.5 107s-108.5 157.333 -108.5 258s36.167 186.667 108.5 258s159.5 107 261.5 107zM440 695
c-95.333 0 -177.166 -33.833 -245.499 -101.5s-102.5 -148.834 -102.5 -243.501s34.167 -175.834 102.5 -243.501s150.166 -101.5 245.499 -101.5s177.166 33.833 245.499 101.5s102.5 148.834 102.5 243.501s-34.167 175.834 -102.5 243.501s-150.166 101.5 -245.499 101.5
zM540 875h26l4 -5l-160 -125l-10 -5h-10l-5 5l145 125z" />
    <glyph glyph-name="Ocircumflex" unicode="&#xd4;" horiz-adv-x="880" 
d="M440 715c102 0 189.167 -35.667 261.5 -107s108.5 -157.333 108.5 -258s-36.167 -186.667 -108.5 -258s-159.5 -107 -261.5 -107s-189.167 35.667 -261.5 107s-108.5 157.333 -108.5 258s36.167 186.667 108.5 258s159.5 107 261.5 107zM440 695
c-95.333 0 -177.166 -33.833 -245.499 -101.5s-102.5 -148.834 -102.5 -243.501s34.167 -175.834 102.5 -243.501s150.166 -101.5 245.499 -101.5s177.166 33.833 245.499 101.5s102.5 148.834 102.5 243.501s-34.167 175.834 -102.5 243.501s-150.166 101.5 -245.499 101.5
zM435 875h10l10 -5l120 -125l-5 -5h-10l-10 5l-110 115l-110 -115l-10 -5h-10l-5 5l120 125z" />
    <glyph glyph-name="Otilde" unicode="&#xd5;" horiz-adv-x="880" 
d="M440 715c102 0 189.167 -35.667 261.5 -107s108.5 -157.333 108.5 -258s-36.167 -186.667 -108.5 -258s-159.5 -107 -261.5 -107s-189.167 35.667 -261.5 107s-108.5 157.333 -108.5 258s36.167 186.667 108.5 258s159.5 107 261.5 107zM440 695
c-95.333 0 -177.166 -33.833 -245.499 -101.5s-102.5 -148.834 -102.5 -243.501s34.167 -175.834 102.5 -243.501s150.166 -101.5 245.499 -101.5s177.166 33.833 245.499 101.5s102.5 148.834 102.5 243.501s-34.167 175.834 -102.5 243.501s-150.166 101.5 -245.499 101.5
zM625 845l5 -5c-25.333 -46.667 -58.666 -70 -99.999 -70c-26 0 -58.167 9.16699 -96.5 27.5s-67.833 27.5 -88.5 27.5c-32.667 0 -62.667 -18.333 -90 -55l-5 5c25.333 46.667 58.666 70 99.999 70c26 0 58.167 -9.16699 96.5 -27.5s67.833 -27.5 88.5 -27.5
c32.667 0 62.667 18.333 90 55z" />
    <glyph glyph-name="Odieresis" unicode="&#xd6;" horiz-adv-x="880" 
d="M440 715c102 0 189.167 -35.667 261.5 -107s108.5 -157.333 108.5 -258s-36.167 -186.667 -108.5 -258s-159.5 -107 -261.5 -107s-189.167 35.667 -261.5 107s-108.5 157.333 -108.5 258s36.167 186.667 108.5 258s159.5 107 261.5 107zM440 695
c-95.333 0 -177.166 -33.833 -245.499 -101.5s-102.5 -148.834 -102.5 -243.501s34.167 -175.834 102.5 -243.501s150.166 -101.5 245.499 -101.5s177.166 33.833 245.499 101.5s102.5 148.834 102.5 243.501s-34.167 175.834 -102.5 243.501s-150.166 101.5 -245.499 101.5
zM320 840h10l30 -30v-10l-30 -30h-10l-30 30v10zM550 840h10l30 -30v-10l-30 -30h-10l-30 30v10z" />
    <glyph glyph-name="multiply" unicode="&#xd7;" horiz-adv-x="560" 
d="M125 525h10l145 -145l145 145h10l5 -5v-10l-145 -145l145 -145v-10l-5 -5h-10l-145 145l-145 -145h-10l-5 5v10l145 145l-145 145v10z" />
    <glyph glyph-name="Oslash" unicode="&#xd8;" horiz-adv-x="880" 
d="M440 715c95.333 0 178.333 -32 249 -96l106 106h5l10 -10v-5l-106 -106c70.667 -72 106 -156.667 106 -254c0 -100.667 -36.167 -186.667 -108.5 -258s-159.5 -107 -261.5 -107c-98 0 -183 33.333 -255 100l-100 -100h-5l-10 10v5l100 100
c-66.667 70 -100 153.333 -100 250c0 100.667 36.167 186.667 108.5 258s159.5 107 261.5 107zM185 115l488.999 489.001c-67.333 60.667 -145.333 91 -234 91c-95.333 0 -177.166 -33.833 -245.499 -101.5s-102.5 -148.834 -102.5 -243.501c0 -90.667 31 -169 93 -235z
M688.999 589.001l-488.999 -489.001c67.333 -63.333 147.333 -95 240 -95c95.333 0 177.166 33.833 245.499 101.5s102.5 148.834 102.5 243.501c0 92 -33 171.667 -99 239z" />
    <glyph glyph-name="Ugrave" unicode="&#xd9;" horiz-adv-x="740" 
d="M105 700h9.99805l5 -5v-385c0 -96.667 22.167 -171.667 66.5 -225s105.5 -80 183.5 -80s139.167 26.667 183.5 80s66.5 128.333 66.5 225v385l5 5h10l5 -5v-385c0 -102.667 -23.667 -182.5 -71 -239.5s-113.666 -85.5 -198.999 -85.5s-151.666 28.5 -198.999 85.5
s-71 136.833 -71 239.5v385zM243.998 875h26l10 -5l145 -125l-5 -5h-10l-10 5l-160 125z" />
    <glyph glyph-name="Uacute" unicode="&#xda;" horiz-adv-x="740" 
d="M105 700h9.99805l5 -5v-385c0 -96.667 22.167 -171.667 66.5 -225s105.5 -80 183.5 -80s139.167 26.667 183.5 80s66.5 128.333 66.5 225v385l5 5h10l5 -5v-385c0 -102.667 -23.667 -182.5 -71 -239.5s-113.666 -85.5 -198.999 -85.5s-151.666 28.5 -198.999 85.5
s-71 136.833 -71 239.5v385zM469.998 875h26l4 -5l-160 -125l-10 -5h-10l-5 5l145 125z" />
    <glyph glyph-name="Ucircumflex" unicode="&#xdb;" horiz-adv-x="740" 
d="M105 700h9.99805l5 -5v-385c0 -96.667 22.167 -171.667 66.5 -225s105.5 -80 183.5 -80s139.167 26.667 183.5 80s66.5 128.333 66.5 225v385l5 5h10l5 -5v-385c0 -102.667 -23.667 -182.5 -71 -239.5s-113.666 -85.5 -198.999 -85.5s-151.666 28.5 -198.999 85.5
s-71 136.833 -71 239.5v385zM364.998 875h10l10 -5l120 -125l-5 -5h-10l-10 5l-110 115l-110 -115l-10 -5h-10l-5 5l120 125z" />
    <glyph glyph-name="Udieresis" unicode="&#xdc;" horiz-adv-x="740" 
d="M105 700h9.99805l5 -5v-385c0 -96.667 22.167 -171.667 66.5 -225s105.5 -80 183.5 -80s139.167 26.667 183.5 80s66.5 128.333 66.5 225v385l5 5h10l5 -5v-385c0 -102.667 -23.667 -182.5 -71 -239.5s-113.666 -85.5 -198.999 -85.5s-151.666 28.5 -198.999 85.5
s-71 136.833 -71 239.5v385zM249.998 840h10l30 -30v-10l-30 -30h-10l-30 30v10zM479.998 840h10l30 -30v-10l-30 -30h-10l-30 30v10z" />
    <glyph glyph-name="Yacute" unicode="&#xdd;" 
d="M35 700h10l10 -5l245 -310l246 310l9 5h10l5 -5l-260 -330v-360l-5 -5h-10l-5 5v360l-260 330zM400 875h26l4 -5l-160 -125l-10 -5h-10l-5 5l145 125z" />
    <glyph glyph-name="Thorn" unicode="&#xde;" horiz-adv-x="560" 
d="M105 700l10 -0.00195312l5 -5v-145h140c83.333 0 145.833 -17.167 187.5 -51.5s62.5 -82.166 62.5 -143.499s-20.833 -109.166 -62.5 -143.499s-104.167 -51.5 -187.5 -51.5h-140v-155l-5 -5h-10l-5 5v690zM120 529.998v-350h140c73.333 0 129.666 14.833 168.999 44.5
s59 73.167 59 130.5s-19.667 100.833 -59 130.5s-95.666 44.5 -168.999 44.5h-140z" />
    <glyph glyph-name="germandbls" unicode="&#xdf;" horiz-adv-x="560" 
d="M105 0l-5.00098 5v535c0 50 14.667 91.667 44 125s66.333 50 111 50c38.667 0 70.834 -12 96.501 -36s38.5 -57 38.5 -99c0 -31.333 -5.66699 -58.833 -17 -82.5s-22.666 -45.5 -33.999 -65.5s-17 -40.667 -17 -62c0 -16 6.16699 -30.667 18.5 -44
s27.166 -25.333 44.499 -36s34.666 -22.167 51.999 -34.5s32.166 -28.833 44.499 -49.5s18.5 -44.334 18.5 -71.001c0 -41.333 -15.167 -76.666 -45.5 -105.999s-66.833 -44 -109.5 -44c-41.333 0 -81.333 11.667 -120 35v20l5 5c38 -26.667 76.333 -40 115 -40
c36.667 0 68 12.667 94 38s39 56 39 92c0 24 -6.16699 45.167 -18.5 63.5s-27.166 33.166 -44.499 44.499l-52 33.5c-17.333 11 -32.166 24.333 -44.499 40s-18.5 33.5 -18.5 53.5c0 28.667 11.333 61.834 34 99.501s34 74.5 34 110.5s-10.667 64.167 -32 84.5
s-48.333 30.5 -81 30.5c-40 0 -72.5 -14.833 -97.5 -44.5s-37.5 -68.167 -37.5 -115.5v-530l-5 -5h-10z" />
    <glyph glyph-name="agrave" unicode="&#xe0;" horiz-adv-x="520" 
d="M95 430l9.99902 19.9971c46.667 23.333 91.667 35 135 35c64.667 0 112.5 -16.333 143.5 -49s46.5 -83 46.5 -151v-280l-5 -5h-10l-5 5v50c-60 -46.667 -123.333 -70 -190 -70c-46.667 0 -85 11.167 -115 33.5s-45 52.833 -45 91.5c0 30.667 8.33301 56.834 25 78.501
s41.334 39.167 74.001 52.5s69.167 23.333 109.5 30s87.5 11.334 141.5 14.001c0 64.667 -14.5 110.834 -43.5 138.501s-71.167 41.5 -126.5 41.5c-40 0 -86.667 -13.333 -140 -40zM409.999 79.9971l0.000976562 185c-50.667 -2.66699 -94.167 -6.83398 -130.5 -12.501
s-70.333 -14.167 -102 -25.5s-55.5 -26.666 -71.5 -45.999s-24 -43 -24 -71c0 -33.333 13.167 -59.166 39.5 -77.499s59.166 -27.5 98.499 -27.5c33.333 0 67.333 7.16699 102 21.5s64 32.166 88 53.499zM139 669.997h16l10 -5l145 -145l-5 -5h-10l-10 5l-150 145z" />
    <glyph glyph-name="aacute" unicode="&#xe1;" horiz-adv-x="520" 
d="M95 430l9.99902 19.9971c46.667 23.333 91.667 35 135 35c64.667 0 112.5 -16.333 143.5 -49s46.5 -83 46.5 -151v-280l-5 -5h-10l-5 5v50c-60 -46.667 -123.333 -70 -190 -70c-46.667 0 -85 11.167 -115 33.5s-45 52.833 -45 91.5c0 30.667 8.33301 56.834 25 78.501
s41.334 39.167 74.001 52.5s69.167 23.333 109.5 30s87.5 11.334 141.5 14.001c0 64.667 -14.5 110.834 -43.5 138.501s-71.167 41.5 -126.5 41.5c-40 0 -86.667 -13.333 -140 -40zM409.999 79.9971l0.000976562 185c-50.667 -2.66699 -94.167 -6.83398 -130.5 -12.501
s-70.333 -14.167 -102 -25.5s-55.5 -26.666 -71.5 -45.999s-24 -43 -24 -71c0 -33.333 13.167 -59.166 39.5 -77.499s59.166 -27.5 98.499 -27.5c33.333 0 67.333 7.16699 102 21.5s64 32.166 88 53.499zM355 669.997h16l4 -5l-150 -145l-10 -5h-10l-5 5l145 145z" />
    <glyph glyph-name="acircumflex" unicode="&#xe2;" horiz-adv-x="520" 
d="M95 430l9.99902 19.9971c46.667 23.333 91.667 35 135 35c64.667 0 112.5 -16.333 143.5 -49s46.5 -83 46.5 -151v-280l-5 -5h-10l-5 5v50c-60 -46.667 -123.333 -70 -190 -70c-46.667 0 -85 11.167 -115 33.5s-45 52.833 -45 91.5c0 30.667 8.33301 56.834 25 78.501
s41.334 39.167 74.001 52.5s69.167 23.333 109.5 30s87.5 11.334 141.5 14.001c0 64.667 -14.5 110.834 -43.5 138.501s-71.167 41.5 -126.5 41.5c-40 0 -86.667 -13.333 -140 -40zM409.999 79.9971l0.000976562 185c-50.667 -2.66699 -94.167 -6.83398 -130.5 -12.501
s-70.333 -14.167 -102 -25.5s-55.5 -26.666 -71.5 -45.999s-24 -43 -24 -71c0 -33.333 13.167 -59.166 39.5 -77.499s59.166 -27.5 98.499 -27.5c33.333 0 67.333 7.16699 102 21.5s64 32.166 88 53.499zM250 669.997h10l10 -5l120 -145l-5 -5h-10l-10 5l-110 135l-110 -135
l-10 -5h-10l-5 5l120 145z" />
    <glyph glyph-name="atilde" unicode="&#xe3;" horiz-adv-x="520" 
d="M95 430l9.99902 19.9971c46.667 23.333 91.667 35 135 35c64.667 0 112.5 -16.333 143.5 -49s46.5 -83 46.5 -151v-280l-5 -5h-10l-5 5v50c-60 -46.667 -123.333 -70 -190 -70c-46.667 0 -85 11.167 -115 33.5s-45 52.833 -45 91.5c0 30.667 8.33301 56.834 25 78.501
s41.334 39.167 74.001 52.5s69.167 23.333 109.5 30s87.5 11.334 141.5 14.001c0 64.667 -14.5 110.834 -43.5 138.501s-71.167 41.5 -126.5 41.5c-40 0 -86.667 -13.333 -140 -40zM409.999 79.9971l0.000976562 185c-50.667 -2.66699 -94.167 -6.83398 -130.5 -12.501
s-70.333 -14.167 -102 -25.5s-55.5 -26.666 -71.5 -45.999s-24 -43 -24 -71c0 -33.333 13.167 -59.166 39.5 -77.499s59.166 -27.5 98.499 -27.5c33.333 0 67.333 7.16699 102 21.5s64 32.166 88 53.499zM420 614.997l5 -5c-25.333 -46.667 -57 -70 -95 -70
c-22.667 0 -49.834 9.16699 -81.501 27.5s-56.167 27.5 -73.5 27.5s-32 -4 -44 -12s-25.667 -22.333 -41 -43l-5 5c25.333 46.667 57 70 95 70c22.667 0 49.834 -9.16699 81.501 -27.5s56.167 -27.5 73.5 -27.5s32 4 44 12s25.667 22.333 41 43z" />
    <glyph glyph-name="adieresis" unicode="&#xe4;" horiz-adv-x="520" 
d="M95 430l9.99902 19.9971c46.667 23.333 91.667 35 135 35c64.667 0 112.5 -16.333 143.5 -49s46.5 -83 46.5 -151v-280l-5 -5h-10l-5 5v50c-60 -46.667 -123.333 -70 -190 -70c-46.667 0 -85 11.167 -115 33.5s-45 52.833 -45 91.5c0 30.667 8.33301 56.834 25 78.501
s41.334 39.167 74.001 52.5s69.167 23.333 109.5 30s87.5 11.334 141.5 14.001c0 64.667 -14.5 110.834 -43.5 138.501s-71.167 41.5 -126.5 41.5c-40 0 -86.667 -13.333 -140 -40zM409.999 79.9971l0.000976562 185c-50.667 -2.66699 -94.167 -6.83398 -130.5 -12.501
s-70.333 -14.167 -102 -25.5s-55.5 -26.666 -71.5 -45.999s-24 -43 -24 -71c0 -33.333 13.167 -59.166 39.5 -77.499s59.166 -27.5 98.499 -27.5c33.333 0 67.333 7.16699 102 21.5s64 32.166 88 53.499zM140 629.997h10l25 -25v-10l-25 -25h-10l-25 25v10zM360 629.997h10
l25 -25v-10l-25 -25h-10l-25 25v10z" />
    <glyph glyph-name="aring" unicode="&#xe5;" horiz-adv-x="520" 
d="M95 430l9.99902 19.9971c46.667 23.333 91.667 35 135 35c64.667 0 112.5 -16.333 143.5 -49s46.5 -83 46.5 -151v-280l-5 -5h-10l-5 5v50c-60 -46.667 -123.333 -70 -190 -70c-46.667 0 -85 11.167 -115 33.5s-45 52.833 -45 91.5c0 30.667 8.33301 56.834 25 78.501
s41.334 39.167 74.001 52.5s69.167 23.333 109.5 30s87.5 11.334 141.5 14.001c0 64.667 -14.5 110.834 -43.5 138.501s-71.167 41.5 -126.5 41.5c-40 0 -86.667 -13.333 -140 -40zM409.999 79.9971l0.000976562 185c-50.667 -2.66699 -94.167 -6.83398 -130.5 -12.501
s-70.333 -14.167 -102 -25.5s-55.5 -26.666 -71.5 -45.999s-24 -43 -24 -71c0 -33.333 13.167 -59.166 39.5 -77.499s59.166 -27.5 98.499 -27.5c33.333 0 67.333 7.16699 102 21.5s64 32.166 88 53.499zM255 694.997c27.333 0 50.833 -9.33301 70.5 -28s29.5 -41 29.5 -67
s-9.83301 -48.333 -29.5 -67s-43.167 -28 -70.5 -28s-50.833 9.33301 -70.5 28s-29.5 41 -29.5 67s9.83301 48.333 29.5 67s43.167 28 70.5 28zM255 674.997c-22 0 -40.5 -7.33301 -55.5 -22s-22.5 -32.334 -22.5 -53.001s7.5 -38.334 22.5 -53.001s33.5 -22 55.5 -22
s40.5 7.33301 55.5 22s22.5 32.334 22.5 53.001s-7.5 38.334 -22.5 53.001s-33.5 22 -55.5 22z" />
    <glyph glyph-name="ae" unicode="&#xe6;" horiz-adv-x="860" 
d="M95 430l10.0029 19.999c46.667 23.333 90 35 130 35c101.333 0 158.666 -50 171.999 -150c14.667 44 40 80 76 108s78.333 42 127 42c32 0 60.667 -6.83301 86 -20.5s45.333 -31.5 60 -53.5s25.667 -45 33 -69s11 -48 11 -72c0 -9.33301 -1.66699 -17.666 -5 -24.999
l-10 -5h-373c0 -65.333 20.5 -120.833 61.5 -166.5s91.5 -68.5 151.5 -68.5c58 0 111.333 21.667 160 65l5 -5v-15c-17.333 -17.333 -40.5 -32.5 -69.5 -45.5s-60.833 -19.5 -95.5 -19.5c-50.667 0 -95.334 15 -134.001 45s-66.667 68.333 -84 115
c-10.667 -50 -34.834 -89.167 -72.501 -117.5s-79.167 -42.5 -124.5 -42.5c-42 0 -77.5 11.167 -106.5 33.5s-43.5 52.833 -43.5 91.5c0 100 110 150 330 150c0 76.667 -13.833 130 -41.5 160s-65.5 45 -113.5 45c-36.667 0 -81.667 -13.333 -135 -40zM390.003 189.999
l-0.000976562 49.999c-205.333 0 -308 -43.333 -308 -130c0 -33.333 12.5 -59.166 37.5 -77.499s55.167 -27.5 90.5 -27.5c46.667 0 88.334 16.667 125.001 50s55 78.333 55 135zM412.002 259.998h368c-2.66699 60.667 -19.334 110 -50.001 148s-70.667 57 -120 57
c-56 0 -101.667 -19.333 -137 -58s-55.666 -87.667 -60.999 -147z" />
    <glyph glyph-name="ccedilla" unicode="&#xe7;" horiz-adv-x="530" 
d="M470 420l-5 -5c-46 33.333 -97.667 50 -155 50c-64.667 0 -118.834 -22 -162.501 -66s-65.5 -98.667 -65.5 -164s21.833 -120 65.5 -164s97.834 -66 162.501 -66c57.333 0 109 16.667 155 50l5 -5v-15c-44.667 -33.333 -98 -50 -160 -50c-73.333 0 -133.333 24 -180 72
s-70 107.333 -70 178s23.333 130 70 178s106.667 72 180 72c62 0 115.333 -16.667 160 -50v-15zM320 -60h15l5 -5l-45 -165l-5 -5h-10l-5 5l35 165z" />
    <glyph glyph-name="egrave" unicode="&#xe8;" horiz-adv-x="550" 
d="M480 65l-0.000976562 -15.001c-16.667 -16.667 -41 -31.667 -73 -45s-64.333 -20 -97 -20c-75.333 0 -135.833 24.5 -181.5 73.5s-68.5 109.5 -68.5 181.5c0 69.333 21.167 127.5 63.5 174.5s97.833 70.5 166.5 70.5c45.333 0 83.833 -12 115.5 -36
s53.667 -51.667 66 -83s18.5 -63.333 18.5 -96c0 -9.33301 -1.66699 -17.666 -5 -24.999l-10 -5h-393c0 -66.667 20.833 -122.5 62.5 -167.5s96.834 -67.5 165.501 -67.5c61.333 0 116.333 21.667 165 65zM81.999 259.999h388
c-2.66699 61.333 -19.834 110.833 -51.501 148.5s-74.5 56.5 -128.5 56.5c-60.667 0 -109.167 -19.167 -145.5 -57.5s-57.166 -87.5 -62.499 -147.5zM173.999 669.999h16l10 -5l145 -145l-5 -5h-10l-10 5l-150 145z" />
    <glyph glyph-name="eacute" unicode="&#xe9;" horiz-adv-x="550" 
d="M480 65l-0.000976562 -15.001c-16.667 -16.667 -41 -31.667 -73 -45s-64.333 -20 -97 -20c-75.333 0 -135.833 24.5 -181.5 73.5s-68.5 109.5 -68.5 181.5c0 69.333 21.167 127.5 63.5 174.5s97.833 70.5 166.5 70.5c45.333 0 83.833 -12 115.5 -36
s53.667 -51.667 66 -83s18.5 -63.333 18.5 -96c0 -9.33301 -1.66699 -17.666 -5 -24.999l-10 -5h-393c0 -66.667 20.833 -122.5 62.5 -167.5s96.834 -67.5 165.501 -67.5c61.333 0 116.333 21.667 165 65zM81.999 259.999h388
c-2.66699 61.333 -19.834 110.833 -51.501 148.5s-74.5 56.5 -128.5 56.5c-60.667 0 -109.167 -19.167 -145.5 -57.5s-57.166 -87.5 -62.499 -147.5zM389.999 669.999h16l4 -5l-150 -145l-10 -5h-10l-5 5l145 145z" />
    <glyph glyph-name="ecircumflex" unicode="&#xea;" horiz-adv-x="550" 
d="M480 65l-0.000976562 -15.001c-16.667 -16.667 -41 -31.667 -73 -45s-64.333 -20 -97 -20c-75.333 0 -135.833 24.5 -181.5 73.5s-68.5 109.5 -68.5 181.5c0 69.333 21.167 127.5 63.5 174.5s97.833 70.5 166.5 70.5c45.333 0 83.833 -12 115.5 -36
s53.667 -51.667 66 -83s18.5 -63.333 18.5 -96c0 -9.33301 -1.66699 -17.666 -5 -24.999l-10 -5h-393c0 -66.667 20.833 -122.5 62.5 -167.5s96.834 -67.5 165.501 -67.5c61.333 0 116.333 21.667 165 65zM81.999 259.999h388
c-2.66699 61.333 -19.834 110.833 -51.501 148.5s-74.5 56.5 -128.5 56.5c-60.667 0 -109.167 -19.167 -145.5 -57.5s-57.166 -87.5 -62.499 -147.5zM284.999 669.999h10l10 -5l120 -145l-5 -5h-10l-10 5l-110 135l-110 -135l-10 -5h-10l-5 5l120 145z" />
    <glyph glyph-name="edieresis" unicode="&#xeb;" horiz-adv-x="550" 
d="M480 65l-0.000976562 -15.001c-16.667 -16.667 -41 -31.667 -73 -45s-64.333 -20 -97 -20c-75.333 0 -135.833 24.5 -181.5 73.5s-68.5 109.5 -68.5 181.5c0 69.333 21.167 127.5 63.5 174.5s97.833 70.5 166.5 70.5c45.333 0 83.833 -12 115.5 -36
s53.667 -51.667 66 -83s18.5 -63.333 18.5 -96c0 -9.33301 -1.66699 -17.666 -5 -24.999l-10 -5h-393c0 -66.667 20.833 -122.5 62.5 -167.5s96.834 -67.5 165.501 -67.5c61.333 0 116.333 21.667 165 65zM81.999 259.999h388
c-2.66699 61.333 -19.834 110.833 -51.501 148.5s-74.5 56.5 -128.5 56.5c-60.667 0 -109.167 -19.167 -145.5 -57.5s-57.166 -87.5 -62.499 -147.5zM174.999 629.999h10l25 -25v-10l-25 -25h-10l-25 25v10zM394.999 629.999h10l25 -25v-10l-25 -25h-10l-25 25v10z" />
    <glyph glyph-name="igrave" unicode="&#xec;" horiz-adv-x="220" 
d="M105 470h10l5 -5v-460l-5 -5h-10l-5 5v460zM4 670h16l10 -5l115 -145l-5 -5h-10l-10 5l-120 145z" />
    <glyph glyph-name="iacute" unicode="&#xed;" horiz-adv-x="220" 
d="M105 470h10l5 -5v-460l-5 -5h-10l-5 5v460zM200 670h16l4 -5l-120 -145l-10 -5h-10l-5 5l115 145z" />
    <glyph glyph-name="icircumflex" unicode="&#xee;" horiz-adv-x="220" 
d="M105 470h10l5 -5v-460l-5 -5h-10l-5 5v460zM105 670h10l10 -5l100 -145l-5 -5h-10l-10 5l-90 125l-90 -125l-10 -5h-10l-5 5l100 145z" />
    <glyph glyph-name="idieresis" unicode="&#xef;" horiz-adv-x="220" 
d="M105 470h10l5 -5v-460l-5 -5h-10l-5 5v460zM15 630h10l25 -25v-10l-25 -25h-10l-25 25v10zM195 630h10l25 -25v-10l-25 -25h-10l-25 25v10z" />
    <glyph glyph-name="eth" unicode="&#xf0;" horiz-adv-x="620" 
d="M241 700h24.001c34.667 -21.333 69.667 -49.666 105 -84.999l155 55l5 -5v-10l-5 -10l-135 -50c49.333 -50.667 90 -105.5 122 -164.5s48 -115.833 48 -170.5c0 -46.667 -7.83301 -88.334 -23.5 -125.001s-36.167 -65.5 -61.5 -86.5s-52.5 -36.833 -81.5 -47.5
s-58.5 -16 -88.5 -16c-67.333 0 -125 23.5 -173 70.5s-72 103.5 -72 169.5s24 122.5 72 169.5s105.667 70.5 173 70.5c44.667 0 82 -5.16699 112 -15.5s57.667 -26.833 83 -49.5l-15.5 27.5l-15 26.5c-2.33301 4 -6.83301 11.333 -13.5 22s-12.334 19 -17.001 25l-18.5 24
c-7.66699 10 -16 19.667 -25 29l-30.5 31l-170 -55l-5 5v10l5 10l150 50c-38.667 38 -75 68 -109 90zM515.001 360c-33.333 30.667 -65.5 52.501 -96.5 65.501s-68.833 19.5 -113.5 19.5c-61.333 0 -113.833 -21.5 -157.5 -64.5s-65.5 -94.833 -65.5 -155.5
s21.833 -112.5 65.5 -155.5s96.167 -64.5 157.5 -64.5s115.5 22.167 162.5 66.5s70.5 107.166 70.5 188.499c0 36 -7.66699 69.333 -23 100z" />
    <glyph glyph-name="ntilde" unicode="&#xf1;" 
d="M105 470h9.99805l5 -5v-80c22.667 30.667 50.834 55 84.501 73s68.834 27 105.501 27c133.333 0 200 -80 200 -240v-240l-5 -5h-10l-5 5v235c0 76 -14.5 132.5 -43.5 169.5s-74.5 55.5 -136.5 55.5c-37.333 0 -73.333 -10.5 -108 -31.5s-62 -48.833 -82 -83.5v-345l-5 -5
h-10l-5 5v460zM464.998 615l5 -5c-25.333 -46.667 -57 -70 -95 -70c-22.667 0 -49.834 9.16699 -81.501 27.5s-56.167 27.5 -73.5 27.5s-32 -4 -44 -12s-25.667 -22.333 -41 -43l-5 5c25.333 46.667 57 70 95 70c22.667 0 49.834 -9.16699 81.501 -27.5
s56.167 -27.5 73.5 -27.5s32 4 44 12s25.667 22.333 41 43z" />
    <glyph glyph-name="ograve" unicode="&#xf2;" 
d="M300 485c67.333 0 124.166 -24.167 170.499 -72.5s69.5 -107.5 69.5 -177.5s-23.167 -129.167 -69.5 -177.5s-103.166 -72.5 -170.499 -72.5s-124.166 24.167 -170.499 72.5s-69.5 107.5 -69.5 177.5s23.167 129.167 69.5 177.5s103.166 72.5 170.499 72.5zM300 465
c-60.667 0 -112.167 -22.167 -154.5 -66.5s-63.5 -98.833 -63.5 -163.5s21.167 -119.167 63.5 -163.5s93.833 -66.5 154.5 -66.5s112.167 22.167 154.5 66.5s63.5 98.833 63.5 163.5s-21.167 119.167 -63.5 163.5s-93.833 66.5 -154.5 66.5zM184 670h16l10 -5l145 -145
l-5 -5h-10l-10 5l-150 145z" />
    <glyph glyph-name="oacute" unicode="&#xf3;" 
d="M300 485c67.333 0 124.166 -24.167 170.499 -72.5s69.5 -107.5 69.5 -177.5s-23.167 -129.167 -69.5 -177.5s-103.166 -72.5 -170.499 -72.5s-124.166 24.167 -170.499 72.5s-69.5 107.5 -69.5 177.5s23.167 129.167 69.5 177.5s103.166 72.5 170.499 72.5zM300 465
c-60.667 0 -112.167 -22.167 -154.5 -66.5s-63.5 -98.833 -63.5 -163.5s21.167 -119.167 63.5 -163.5s93.833 -66.5 154.5 -66.5s112.167 22.167 154.5 66.5s63.5 98.833 63.5 163.5s-21.167 119.167 -63.5 163.5s-93.833 66.5 -154.5 66.5zM400 670h16l4 -5l-150 -145
l-10 -5h-10l-5 5l145 145z" />
    <glyph glyph-name="ocircumflex" unicode="&#xf4;" 
d="M300 485c67.333 0 124.166 -24.167 170.499 -72.5s69.5 -107.5 69.5 -177.5s-23.167 -129.167 -69.5 -177.5s-103.166 -72.5 -170.499 -72.5s-124.166 24.167 -170.499 72.5s-69.5 107.5 -69.5 177.5s23.167 129.167 69.5 177.5s103.166 72.5 170.499 72.5zM300 465
c-60.667 0 -112.167 -22.167 -154.5 -66.5s-63.5 -98.833 -63.5 -163.5s21.167 -119.167 63.5 -163.5s93.833 -66.5 154.5 -66.5s112.167 22.167 154.5 66.5s63.5 98.833 63.5 163.5s-21.167 119.167 -63.5 163.5s-93.833 66.5 -154.5 66.5zM295 670h10l10 -5l120 -145
l-5 -5h-10l-10 5l-110 135l-110 -135l-10 -5h-10l-5 5l120 145z" />
    <glyph glyph-name="otilde" unicode="&#xf5;" 
d="M300 485c67.333 0 124.166 -24.167 170.499 -72.5s69.5 -107.5 69.5 -177.5s-23.167 -129.167 -69.5 -177.5s-103.166 -72.5 -170.499 -72.5s-124.166 24.167 -170.499 72.5s-69.5 107.5 -69.5 177.5s23.167 129.167 69.5 177.5s103.166 72.5 170.499 72.5zM300 465
c-60.667 0 -112.167 -22.167 -154.5 -66.5s-63.5 -98.833 -63.5 -163.5s21.167 -119.167 63.5 -163.5s93.833 -66.5 154.5 -66.5s112.167 22.167 154.5 66.5s63.5 98.833 63.5 163.5s-21.167 119.167 -63.5 163.5s-93.833 66.5 -154.5 66.5zM465 615l5 -5
c-25.333 -46.667 -57 -70 -95 -70c-22.667 0 -49.834 9.16699 -81.501 27.5s-56.167 27.5 -73.5 27.5s-32 -4 -44 -12s-25.667 -22.333 -41 -43l-5 5c25.333 46.667 57 70 95 70c22.667 0 49.834 -9.16699 81.501 -27.5s56.167 -27.5 73.5 -27.5s32 4 44 12
s25.667 22.333 41 43z" />
    <glyph glyph-name="odieresis" unicode="&#xf6;" 
d="M300 485c67.333 0 124.166 -24.167 170.499 -72.5s69.5 -107.5 69.5 -177.5s-23.167 -129.167 -69.5 -177.5s-103.166 -72.5 -170.499 -72.5s-124.166 24.167 -170.499 72.5s-69.5 107.5 -69.5 177.5s23.167 129.167 69.5 177.5s103.166 72.5 170.499 72.5zM300 465
c-60.667 0 -112.167 -22.167 -154.5 -66.5s-63.5 -98.833 -63.5 -163.5s21.167 -119.167 63.5 -163.5s93.833 -66.5 154.5 -66.5s112.167 22.167 154.5 66.5s63.5 98.833 63.5 163.5s-21.167 119.167 -63.5 163.5s-93.833 66.5 -154.5 66.5zM185 630h10l25 -25v-10l-25 -25
h-10l-25 25v10zM405 630h10l25 -25v-10l-25 -25h-10l-25 25v10z" />
    <glyph glyph-name="divide" unicode="&#xf7;" horiz-adv-x="560" 
d="M275 540h10l20 -20v-10l-20 -20h-10l-20 20v10zM90 375h380l5 -5v-10l-5 -5h-380l-5 5v10zM275 240h10l20 -20v-10l-20 -20h-10l-20 20v10z" />
    <glyph glyph-name="oslash" unicode="&#xf8;" 
d="M540 480h4.99902l10 -10v-5l-71 -69c37.333 -46 56 -99.667 56 -161c0 -70 -23.167 -129.167 -69.5 -177.5s-103.166 -72.5 -170.499 -72.5c-66.667 0 -122.667 23.333 -168 70l-72 -70h-5l-10 10v5l73 70c-38.667 47.333 -58 102.333 -58 165
c0 70 23.167 129.167 69.5 177.5s103.166 72.5 170.499 72.5c66.667 0 123.334 -24.333 170.001 -73zM132.999 85l322 312c-43.333 45.333 -95 68 -155 68c-60.667 0 -112.167 -22.167 -154.5 -66.5s-63.5 -98.833 -63.5 -163.5c0 -57.333 17 -107.333 51 -150zM468.999 381
l-322 -311.001c42 -43.333 93 -65 153 -65c60.667 0 112.167 22.167 154.5 66.5s63.5 98.833 63.5 163.5c0 54.667 -16.333 103.334 -49 146.001z" />
    <glyph glyph-name="ugrave" unicode="&#xf9;" 
d="M95 470h10.002l5 -5v-235c0 -76 14.5 -132.5 43.5 -169.5s74.5 -55.5 136.5 -55.5c37.333 0 73.333 10.5 108 31.5s62 48.833 82 83.5v345l5 5h10l5 -5v-460l-5 -5h-10l-5 5v80c-22.667 -30.667 -50.834 -55 -84.501 -73s-68.834 -27 -105.501 -27
c-133.333 0 -200 80 -200 240v240zM184.002 670h16l10 -5l145 -145l-5 -5h-10l-10 5l-150 145z" />
    <glyph glyph-name="uacute" unicode="&#xfa;" 
d="M95 470h10.002l5 -5v-235c0 -76 14.5 -132.5 43.5 -169.5s74.5 -55.5 136.5 -55.5c37.333 0 73.333 10.5 108 31.5s62 48.833 82 83.5v345l5 5h10l5 -5v-460l-5 -5h-10l-5 5v80c-22.667 -30.667 -50.834 -55 -84.501 -73s-68.834 -27 -105.501 -27
c-133.333 0 -200 80 -200 240v240zM400.002 670h16l4 -5l-150 -145l-10 -5h-10l-5 5l145 145z" />
    <glyph glyph-name="ucircumflex" unicode="&#xfb;" 
d="M95 470h10.002l5 -5v-235c0 -76 14.5 -132.5 43.5 -169.5s74.5 -55.5 136.5 -55.5c37.333 0 73.333 10.5 108 31.5s62 48.833 82 83.5v345l5 5h10l5 -5v-460l-5 -5h-10l-5 5v80c-22.667 -30.667 -50.834 -55 -84.501 -73s-68.834 -27 -105.501 -27
c-133.333 0 -200 80 -200 240v240zM295.002 670h10l10 -5l120 -145l-5 -5h-10l-10 5l-110 135l-110 -135l-10 -5h-10l-5 5l120 145z" />
    <glyph glyph-name="udieresis" unicode="&#xfc;" 
d="M95 470h10.002l5 -5v-235c0 -76 14.5 -132.5 43.5 -169.5s74.5 -55.5 136.5 -55.5c37.333 0 73.333 10.5 108 31.5s62 48.833 82 83.5v345l5 5h10l5 -5v-460l-5 -5h-10l-5 5v80c-22.667 -30.667 -50.834 -55 -84.501 -73s-68.834 -27 -105.501 -27
c-133.333 0 -200 80 -200 240v240zM185.002 630h10l25 -25v-10l-25 -25h-10l-25 25v10zM405.002 630h10l25 -25v-10l-25 -25h-10l-25 25v10z" />
    <glyph glyph-name="yacute" unicode="&#xfd;" horiz-adv-x="500" 
d="M35 470h9.99902l10 -5l200 -385l190 385l10 5h10l5 -5l-290 -585c-22 -42 -43.5 -72.5 -64.5 -91.5s-47.833 -28.5 -80.5 -28.5l-5 7v8l5 5c25.333 0 46.833 8.5 64.5 25.5s37.834 45.167 60.501 84.5l80 165l-210 410zM354.999 670h16l4 -5l-150 -145l-10 -5h-10l-5 5
l145 145z" />
    <glyph glyph-name="thorn" unicode="&#xfe;" horiz-adv-x="620" 
d="M100 695l5 5h10l5 -5v-310c50 66.667 116.667 100 200 100c67.333 0 124.166 -24.167 170.499 -72.5s69.5 -107.5 69.5 -177.5s-23.167 -129.167 -69.5 -177.5s-103.166 -72.5 -170.499 -72.5c-83.333 0 -150 33.333 -200 100v-310l-5 -5h-10l-5 5v920zM120 350v-230
c20 -35.333 47.833 -63.333 83.5 -84s74.5 -31 116.5 -31c60.667 0 112.167 22.167 154.5 66.5s63.5 98.833 63.5 163.5s-21.167 119.167 -63.5 163.5s-93.833 66.5 -154.5 66.5c-42 0 -80.833 -10.333 -116.5 -31s-63.5 -48.667 -83.5 -84z" />
    <glyph glyph-name="ydieresis" unicode="&#xff;" horiz-adv-x="500" 
d="M35 470h9.99902l10 -5l200 -385l190 385l10 5h10l5 -5l-290 -585c-22 -42 -43.5 -72.5 -64.5 -91.5s-47.833 -28.5 -80.5 -28.5l-5 7v8l5 5c25.333 0 46.833 8.5 64.5 25.5s37.834 45.167 60.501 84.5l80 165l-210 410zM139.999 630h10l25 -25v-10l-25 -25h-10l-25 25v10
zM359.999 630h10l25 -25v-10l-25 -25h-10l-25 25v10z" />
    <glyph glyph-name="dotlessi" unicode="&#x131;" horiz-adv-x="220" 
d="M105 470h10l5 -5v-460l-5 -5h-10l-5 5v460z" />
    <glyph glyph-name="Lslash" unicode="&#x141;" horiz-adv-x="500" 
d="M104 700h12l4 -4v-377l215 121l5 -5v-10l-5 -10l-215 -121v-274h326l4 -5v-11l-4 -4h-342l-4 4v283l-75 -41l-5 5v10l5 10l75 41v384z" />
    <glyph glyph-name="lslash" unicode="&#x142;" horiz-adv-x="300" 
d="M95 700h10.001l5 -5v-301l70 41l5 -5v-10l-5 -10l-70 -41v-234c0 -86.667 26.667 -130 80 -130c26 0 51 10 75 30l5 -5v-15c-26.667 -20 -53.334 -30 -80.001 -30c-66.667 0 -100 48.333 -100 145v232l-65 -36l-5 5v10l5 10l65 36v308z" />
    <glyph glyph-name="OE" unicode="&#x152;" horiz-adv-x="1120" 
d="M985 700l4.99805 -4.99805v-10l-5 -5h-387c56 -24.667 102.667 -62.667 140 -114s60.333 -108.333 69 -171h98l5 -5v-10l-5 -5h-95c2.66699 -78.667 -13.666 -148.334 -48.999 -209.001s-89.666 -109.334 -162.999 -146.001h417l5 -5v-10l-5 -5h-470
c-30 -10 -65 -15 -105 -15c-102 0 -189.167 35.667 -261.5 107s-108.5 157.333 -108.5 258s36.167 186.667 108.5 258s159.5 107 261.5 107c40 0 75 -5 105 -15h440zM439.998 695.002c-95.333 0 -177.166 -33.833 -245.499 -101.5s-102.5 -148.834 -102.5 -243.501
s34.167 -175.834 102.5 -243.501s150.166 -101.5 245.499 -101.5s177.166 33.833 245.499 101.5s102.5 148.834 102.5 243.501s-34.167 175.834 -102.5 243.501s-150.166 101.5 -245.499 101.5z" />
    <glyph glyph-name="oe" unicode="&#x153;" horiz-adv-x="1010" 
d="M940 65l-0.00390625 -15.001c-16.667 -16.667 -41 -31.667 -73 -45s-64.333 -20 -97 -20c-56 0 -106.167 17.167 -150.5 51.5s-74.166 77.166 -89.499 128.499c-15.333 -53.333 -43.666 -96.666 -84.999 -129.999s-89.666 -50 -144.999 -50
c-67.333 0 -124.166 24.167 -170.499 72.5s-69.5 107.5 -69.5 177.5s23.167 129.167 69.5 177.5s103.166 72.5 170.499 72.5c54 0 102 -16.333 144 -49s70.667 -74.667 86 -126c12.667 52 38.5 94.167 77.5 126.5s86.5 48.5 142.5 48.5c45.333 0 83.833 -12 115.5 -36
s53.667 -51.667 66 -83s18.5 -63.333 18.5 -96c0 -9.33301 -1.66699 -17.666 -5 -24.999l-10 -5h-393c0 -64.667 22.333 -120 67 -166s98.334 -69 161.001 -69c61.333 0 116.333 21.667 165 65zM299.996 464.999c-60.667 0 -112.167 -22.167 -154.5 -66.5
s-63.5 -98.833 -63.5 -163.5s21.167 -119.167 63.5 -163.5s93.833 -66.5 154.5 -66.5s112.167 22.167 154.5 66.5s63.5 98.833 63.5 163.5s-21.167 119.167 -63.5 163.5s-93.833 66.5 -154.5 66.5zM541.996 259.999h388c-2.66699 61.333 -19.834 110.833 -51.501 148.5
s-74.5 56.5 -128.5 56.5c-60.667 0 -109.167 -19.167 -145.5 -57.5s-57.166 -87.5 -62.499 -147.5z" />
    <glyph glyph-name="Scaron" unicode="&#x160;" horiz-adv-x="550" 
d="M420 605h-10.001c-38 60 -89.667 90 -155 90c-39.333 0 -73 -13.667 -101 -41s-42 -60.333 -42 -99c0 -30 12.333 -57 37 -81s54.5 -44.667 89.5 -62l105 -53.5c35 -18.333 64.833 -41.833 89.5 -70.5s37 -61.334 37 -98.001c0 -56.667 -20 -105 -60 -145
s-88.333 -60 -145 -60c-49.333 0 -92.166 12.833 -128.499 38.5s-63.5 61.167 -81.5 106.5l10 5h10c14.667 -41.333 39.5 -73.333 74.5 -96s73.5 -34 115.5 -34c50.667 0 93.834 18 129.501 54s53.5 79.667 53.5 131c0 32.667 -12.333 62 -37 88s-54.5 48 -89.5 66
l-105 53.5c-35 17.667 -64.833 39.834 -89.5 66.501s-37 57 -37 91c0 44 16.167 81.667 48.5 113s71.166 47 116.499 47c38 0 72 -9.5 102 -28.5s54.333 -44.5 73 -76.5zM124.999 875h10l10 -5l110 -115l110 115l10 5h10l5 -5l-120 -125l-10 -5h-10l-10 7l-120 123z" />
    <glyph glyph-name="scaron" unicode="&#x161;" horiz-adv-x="460" 
d="M380 428l-5.00195 -5.00391c-44 28 -94 42 -150 42c-37.333 0 -68.833 -10 -94.5 -30s-38.5 -45 -38.5 -75c0 -24.667 10.5 -44.667 31.5 -60s46.667 -27.166 77 -35.499l91 -26c30.333 -9 56 -22.833 77 -41.5s31.5 -42.667 31.5 -72
c0 -39.333 -17.167 -72.5 -51.5 -99.5s-75.5 -40.5 -123.5 -40.5c-62 0 -115.333 13.333 -160 40v17l5 5c41.333 -28 93 -42 155 -42c42.667 0 78.834 11.333 108.501 34s44.5 51.334 44.5 86.001c0 24.667 -10.5 44.834 -31.5 60.501s-46.667 27.834 -77 36.501l-91 26.5
c-30.333 9 -56 22.667 -77 41s-31.5 41.833 -31.5 70.5c0 34.667 15.167 64.167 45.5 88.5s66.833 36.5 109.5 36.5c60.667 0 112.334 -13.333 155.001 -40v-17zM99.998 669.996h10l10 -5l110 -135l110 135l10 5h10l5 -5l-120 -145l-10 -5h-10l-10 5l-120 145z" />
    <glyph glyph-name="Ydieresis" unicode="&#x178;" 
d="M35 700h10l10 -5l245 -310l246 310l9 5h10l5 -5l-260 -330v-360l-5 -5h-10l-5 5v360l-260 330zM180 840h10l30 -30v-10l-30 -30h-10l-30 30v10zM410 840h10l30 -30v-10l-30 -30h-10l-30 30v10z" />
    <glyph glyph-name="Zcaron" unicode="&#x17d;" 
d="M65 700h485l5 -5l-490 -675h490l5 -6v-9l-5 -5h-520l-5 5l490 675h-455l-5 5v10zM170 875h10l10 -5l110 -115l110 115l10 5h10l5 -5l-120 -125l-10 -5h-10l-10 7l-120 123z" />
    <glyph glyph-name="zcaron" unicode="&#x17e;" horiz-adv-x="450" 
d="M65 470h340l5 -5l-335 -445h330l5 -5v-10l-5 -5h-360l-5 5l335 445h-311l-4 5v10zM100 670h10l10 -5l110 -135l110 135l10 5h10l5 -5l-120 -145l-10 -5h-10l-10 5l-120 145z" />
    <glyph glyph-name="florin" unicode="&#x192;" horiz-adv-x="380" 
d="M45 470h74.999v70c0 51.333 13.167 93.333 39.5 126s61.5 49 105.5 49c23.333 0 48.333 -6.66699 75 -20v-15l-5 -5c-26.667 13.333 -50 20 -70 20c-39.333 0 -70 -14.5 -92 -43.5s-33 -67.833 -33 -116.5v-65h195l5 -5v-10l-5 -5h-195v-560
c0 -103.333 -35 -155 -105 -155c-23.333 0 -41.666 3.33301 -54.999 10v15l5 5c13.333 -6.66699 30 -10 50 -10c56.667 0 85 46.667 85 140v555h-75l-5 5v11z" />
    <glyph glyph-name="uni02B0" unicode="&#x2b0;" horiz-adv-x="430" 
d="M85 700h10.001l5 -5v-175c33.333 33.333 76.333 50 129 50c42.667 0 75.167 -12.833 97.5 -38.5s33.5 -62.167 33.5 -109.5v-137l-5 -5h-10l-5 5v134c0 44 -9.83301 76.833 -29.5 98.5s-46.834 32.5 -81.501 32.5c-57.333 0 -100.333 -20 -129 -60v-205l-5 -5h-10l-5 5
v410z" />
    <glyph glyph-name="uni02B1" unicode="&#x2b1;" horiz-adv-x="430" 
d="M240 690l-4.99805 -5c-13.333 6.66699 -30 10 -50 10c-56.667 0 -85 -46.667 -85 -140v-35c33.333 33.333 76.333 50 129 50c42.667 0 75.167 -12.833 97.5 -38.5s33.5 -62.167 33.5 -109.5v-137l-5 -5h-10l-5 5v134c0 44 -9.83301 76.833 -29.5 98.5
s-46.834 32.5 -81.501 32.5c-57.333 0 -100.333 -20 -129 -60v-205l-5 -5h-10l-5 5v275c0 103.333 35 155 105 155c23.333 0 41.666 -3.33301 54.999 -10v-15z" />
    <glyph glyph-name="uni02B2" unicode="&#x2b2;" horiz-adv-x="220" 
d="M125 560h10.001l5 -5v-350c0 -60 -21.667 -90 -65 -90c-16.667 0 -31.667 3.33301 -45 10v15l5 5c13.333 -6.66699 26.666 -10 39.999 -10c30 0 45 25 45 75v345zM125.001 695h10l20 -20v-10l-20 -20h-10l-20 20v10z" />
    <glyph glyph-name="uni02B3" unicode="&#x2b3;" horiz-adv-x="340" 
d="M85 560l9.99902 -0.000976562l5 -5v-35c38 33.333 78.333 50 121 50c22.667 0 42.334 -3.33301 59.001 -10v-18l-5 -3c-14.667 7.33301 -32.667 11 -54 11c-22 0 -44 -5.16699 -66 -15.5s-40.333 -25.166 -55 -44.499v-205l-5 -5h-10l-5 5v270z" />
    <glyph glyph-name="uni02B4" unicode="&#x2b4;" horiz-adv-x="340" 
d="M255 280l-9.99902 0.000976562l-5 5v35c-38 -33.333 -78.333 -50 -121 -50c-22.667 0 -42.334 3.33301 -59.001 10v18l5 3c14.667 -7.33301 32.667 -11 54 -11c22 0 44 5.16699 66 15.5s40.333 25.166 55 44.499v205l5 5h10l5 -5v-270z" />
    <glyph glyph-name="uni02B5" unicode="&#x2b5;" horiz-adv-x="360" 
d="M225 560l10.002 0.000976562l5 -5v-345c0 -50 15 -75 45 -75c13.333 0 26.666 3.33301 39.999 10l5 -5v-15c-13.333 -6.66699 -28.333 -10 -45 -10c-43.333 0 -65 30 -65 90v115c-38 -33.333 -78.333 -50 -121 -50c-22.667 0 -42.334 3.33301 -59.001 10v18l5 3
c14.667 -7.33301 32.667 -11 54 -11c22 0 44 5.16699 66 15.5s40.333 25.166 55 44.499v205z" />
    <glyph glyph-name="uni02B6" unicode="&#x2b6;" horiz-adv-x="340" 
d="M85 560h10.001l5 -5v-105h112l73 105l8 5h13l4 -5l-75 -110c36.667 -12 55 -38.667 55 -80c0 -27.333 -9.33301 -48.333 -28 -63s-44.334 -22 -77.001 -22h-100l-5 5v270zM100.001 430v-130h85c55.333 0 83 21.667 83 65s-27.667 65 -83 65h-85z" />
    <glyph glyph-name="uni02B7" unicode="&#x2b7;" horiz-adv-x="500" 
d="M35 560h10l5 -5l100 -255l90 245l6 5h9l5 -5l90 -245l100 255l5 5h10l5 -5l-105 -270l-5 -5h-20l-5 5l-85 230l-85 -230l-5 -5h-20l-5 5l-105 270z" />
    <glyph glyph-name="uni02B8" unicode="&#x2b8;" horiz-adv-x="340" 
d="M35 560h7l10 -5l123 -220l113 220l10 5h7l5 -5l-180 -350c-26 -46.667 -56 -70 -90 -70l-5 5v10l5 5c25.333 0 50.333 20 75 60l50 100l-135 240z" />
    <glyph glyph-name="uni02B9" unicode="&#x2b9;" horiz-adv-x="300" 
d="M190 700h15l5 -5l-50 -230l-5 -5h-10l-5 5l45 230z" />
    <glyph glyph-name="uni02BA" unicode="&#x2ba;" horiz-adv-x="480" 
d="M190 700h15l5 -5l-50 -230l-5 -5h-10l-5 5l45 230zM370 700h15l5 -5l-50 -230l-5 -5h-10l-5 5l45 230z" />
    <glyph glyph-name="uni02BE" unicode="&#x2be;" 
d="M250 690l5 4.99805c28 -2.66699 50.833 -12.667 68.5 -30s26.5 -39 26.5 -65s-8.83301 -47.667 -26.5 -65s-40.5 -27.333 -68.5 -30l-5 5v10l5 5c22.667 2.66699 40.5 10.834 53.5 24.501s19.5 30.5 19.5 50.5s-6.5 36.833 -19.5 50.5s-30.833 21.834 -53.5 24.501l-5 5
v10z" />
    <glyph glyph-name="uni02BF" unicode="&#x2bf;" 
d="M350 690v-9.99805l-5 -5c-22.667 -2.66699 -40.5 -10.834 -53.5 -24.501s-19.5 -30.5 -19.5 -50.5s6.5 -36.833 19.5 -50.5s30.833 -21.834 53.5 -24.501l5 -5v-10l-5 -5c-28 2.66699 -50.833 12.667 -68.5 30s-26.5 39 -26.5 65s8.83301 47.667 26.5 65
s40.5 27.333 68.5 30z" />
    <glyph glyph-name="uni02C0" unicode="&#x2c0;" horiz-adv-x="360" 
d="M65 630l-15 9.99902c33.333 50 75 75 125 75c35.333 0 65 -11.667 89 -35s36 -51.666 36 -84.999c0 -22 -6 -44.333 -18 -67s-25.167 -42 -39.5 -58s-27.5 -35.333 -39.5 -58s-18 -45 -18 -67v-60l-5 -5h-10l-5 5v60c0 24.667 5.83301 49 17.5 73s24.667 44 39 60
s27.333 34.5 39 55.5s17.5 41.5 17.5 61.5c0 28 -9.83301 51.667 -29.5 71s-44.167 29 -73.5 29c-42.667 0 -77.667 -21.667 -105 -65h-5z" />
    <glyph glyph-name="uni02C1" unicode="&#x2c1;" horiz-adv-x="360" 
d="M295 630l-5 0.000976562c-27.333 43.333 -62.333 65 -105 65c-29.333 0 -53.833 -9.66699 -73.5 -29s-29.5 -43 -29.5 -71c0 -20 5.83301 -40.5 17.5 -61.5s24.667 -39.5 39 -55.5s27.333 -36 39 -60s17.5 -48.333 17.5 -73v-60l-5 -5h-10l-5 5v60c0 22 -6 44.333 -18 67
s-25.167 42 -39.5 58s-27.5 35.333 -39.5 58s-18 45 -18 67c0 33.333 12 61.666 36 84.999s53.667 35 89 35c50 0 91.667 -25 125 -75z" />
    <glyph glyph-name="uni02C4" unicode="&#x2c4;" 
d="M295 680h10l10 -5l90 -165l-5 -5h-10l-10 5l-80 150l-80 -150l-10 -5h-10l-5 5l90 165z" />
    <glyph glyph-name="uni02C5" unicode="&#x2c5;" 
d="M200 680h10l10 -5l80 -150l80 150l10 5h10l5 -5l-90 -165l-10 -5h-10l-10 5l-90 165z" />
    <glyph glyph-name="circumflex" unicode="&#x2c6;" 
d="M295 670h10l10 -5l120 -145l-5 -5h-10l-10 5l-110 135l-110 -135l-10 -5h-10l-5 5l120 145z" />
    <glyph glyph-name="caron" unicode="&#x2c7;" 
d="M170 670h10l10 -5l110 -135l110 135l10 5h10l5 -5l-120 -145l-10 -5h-10l-10 5l-120 145z" />
    <glyph glyph-name="uni02C8" unicode="&#x2c8;" 
d="M295 670h10l5 -5v-145l-5 -5h-10l-5 5v145z" />
    <glyph glyph-name="uni02C9" unicode="&#x2c9;" 
d="M145 590h310l5 -5v-10l-5 -5h-310l-5 5v10z" />
    <glyph glyph-name="uni02CA" unicode="&#x2ca;" 
d="M400 670h16l4 -5l-150 -145l-10 -5h-10l-5 5l145 145z" />
    <glyph glyph-name="uni02CB" unicode="&#x2cb;" 
d="M184 670h16l10 -5l145 -145l-5 -5h-10l-10 5l-150 145z" />
    <glyph glyph-name="uni02CC" unicode="&#x2cc;" 
d="M295 -40h10l5 -5v-145l-5 -5h-10l-5 5v145z" />
    <glyph glyph-name="uni02CD" unicode="&#x2cd;" 
d="M145 -100h310l5 -5v-10l-5 -5h-310l-5 5v10z" />
    <glyph glyph-name="uni02CE" unicode="&#x2ce;" 
d="M184 -40h16l10 -5l145 -145l-5 -5h-10l-10 5l-150 145z" />
    <glyph glyph-name="uni02CF" unicode="&#x2cf;" 
d="M400 -40h16l4 -5l-150 -145l-10 -5h-10l-5 5l145 145z" />
    <glyph glyph-name="uni02D0" unicode="&#x2d0;" horiz-adv-x="340" 
d="M55 470h230l5 -5v-10l-5 -15l-100 -165l-5 -5h-20l-5 5l-100 165l-5 15v10zM160 200h20l5 -5l100 -165l5 -15v-10l-5 -5h-230l-5 5v10l5 15l100 165z" />
    <glyph glyph-name="uni02D1" unicode="&#x2d1;" horiz-adv-x="340" 
d="M55 470h230l5 -5v-10l-5 -15l-100 -165l-5 -5h-20l-5 5l-100 165l-5 15v10z" />
    <glyph glyph-name="uni02D2" unicode="&#x2d2;" 
d="M250 325l5 4.99805c28 -2.66699 50.833 -12.667 68.5 -30s26.5 -39 26.5 -65s-8.83301 -47.667 -26.5 -65s-40.5 -27.333 -68.5 -30l-5 5v10l5 5c22.667 2.66699 40.5 10.834 53.5 24.501s19.5 30.5 19.5 50.5s-6.5 36.833 -19.5 50.5s-30.833 21.834 -53.5 24.501l-5 5
v10z" />
    <glyph glyph-name="uni02D3" unicode="&#x2d3;" 
d="M350 325v-9.99805l-5 -5c-22.667 -2.66699 -40.5 -10.834 -53.5 -24.501s-19.5 -30.5 -19.5 -50.5s6.5 -36.833 19.5 -50.5s30.833 -21.834 53.5 -24.501l5 -5v-10l-5 -5c-28 2.66699 -50.833 12.667 -68.5 30s-26.5 39 -26.5 65s8.83301 47.667 26.5 65
s40.5 27.333 68.5 30z" />
    <glyph glyph-name="uni02D4" unicode="&#x2d4;" 
d="M295 -40h10l5 -5v-130h115l5 -5v-10l-5 -5h-250l-5 5v10l5 5h115v130z" />
    <glyph glyph-name="uni02D5" unicode="&#x2d5;" 
d="M175 -80h250l5 -5v-10l-5 -5h-115v-130l-5 -5h-10l-5 5v130h-115l-5 5v10z" />
    <glyph glyph-name="uni02D6" unicode="&#x2d6;" 
d="M295 -60h10l5 -5v-80h95l5 -5v-10l-5 -5h-95v-85l-5 -5h-10l-5 5v85h-95l-5 5v10l5 5h95v80z" />
    <glyph glyph-name="uni02D7" unicode="&#x2d7;" 
d="M175 -140h250l5 -5v-10l-5 -5h-250l-5 5v10z" />
    <glyph glyph-name="breve" unicode="&#x2d8;" 
d="M155 670h10l5 -5c4.66699 -39.333 18.667 -70 42 -92s52.666 -33 87.999 -33s64.666 11 87.999 33s37.333 52.667 42 92l5 5h10l5 -5c-5.33301 -45.333 -21.166 -80.833 -47.499 -106.5s-60.5 -38.5 -102.5 -38.5s-76.167 12.833 -102.5 38.5
s-42.166 61.167 -47.499 106.5z" />
    <glyph glyph-name="dotaccent" unicode="&#x2d9;" horiz-adv-x="620" 
d="M295 630h10l25 -25v-10l-25 -25h-10l-25 25v10z" />
    <glyph glyph-name="ring" unicode="&#x2da;" 
d="M300 695c27.333 0 50.833 -9.33301 70.5 -28s29.5 -41 29.5 -67s-9.83301 -48.333 -29.5 -67s-43.167 -28 -70.5 -28s-50.833 9.33301 -70.5 28s-29.5 41 -29.5 67s9.83301 48.333 29.5 67s43.167 28 70.5 28zM300 675c-22 0 -40.5 -7.33301 -55.5 -22
s-22.5 -32.334 -22.5 -53.001s7.5 -38.334 22.5 -53.001s33.5 -22 55.5 -22s40.5 7.33301 55.5 22s22.5 32.334 22.5 53.001s-7.5 38.334 -22.5 53.001s-33.5 22 -55.5 22z" />
    <glyph glyph-name="ogonek" unicode="&#x2db;" 
d="M500 95l0.000976562 -25.002c-60.667 -42 -101.334 -78.333 -122.001 -109s-31 -62.667 -31 -96c0 -25.333 8.5 -46.666 25.5 -63.999s37.833 -26 62.5 -26c26.667 0 46.667 6.66699 60 20l5 -5v-15c-18 -13.333 -39.667 -20 -65 -20c-30.667 0 -56.667 10.667 -78 32
s-32 47.333 -32 78c0 39.333 11.667 74.833 35 106.5s70 72.834 140 123.501z" />
    <glyph glyph-name="tilde" unicode="&#x2dc;" 
d="M465 615l5 -5c-25.333 -46.667 -57 -70 -95 -70c-22.667 0 -49.834 9.16699 -81.501 27.5s-56.167 27.5 -73.5 27.5s-32 -4 -44 -12s-25.667 -22.333 -41 -43l-5 5c25.333 46.667 57 70 95 70c22.667 0 49.834 -9.16699 81.501 -27.5s56.167 -27.5 73.5 -27.5s32 4 44 12
s25.667 22.333 41 43z" />
    <glyph glyph-name="hungarumlaut" unicode="&#x2dd;" 
d="M285 670h15l5 -5l-95 -145l-10 -5h-10l-5 5l90 145zM475 670h15l5 -5l-95 -145l-10 -5h-10l-5 5l90 145z" />
    <glyph glyph-name="uni02DE" unicode="&#x2de;" horiz-adv-x="620" 
d="M495 365l5 5.00195l95 25l5 -5c0 -22 6.33301 -39.667 19 -53s28 -20 46 -20s33.333 6.66699 46 20s19 31 19 53c0 29.333 -11.667 52.666 -35 69.999v5l15 10c26.667 -20 40 -48.333 40 -85c0 -26.667 -8.5 -49.167 -25.5 -67.5s-36.833 -27.5 -59.5 -27.5
c-22 0 -40.333 6.66699 -55 20s-24.667 31.666 -30 54.999l-75 -20h-5z" />
    <glyph glyph-name="uni02DF" unicode="&#x2df;" 
d="M225 670h5l70 -55l71 55h5l9 -10v-5l-70 -50l70 -50v-5l-9 -10h-5l-71 54l-70 -54h-5l-10 10v5l70 50l-70 50v5z" />
    <glyph glyph-name="uni02E0" unicode="&#x2e0;" horiz-adv-x="340" 
d="M35 560h11.9941l5 -5l118 -245l118 245l5 5h12l5 -5l-125 -265l10 -20l10 -20l8 -16.5c3.33301 -7 5.83301 -12.5 7.5 -16.5s3.33398 -8.83301 5.00098 -14.5s2.83398 -10.667 3.50098 -15s1 -8.5 1 -12.5c0 -16.667 -5.66699 -30.834 -17 -42.501
s-25.666 -17.5 -42.999 -17.5s-31.666 5.83301 -42.999 17.5s-17 25.834 -17 42.501c0 4 0.333008 8.16699 1 12.5s1.83398 9.33301 3.50098 15s3.33398 10.5 5.00098 14.5s4.16699 9.5 7.5 16.5l8 16.5l10 20l10 20l-125 265zM169.994 270c-16 -30 -26.333 -50.333 -31 -61
s-7 -22 -7 -34c0 -11.333 3.5 -20.833 10.5 -28.5s16.167 -11.5 27.5 -11.5s20.5 3.83301 27.5 11.5s10.5 17.167 10.5 28.5c0 12 -2.33301 23.333 -7 34s-15 31 -31 61z" />
    <glyph glyph-name="uni02E1" unicode="&#x2e1;" horiz-adv-x="240" 
d="M105 700h10.001l5 -5v-345c0 -50 15 -75 45 -75c13.333 0 26.666 3.33301 39.999 10l5 -5v-15c-13.333 -6.66699 -28.333 -10 -45 -10c-43.333 0 -65 30 -65 90v350z" />
    <glyph glyph-name="uni02E2" unicode="&#x2e2;" horiz-adv-x="300" 
d="M240 533l-4.99902 -4.99707c-26.667 14.667 -56.667 22 -90 22c-20 0 -36.333 -4.83301 -49 -14.5s-19 -21.5 -19 -35.5c0 -16.667 9.5 -30.167 28.5 -40.5s40 -17.833 63 -22.5s44 -13.834 63 -27.501s28.5 -31.834 28.5 -54.501c0 -23.333 -11.333 -43.333 -34 -60
s-49.667 -25 -81 -25c-32 0 -63.667 6.66699 -95 20v17l5 5c30 -14.667 60 -22 90 -22c25.333 0 47.166 6.33301 65.499 19s27.5 28 27.5 46c0 16.667 -9.5 30.334 -28.5 41.001s-40 18.667 -63 24s-44 14.666 -63 27.999s-28.5 30.666 -28.5 51.999
c0 20 8.5 36.667 25.5 50s38.5 20 64.5 20c32 0 63.667 -6.66699 95 -20v-17z" />
    <glyph glyph-name="uni02E3" unicode="&#x2e3;" horiz-adv-x="280" 
d="M40 560h10l5 -5l85 -117l85 117l5 5h10l5 -5l-95 -130l100 -135l-5 -5h-10l-5 5l-90 122l-90 -122l-5 -5h-10l-5 5l100 135l-95 130z" />
    <glyph glyph-name="uni02E4" unicode="&#x2e4;" horiz-adv-x="360" 
d="M295 630l-5 0.000976562c-27.333 43.333 -62.333 65 -105 65c-29.333 0 -53.833 -9.66699 -73.5 -29s-29.5 -43 -29.5 -71c0 -20 5.83301 -40.5 17.5 -61.5s24.667 -39.5 39 -55.5s27.333 -36 39 -60s17.5 -48.333 17.5 -73v-60l-5 -5h-10l-5 5v60c0 22 -6 44.333 -18 67
s-25.167 42 -39.5 58s-27.5 35.333 -39.5 58s-18 45 -18 67c0 33.333 12 61.666 36 84.999s53.667 35 89 35c50 0 91.667 -25 125 -75z" />
    <glyph glyph-name="uni02E5" unicode="&#x2e5;" horiz-adv-x="300" 
d="M65 720h130l5 -5v-710l-5 -5h-10l-5 5v695h-115l-5 5v10z" />
    <glyph glyph-name="uni02E6" unicode="&#x2e6;" horiz-adv-x="300" 
d="M185 700h10l5 -5v-690l-5 -5h-10l-5 5v510h-115l-5 5v10l5 5h115v160z" />
    <glyph glyph-name="uni02E7" unicode="&#x2e7;" horiz-adv-x="300" 
d="M185 700h10l5 -5v-690l-5 -5h-10l-5 5v335h-115l-5 5v10l5 5h115v335z" />
    <glyph glyph-name="uni02E8" unicode="&#x2e8;" horiz-adv-x="300" 
d="M185 700h10l5 -5v-690l-5 -5h-10l-5 5v160h-115l-5 5v10l5 5h115v510z" />
    <glyph glyph-name="uni02E9" unicode="&#x2e9;" horiz-adv-x="300" 
d="M185 700h10l5 -5v-690l-5 -5h-130l-5 5v10l5 5h115v675z" />
    <glyph glyph-name="uni02EF" unicode="&#x2ef;" 
d="M200 -30h10l10 -5l80 -150l80 150l10 5h10l5 -5l-90 -165l-10 -5h-10l-10 5l-90 165z" />
    <glyph glyph-name="uni02F0" unicode="&#x2f0;" 
d="M295 -30h10l10 -5l90 -165l-5 -5h-10l-10 5l-80 150l-80 -150l-10 -5h-10l-5 5l90 165z" />
    <glyph glyph-name="uni02F3" unicode="&#x2f3;" 
d="M300 -15c27.333 0 50.833 -9.33301 70.5 -28s29.5 -41 29.5 -67s-9.83301 -48.333 -29.5 -67s-43.167 -28 -70.5 -28s-50.833 9.33301 -70.5 28s-29.5 41 -29.5 67s9.83301 48.333 29.5 67s43.167 28 70.5 28zM300 -35c-22 0 -40.5 -7.33301 -55.5 -22
s-22.5 -32.334 -22.5 -53.001s7.5 -38.334 22.5 -53.001s33.5 -22 55.5 -22s40.5 7.33301 55.5 22s22.5 32.334 22.5 53.001s-7.5 38.334 -22.5 53.001s-33.5 22 -55.5 22z" />
    <glyph glyph-name="uni02F4" unicode="&#x2f4;" 
d="M184 310h16l10 -5l145 -145l-5 -5h-10l-10 5l-150 145z" />
    <glyph glyph-name="uni02F6" unicode="&#x2f6;" 
d="M285 310h15l5 -5l-95 -145l-10 -5h-10l-5 5l90 145zM475 310h15l5 -5l-95 -145l-10 -5h-10l-5 5l90 145z" />
    <glyph glyph-name="uni02F7" unicode="&#x2f7;" 
d="M465 -95l5 -5c-25.333 -46.667 -57 -70 -95 -70c-22.667 0 -49.834 9.16699 -81.501 27.5s-56.167 27.5 -73.5 27.5s-32 -4 -44 -12s-25.667 -22.333 -41 -43l-5 5c25.333 46.667 57 70 95 70c22.667 0 49.834 -9.16699 81.501 -27.5s56.167 -27.5 73.5 -27.5s32 4 44 12
s25.667 22.333 41 43z" />
    <glyph glyph-name="uni0300" unicode="&#x300;" horiz-adv-x="0" 
d="M-416 670h16l10 -5l145 -145l-5 -5h-10l-10 5l-150 145z" />
    <glyph glyph-name="uni0301" unicode="&#x301;" horiz-adv-x="0" 
d="M-200 670h16l4 -5l-150 -145l-10 -5h-10l-5 5l145 145z" />
    <glyph glyph-name="uni0302" unicode="&#x302;" horiz-adv-x="0" 
d="M-305 670h10l10 -5l120 -145l-5 -5h-10l-10 5l-110 135l-110 -135l-10 -5h-10l-5 5l120 145z" />
    <glyph glyph-name="uni0303" unicode="&#x303;" horiz-adv-x="0" 
d="M-135 615l5 -5c-25.333 -46.667 -57 -70 -95 -70c-22.667 0 -49.834 9.16699 -81.501 27.5s-56.167 27.5 -73.5 27.5s-32 -4 -44 -12s-25.667 -22.333 -41 -43l-5 5c25.333 46.667 57 70 95 70c22.667 0 49.834 -9.16699 81.501 -27.5s56.167 -27.5 73.5 -27.5
s32 4 44 12s25.667 22.333 41 43z" />
    <glyph glyph-name="uni0304" unicode="&#x304;" horiz-adv-x="0" 
d="M-455 610h310l5 -5v-10l-5 -5h-310l-5 5v10z" />
    <glyph glyph-name="uni0305" unicode="&#x305;" horiz-adv-x="0" 
d="M-455 610h310l5 -5v-10l-5 -5h-310l-5 5v10z" />
    <glyph glyph-name="uni0306" unicode="&#x306;" horiz-adv-x="0" 
d="M-445 670h10l5 -5c4.66699 -39.333 18.667 -70 42 -92s52.666 -33 87.999 -33s64.666 11 87.999 33s37.333 52.667 42 92l5 5h10l5 -5c-5.33301 -45.333 -21.166 -80.833 -47.499 -106.5s-60.5 -38.5 -102.5 -38.5s-76.167 12.833 -102.5 38.5
s-42.166 61.167 -47.499 106.5z" />
    <glyph glyph-name="uni0307" unicode="&#x307;" horiz-adv-x="0" 
d="M-305 630h10l25 -25v-10l-25 -25h-10l-25 25v10z" />
    <glyph glyph-name="uni0308" unicode="&#x308;" horiz-adv-x="0" 
d="M-415 630h10l25 -25v-10l-25 -25h-10l-25 25v10zM-195 630h10l25 -25v-10l-25 -25h-10l-25 25v10z" />
    <glyph glyph-name="uni0309" unicode="&#x309;" horiz-adv-x="0" 
d="M-375 640l-10 15.001c20 26.667 48.333 40 85 40c22.667 0 42.5 -7.5 59.5 -22.5s25.5 -32.833 25.5 -53.5c0 -13.333 -3.83301 -25.333 -11.5 -36s-16.334 -18.834 -26.001 -24.501s-18.334 -12.667 -26.001 -21s-11.5 -17.5 -11.5 -27.5l-5 -5h-10l-5 5
c0 13.333 3.83301 25 11.5 35s16 17.667 25 23s17.333 12.333 25 21s11.5 18.667 11.5 30c0 15.333 -6.16699 28.5 -18.5 39.5s-27.166 16.5 -44.499 16.5c-29.333 0 -52.666 -11.667 -69.999 -35h-5z" />
    <glyph glyph-name="uni030A" unicode="&#x30a;" horiz-adv-x="0" 
d="M-300 695c27.333 0 50.833 -9.33301 70.5 -28s29.5 -41 29.5 -67s-9.83301 -48.333 -29.5 -67s-43.167 -28 -70.5 -28s-50.833 9.33301 -70.5 28s-29.5 41 -29.5 67s9.83301 48.333 29.5 67s43.167 28 70.5 28zM-300 675c-22 0 -40.5 -7.33301 -55.5 -22
s-22.5 -32.334 -22.5 -53.001s7.5 -38.334 22.5 -53.001s33.5 -22 55.5 -22s40.5 7.33301 55.5 22s22.5 32.334 22.5 53.001s-7.5 38.334 -22.5 53.001s-33.5 22 -55.5 22z" />
    <glyph glyph-name="uni030B" unicode="&#x30b;" horiz-adv-x="0" 
d="M-315 670h15l5 -5l-95 -145l-10 -5h-10l-5 5l90 145zM-125 670h15l5 -5l-95 -145l-10 -5h-10l-5 5l90 145z" />
    <glyph glyph-name="uni030C" unicode="&#x30c;" horiz-adv-x="0" 
d="M-430 670h10l10 -5l110 -135l110 135l10 5h10l5 -5l-120 -145l-10 -5h-10l-10 5l-120 145z" />
    <glyph glyph-name="uni030D" unicode="&#x30d;" horiz-adv-x="0" 
d="M-305 670h10l5 -5v-145l-5 -5h-10l-5 5v145z" />
    <glyph glyph-name="uni030E" unicode="&#x30e;" horiz-adv-x="0" 
d="M-395 670h10l5 -5v-145l-5 -5h-10l-5 5v145zM-215 670h10l5 -5v-145l-5 -5h-10l-5 5v145z" />
    <glyph glyph-name="uni030F" unicode="&#x30f;" horiz-adv-x="0" 
d="M-490 670h15l10 -5l90 -145l-5 -5h-10l-10 5l-95 145zM-300 670h15l10 -5l90 -145l-5 -5h-10l-10 5l-95 145z" />
    <glyph glyph-name="uni0310" unicode="&#x310;" horiz-adv-x="0" 
d="M-445 670h10l5 -5c4.66699 -39.333 18.667 -70 42 -92s52.666 -33 87.999 -33s64.666 11 87.999 33s37.333 52.667 42 92l5 5h10l5 -5c-5.33301 -45.333 -21.166 -80.833 -47.499 -106.5s-60.5 -38.5 -102.5 -38.5s-76.167 12.833 -102.5 38.5
s-42.166 61.167 -47.499 106.5zM-305 770h10l25 -25v-10l-25 -25h-10l-25 25v10z" />
    <glyph glyph-name="uni0311" unicode="&#x311;" horiz-adv-x="0" 
d="M-445 515l-5 5c5.33301 45.333 21.166 80.833 47.499 106.5s60.5 38.5 102.5 38.5s76.167 -12.833 102.5 -38.5s42.166 -61.167 47.499 -106.5l-5 -5h-10l-5 5c-4.66699 39.333 -18.667 70 -42 92s-52.666 33 -87.999 33s-64.666 -11 -87.999 -33
s-37.333 -52.667 -42 -92l-5 -5h-10z" />
    <glyph glyph-name="uni0312" unicode="&#x312;" horiz-adv-x="0" 
d="M-270 695h10l5 -5l-35 -165l-10 -5h-15l-5 5l45 165z" />
    <glyph glyph-name="uni0313" unicode="&#x313;" horiz-adv-x="0" 
d="M-275 695h15l5 -5l-45 -165l-5 -5h-10l-5 5l35 165z" />
    <glyph glyph-name="uni0314" unicode="&#x314;" horiz-adv-x="0" 
d="M-340 695h15l10 -5l35 -165l-5 -5h-10l-5 5l-45 165z" />
    <glyph glyph-name="uni0315" unicode="&#x315;" horiz-adv-x="0" 
d="M25 740h10l5 -5l-40 -165l-5 -5h-5l-5 5l35 165z" />
    <glyph glyph-name="uni0316" unicode="&#x316;" horiz-adv-x="0" 
d="M-376 -40h16l10 -5l145 -145l-5 -5h-10l-10 5l-150 145z" />
    <glyph glyph-name="uni0317" unicode="&#x317;" horiz-adv-x="0" 
d="M-160 -40h16l4 -5l-150 -145l-10 -5h-10l-5 5l145 145z" />
    <glyph glyph-name="uni031A" unicode="&#x31a;" horiz-adv-x="0" 
d="M-200 590h145l5 -5v-145l-5 -5h-10l-5 5v130h-130l-5 5v10z" />
    <glyph glyph-name="uni031B" unicode="&#x31b;" horiz-adv-x="0" 
d="M-25 550l10 0.000976562l5 -5v-35c0 -48 -7.5 -83.333 -22.5 -106s-39.167 -34 -72.5 -34v5c50 11.333 75 54.666 75 129.999v40z" />
    <glyph glyph-name="uni031C" unicode="&#x31c;" horiz-adv-x="0" 
d="M-250 -60v-9.99805l-5 -5c-22.667 -2.66699 -40.5 -10.834 -53.5 -24.501s-19.5 -30.5 -19.5 -50.5s6.5 -36.833 19.5 -50.5s30.833 -21.834 53.5 -24.501l5 -5v-10l-5 -5c-28 2.66699 -50.833 12.667 -68.5 30s-26.5 39 -26.5 65s8.83301 47.667 26.5 65
s40.5 27.333 68.5 30z" />
    <glyph glyph-name="uni031D" unicode="&#x31d;" horiz-adv-x="0" 
d="M-305 -80h10l5 -5v-130h115l5 -5v-10l-5 -5h-250l-5 5v10l5 5h115v130z" />
    <glyph glyph-name="uni031E" unicode="&#x31e;" horiz-adv-x="0" 
d="M-425 -80h250l5 -5v-10l-5 -5h-115v-130l-5 -5h-10l-5 5v130h-115l-5 5v10z" />
    <glyph glyph-name="uni0320" unicode="&#x320;" horiz-adv-x="0" 
d="M-425 -140h250l5 -5v-10l-5 -5h-250l-5 5v10z" />
    <glyph glyph-name="uni0321" unicode="&#x321;" horiz-adv-x="0" 
d="M-105 40h9.99902l5 -5v-145c0 -103.333 -35 -155 -105 -155c-23.333 0 -41.666 3.33301 -54.999 10v15l5 5c13.333 -6.66699 30 -10 50 -10c56.667 0 85 46.667 85 140v140z" />
    <glyph glyph-name="uni0322" unicode="&#x322;" horiz-adv-x="0" 
d="M-105 40h9.99902l5 -5v-140c0 -93.333 28.333 -140 85 -140c20 0 36.667 3.33301 50 10l5 -5v-15c-13.333 -6.66699 -31.666 -10 -54.999 -10c-70 0 -105 51.667 -105 155v145z" />
    <glyph glyph-name="uni0323" unicode="&#x323;" horiz-adv-x="0" 
d="M-305 -100h10l25 -25v-10l-25 -25h-10l-25 25v10z" />
    <glyph glyph-name="uni0324" unicode="&#x324;" horiz-adv-x="0" 
d="M-415 -80h10l25 -25v-10l-25 -25h-10l-25 25v10zM-195 -80h10l25 -25v-10l-25 -25h-10l-25 25v10z" />
    <glyph glyph-name="uni0325" unicode="&#x325;" horiz-adv-x="0" 
d="M-300 -55c27.333 0 50.833 -9.33301 70.5 -28s29.5 -41 29.5 -67s-9.83301 -48.333 -29.5 -67s-43.167 -28 -70.5 -28s-50.833 9.33301 -70.5 28s-29.5 41 -29.5 67s9.83301 48.333 29.5 67s43.167 28 70.5 28zM-300 -75c-22 0 -40.5 -7.33301 -55.5 -22
s-22.5 -32.334 -22.5 -53.001s7.5 -38.334 22.5 -53.001s33.5 -22 55.5 -22s40.5 7.33301 55.5 22s22.5 32.334 22.5 53.001s-7.5 38.334 -22.5 53.001s-33.5 22 -55.5 22z" />
    <glyph glyph-name="uni0326" unicode="&#x326;" horiz-adv-x="0" 
d="M-290 -60h15l5 -5l-45 -165l-5 -5h-10l-5 5l35 165z" />
    <glyph glyph-name="uni0327" unicode="&#x327;" horiz-adv-x="0" 
d="M-310 0h20.002l-15 -75c23.333 -5.33301 41.666 -15.333 54.999 -30s20 -33 20 -55c0 -22.667 -9.16699 -42.5 -27.5 -59.5s-40.833 -25.5 -67.5 -25.5c-36.667 0 -65 13.333 -85 40l10 15h5c17.333 -23.333 40.666 -35 69.999 -35c22 0 39.667 6.33301 53 19
s20 28 20 46s-6.66699 33.333 -20 46s-31 19 -53 19l-5 5z" />
    <glyph glyph-name="uni0328" unicode="&#x328;" horiz-adv-x="0" 
d="M-100 95l0.000976562 -25.002c-60.667 -42 -101.334 -78.333 -122.001 -109s-31 -62.667 -31 -96c0 -25.333 8.5 -46.666 25.5 -63.999s37.833 -26 62.5 -26c26.667 0 46.667 6.66699 60 20l5 -5v-15c-18 -13.333 -39.667 -20 -65 -20c-30.667 0 -56.667 10.667 -78 32
s-32 47.333 -32 78c0 39.333 11.667 74.833 35 106.5s70 72.834 140 123.501z" />
    <glyph glyph-name="uni0329" unicode="&#x329;" horiz-adv-x="0" 
d="M-305 -40h10l5 -5v-145l-5 -5h-10l-5 5v145z" />
    <glyph glyph-name="uni032A" unicode="&#x32a;" horiz-adv-x="0" 
d="M-455 -40h250l5 -5v-145l-5 -5h-10l-5 5v130h-220v-130l-5 -5h-10l-5 5v145z" />
    <glyph glyph-name="uni032C" unicode="&#x32c;" horiz-adv-x="0" 
d="M-420 -40h10l10 -5l110 -135l110 135l10 5h10l5 -5l-120 -145l-10 -5h-10l-10 5l-120 145z" />
    <glyph glyph-name="uni032D" unicode="&#x32d;" horiz-adv-x="0" 
d="M-305 -40h10l10 -5l120 -145l-5 -5h-10l-10 5l-110 135l-110 -135l-10 -5h-10l-5 5l120 145z" />
    <glyph glyph-name="uni032E" unicode="&#x32e;" horiz-adv-x="0" 
d="M-445 -40h10l5 -5c4.66699 -39.333 18.667 -70 42 -92s52.666 -33 87.999 -33s64.666 11 87.999 33s37.333 52.667 42 92l5 5h10l5 -5c-5.33301 -45.333 -21.166 -80.833 -47.499 -106.5s-60.5 -38.5 -102.5 -38.5s-76.167 12.833 -102.5 38.5
s-42.166 61.167 -47.499 106.5z" />
    <glyph glyph-name="uni032F" unicode="&#x32f;" horiz-adv-x="0" 
d="M-445 -195l-5 5c5.33301 45.333 21.166 80.833 47.499 106.5s60.5 38.5 102.5 38.5s76.167 -12.833 102.5 -38.5s42.166 -61.167 47.499 -106.5l-5 -5h-10l-5 5c-4.66699 39.333 -18.667 70 -42 92s-52.666 33 -87.999 33s-64.666 -11 -87.999 -33
s-37.333 -52.667 -42 -92l-5 -5h-10z" />
    <glyph glyph-name="uni0330" unicode="&#x330;" horiz-adv-x="0" 
d="M-135 -95l5 -5c-25.333 -46.667 -57 -70 -95 -70c-22.667 0 -49.834 9.16699 -81.501 27.5s-56.167 27.5 -73.5 27.5s-32 -4 -44 -12s-25.667 -22.333 -41 -43l-5 5c25.333 46.667 57 70 95 70c22.667 0 49.834 -9.16699 81.501 -27.5s56.167 -27.5 73.5 -27.5
s32 4 44 12s25.667 22.333 41 43z" />
    <glyph glyph-name="uni0331" unicode="&#x331;" horiz-adv-x="0" 
d="M-455 -100h310l5 -5v-10l-5 -5h-310l-5 5v10z" />
    <glyph glyph-name="uni0334" unicode="&#x334;" horiz-adv-x="0" 
d="M-135 270l5 -5c-25.333 -46.667 -57 -70 -95 -70c-22.667 0 -49.834 9.16699 -81.501 27.5s-56.167 27.5 -73.5 27.5s-32 -4 -44 -12s-25.667 -22.333 -41 -43l-5 5c25.333 46.667 57 70 95 70c22.667 0 49.834 -9.16699 81.501 -27.5s56.167 -27.5 73.5 -27.5
s32 4 44 12s25.667 22.333 41 43z" />
    <glyph glyph-name="uni0335" unicode="&#x335;" horiz-adv-x="0" 
d="M-455 265h310l5 -5v-10l-5 -5h-310l-5 5v10z" />
    <glyph glyph-name="uni0336" unicode="&#x336;" horiz-adv-x="0" 
d="M-585 245h570l5 -5v-10l-5 -5h-570l-5 5v10z" />
    <glyph glyph-name="uni0339" unicode="&#x339;" horiz-adv-x="0" 
d="M-350 -60l5 4.99805c28 -2.66699 50.833 -12.667 68.5 -30s26.5 -39 26.5 -65s-8.83301 -47.667 -26.5 -65s-40.5 -27.333 -68.5 -30l-5 5v10l5 5c22.667 2.66699 40.5 10.834 53.5 24.501s19.5 30.5 19.5 50.5s-6.5 36.833 -19.5 50.5s-30.833 21.834 -53.5 24.501l-5 5
v10z" />
    <glyph glyph-name="uni033A" unicode="&#x33a;" horiz-adv-x="0" 
d="M-425 -40h10l5 -5v-130h220v130l5 5h10l5 -5v-145l-5 -5h-250l-5 5v145z" />
    <glyph glyph-name="uni033B" unicode="&#x33b;" horiz-adv-x="0" 
d="M-405 -75h210l5 -5v-140l-5 -5h-210l-5 5v140zM-390 -95v-110h180v110h-180z" />
    <glyph glyph-name="uni033D" unicode="&#x33d;" horiz-adv-x="0" 
d="M-375 670h5l70 -52l70 52h5l7 -8v-5l-67 -52l67 -52v-5l-7 -8h-5l-70 52l-70 -52h-5l-8 8v5l68 52l-68 52v5z" />
    <glyph glyph-name="uni033E" unicode="&#x33e;" horiz-adv-x="0" 
d="M-330 700l5 5c40 -11.333 60 -31.333 60 -60c0 -16 -8.33301 -31.5 -25 -46.5s-25 -27.833 -25 -38.5c0 -12 3.33301 -21.333 10 -28s18.334 -14 35.001 -22l-5 -5c-40 11.333 -60 31.333 -60 60c0 16 8.33301 31.5 25 46.5s25 27.833 25 38.5
c0 12 -3.33301 21.333 -10 28s-18.334 14 -35.001 22z" />
    <glyph glyph-name="uni0342" unicode="&#x342;" horiz-adv-x="0" 
d="M-135 615l5 -5c-25.333 -46.667 -57 -70 -95 -70c-22.667 0 -49.834 9.16699 -81.501 27.5s-56.167 27.5 -73.5 27.5s-32 -4 -44 -12s-25.667 -22.333 -41 -43l-5 5c25.333 46.667 57 70 95 70c22.667 0 49.834 -9.16699 81.501 -27.5s56.167 -27.5 73.5 -27.5
s32 4 44 12s25.667 22.333 41 43z" />
    <glyph glyph-name="uni0344" unicode="&#x344;" horiz-adv-x="0" 
d="M-285 690h15l5 -5l-35 -165l-5 -5h-10l-5 5l25 165zM-415 630h10l25 -25v-10l-25 -25h-10l-25 25v10zM-195 630h10l25 -25v-10l-25 -25h-10l-25 25v10z" />
    <glyph glyph-name="uni0345" unicode="&#x345;" horiz-adv-x="0" 
d="M-305 -60h9.99902l5 -5v-40c0 -93.333 28.333 -140 85 -140c20 0 36.667 3.33301 50 10l5 -5v-15c-13.333 -6.66699 -31.666 -10 -54.999 -10c-70 0 -105 51.667 -105 155v45z" />
    <glyph glyph-name="uni0346" unicode="&#x346;" horiz-adv-x="0" 
d="M-425 670h250l5 -5v-145l-5 -5h-10l-5 5v130h-220v-130l-5 -5h-10l-5 5v145z" />
    <glyph glyph-name="uni0348" unicode="&#x348;" horiz-adv-x="0" 
d="M-395 -40h10l5 -5v-145l-5 -5h-10l-5 5v145zM-215 -40h10l5 -5v-145l-5 -5h-10l-5 5v145z" />
    <glyph glyph-name="uni034D" unicode="&#x34d;" horiz-adv-x="0" 
d="M-390 -50h15l5 -5l-55 -55h250l-55 55l5 5h15l10 -5l60 -60v-10l-60 -60l-10 -5h-15l-5 5l55 55h-250l55 -55l-5 -5h-15l-10 5l-60 60v10l60 60z" />
    <glyph glyph-name="uni034E" unicode="&#x34e;" horiz-adv-x="0" 
d="M-305 -40h10l60 -60l5 -10v-15l-5 -5l-55 55v-160l-5 -5h-10l-5 5v160l-55 -55l-5 5v15l5 10z" />
    <glyph glyph-name="uni0351" unicode="&#x351;" horiz-adv-x="0" 
d="M-250 690v-9.99805l-5 -5c-22.667 -2.66699 -40.5 -10.834 -53.5 -24.501s-19.5 -30.5 -19.5 -50.5s6.5 -36.833 19.5 -50.5s30.833 -21.834 53.5 -24.501l5 -5v-10l-5 -5c-28 2.66699 -50.833 12.667 -68.5 30s-26.5 39 -26.5 65s8.83301 47.667 26.5 65
s40.5 27.333 68.5 30z" />
    <glyph glyph-name="uni0352" unicode="&#x352;" horiz-adv-x="0" 
d="M-445 655l-5 5c5.33301 45.333 21.166 80.833 47.499 106.5s60.5 38.5 102.5 38.5s76.167 -12.833 102.5 -38.5s42.166 -61.167 47.499 -106.5l-5 -5h-10l-5 5c-4.66699 39.333 -18.667 70 -42 92s-52.666 33 -87.999 33s-64.666 -11 -87.999 -33
s-37.333 -52.667 -42 -92l-5 -5h-10zM-305 630h10l25 -25v-10l-25 -25h-10l-25 25v10z" />
    <glyph glyph-name="uni0353" unicode="&#x353;" horiz-adv-x="0" 
d="M-375 -40h5l70 -52l70 52h5l7 -8v-5l-67 -52l67 -52v-5l-7 -8h-5l-70 52l-70 -52h-5l-8 8v5l68 52l-68 52v5z" />
    <glyph glyph-name="uni0357" unicode="&#x357;" horiz-adv-x="0" 
d="M-350 690l5 4.99805c28 -2.66699 50.833 -12.667 68.5 -30s26.5 -39 26.5 -65s-8.83301 -47.667 -26.5 -65s-40.5 -27.333 -68.5 -30l-5 5v10l5 5c22.667 2.66699 40.5 10.834 53.5 24.501s19.5 30.5 19.5 50.5s-6.5 36.833 -19.5 50.5s-30.833 21.834 -53.5 24.501l-5 5
v10z" />
    <glyph glyph-name="uni0359" unicode="&#x359;" horiz-adv-x="0" 
d="M-305 -55h10l5 -5v-75l65 40h5l7 -13v-5l-67 -37l67 -37v-5l-7 -13h-5l-65 40v-75l-5 -5h-10l-5 5v75l-65 -40h-5l-8 13v5l68 37l-68 37v5l8 13h5l65 -40v75z" />
    <glyph glyph-name="pi" unicode="&#x3c0;" horiz-adv-x="620" 
d="M35 470l550 0.000976562l5 -5v-10l-5 -5h-135v-305c0 -93.333 28.333 -140 85 -140c20 0 36.667 3.33301 50 10l5 -5v-15c-13.333 -6.66699 -31.666 -10 -54.999 -10c-70 0 -105 51.667 -105 155v310h-255c0 -190 -13.333 -338.333 -40 -445l-5 -5h-15l-5 5
c17.333 58.667 29.166 121.167 35.499 187.5s9.5 152.166 9.5 257.499h-120l-5 5v11z" />
    <glyph glyph-name="uni0400" unicode="&#x400;" horiz-adv-x="520" 
d="M105 700h340l5 -5v-10l-5 -5h-325v-285h245l5 -5v-10l-5 -5h-245v-355h355l5 -5v-10l-5 -5h-370l-5 5v690zM154 875h26l10 -5l145 -125l-5 -5h-10l-10 5l-160 125z" />
    <glyph glyph-name="uni0401" unicode="&#x401;" horiz-adv-x="520" 
d="M105 700h340l5 -5v-10l-5 -5h-325v-285h245l5 -5v-10l-5 -5h-245v-355h355l5 -5v-10l-5 -5h-370l-5 5v690zM160 840h10l30 -30v-10l-30 -30h-10l-30 30v10zM390 840h10l30 -30v-10l-30 -30h-10l-30 30v10z" />
    <glyph glyph-name="uni0402" unicode="&#x402;" horiz-adv-x="820" 
d="M55 700l509.998 -0.000976562l5 -5v-10l-5 -5h-265v-310c21.333 18.667 48.833 34.167 82.5 46.5s69.5 18.5 107.5 18.5c76 0 135 -24.667 177 -74s63 -119.666 63 -210.999v-190c0 -103.333 -35 -155 -105 -155c-23.333 0 -41.666 3.33301 -54.999 10v15l5 5
c13.333 -6.66699 30 -10 50 -10c56.667 0 85 46.667 85 140v175c0 91.333 -18.833 160 -56.5 206s-92.167 69 -163.5 69c-69.333 0 -132.666 -23.333 -189.999 -70v-340l-5 -5h-10l-5 5v675h-225l-5 5v10z" />
    <glyph glyph-name="uni0403" unicode="&#x403;" horiz-adv-x="480" 
d="M105 700h340l5 -5v-10l-5 -5h-325v-675l-5 -5h-10l-5 5v690zM380 875h26l4 -5l-160 -125l-10 -5h-10l-5 5l145 125z" />
    <glyph glyph-name="uni0404" unicode="&#x404;" horiz-adv-x="760" 
d="M680 620l-4.99805 -5c-68 53.333 -146.333 80 -235 80c-92 0 -171.333 -30.833 -238 -92.5s-103.334 -137.5 -110.001 -227.5h413l5 -5v-10l-5 -5h-413c0 -97.333 34.167 -180 102.5 -248s150.166 -102 245.499 -102c88.667 0 167 26.667 235 80l5 -5v-20
c-69.333 -50 -149.333 -75 -240 -75c-102 0 -189.167 35.833 -261.5 107.5s-108.5 157.5 -108.5 257.5s36.167 185.833 108.5 257.5s159.5 107.5 261.5 107.5c90.667 0 170.667 -25 240 -75v-20z" />
    <glyph glyph-name="uni0405" unicode="&#x405;" horiz-adv-x="550" 
d="M420 605h-10.001c-38 60 -89.667 90 -155 90c-39.333 0 -73 -13.667 -101 -41s-42 -60.333 -42 -99c0 -30 12.333 -57 37 -81s54.5 -44.667 89.5 -62l105 -53.5c35 -18.333 64.833 -41.833 89.5 -70.5s37 -61.334 37 -98.001c0 -56.667 -20 -105 -60 -145
s-88.333 -60 -145 -60c-49.333 0 -92.166 12.833 -128.499 38.5s-63.5 61.167 -81.5 106.5l10 5h10c14.667 -41.333 39.5 -73.333 74.5 -96s73.5 -34 115.5 -34c50.667 0 93.834 18 129.501 54s53.5 79.667 53.5 131c0 32.667 -12.333 62 -37 88s-54.5 48 -89.5 66
l-105 53.5c-35 17.667 -64.833 39.834 -89.5 66.501s-37 57 -37 91c0 44 16.167 81.667 48.5 113s71.166 47 116.499 47c38 0 72 -9.5 102 -28.5s54.333 -44.5 73 -76.5z" />
    <glyph glyph-name="uni0406" unicode="&#x406;" horiz-adv-x="220" 
d="M105 700h10l5 -5v-690l-5 -5h-10l-5 5v690z" />
    <glyph glyph-name="uni0407" unicode="&#x407;" horiz-adv-x="220" 
d="M105 700h10l5 -5v-690l-5 -5h-10l-5 5v690zM10 840h10l30 -30v-10l-30 -30h-10l-30 30v10zM200 840h10l30 -30v-10l-30 -30h-10l-30 30v10z" />
    <glyph glyph-name="uni0408" unicode="&#x408;" horiz-adv-x="480" 
d="M365 700l9.99902 0.000976562l5 -5v-510c0 -63.333 -16.167 -112.5 -48.5 -147.5s-74.5 -52.5 -126.5 -52.5c-37.333 0 -71.166 11.167 -101.499 33.5s-51.5 55.166 -63.5 98.499l15 8h5c12 -40 31.167 -70 57.5 -90s55.5 -30 87.5 -30c44.667 0 81.667 15 111 45
s44 76.667 44 140v505z" />
    <glyph glyph-name="uni0409" unicode="&#x409;" horiz-adv-x="1040" 
d="M245 700l329.999 0.000976562l5 -5v-300h165c74.667 0 132.5 -17.333 173.5 -52s61.5 -82.334 61.5 -143.001s-20.667 -109.167 -62 -145.5s-99 -54.5 -173 -54.5h-180l-5 5v675h-300l-85 -550c-20.667 -96.667 -64 -145 -130 -145l-5 5v10l5 5
c56.667 0 93.334 46.667 110.001 140l85 550zM579.999 375.001l-0.000976562 -354.999h165c66 0 118 16.667 156 50s57 76.666 57 129.999c0 55.333 -18.667 98.333 -56 129s-89.666 46 -156.999 46h-165z" />
    <glyph glyph-name="uni040A" unicode="&#x40a;" horiz-adv-x="1040" 
d="M105 700l10 0.000976562l5 -5v-300h440v300l5 5h10l5 -5v-300h165c74.667 0 132.5 -17.333 173.5 -52s61.5 -82.334 61.5 -143.001s-20.667 -109.167 -62 -145.5s-99 -54.5 -173 -54.5h-180l-5 5v370h-440v-370l-5 -5h-10l-5 5v690zM580 375.001l-0.000976562 -354.999
h165c66 0 118 16.667 156 50s57 76.666 57 129.999c0 55.333 -18.667 98.333 -56 129s-89.666 46 -156.999 46h-165z" />
    <glyph glyph-name="uni040B" unicode="&#x40b;" horiz-adv-x="800" 
d="M35 700l509.999 -0.000976562l5 -5v-10l-5 -5h-265v-310c21.333 18.667 48.833 34.167 82.5 46.5s69.5 18.5 107.5 18.5c76 0 135 -24.667 177 -74s63 -119.666 63 -210.999v-145l-5 -5h-10l-5 5v135c0 91.333 -18.833 160 -56.5 206s-92.167 69 -163.5 69
c-69.333 0 -132.666 -23.333 -189.999 -70v-340l-5 -5h-10l-5 5v675h-225l-5 5v10z" />
    <glyph glyph-name="uni040C" unicode="&#x40c;" horiz-adv-x="580" 
d="M450 875h26l4 -5l-160 -125l-10 -5h-10l-5 5l145 125zM105 700h10l5 -5v-300h120l275 300l10 5h10l5 -5l-280 -310l290 -380l-5 -5h-10l-10 5l-285 370h-120v-370l-5 -5h-10l-5 5v690z" />
    <glyph glyph-name="uni040D" unicode="&#x40d;" horiz-adv-x="740" 
d="M105 700h10l5 -5v-665l492 665l10 5h13l5 -5v-690l-5 -5h-10l-5 5v665l-493 -665l-10 -5h-12l-5 5v690zM244 875h26l10 -5l145 -125l-5 -5h-10l-10 5l-160 125z" />
    <glyph glyph-name="uni040E" unicode="&#x40e;" horiz-adv-x="580" 
d="M35 700h10l5 -5l240 -475l240 475l5 5h10l5 -5l-300 -600c-39.333 -73.333 -99.333 -110 -180 -110l-5 7v8l5 5c68.667 0 122 31.667 160 95l50 95l-250 500zM140 875h9.99805l5 -5c4.66699 -39.333 19.834 -68.333 45.501 -87s55.5 -28 89.5 -28s63.833 9.33301 89.5 28
s40.834 47.667 45.501 87l5 5h10l5 -5c-4.66699 -45.333 -21 -79.166 -49 -101.499s-63.333 -33.5 -106 -33.5s-78 11.167 -106 33.5s-44.333 56.166 -49 101.499z" />
    <glyph glyph-name="uni040F" unicode="&#x40f;" horiz-adv-x="680" 
d="M105 700h10l5 -5v-675h440v675l5 5h10l5 -5v-690l-5 -5h-225v-175l-5 -5h-10l-5 5v175h-225l-5 5v690z" />
    <glyph glyph-name="uni0410" unicode="&#x410;" horiz-adv-x="640" 
d="M310 700h20l5 -5l275 -690l-5 -5h-10l-5 5l-97 240h-346l-97 -240l-5 -5h-10l-5 5l275 690zM320 680l-165 -415h330z" />
    <glyph glyph-name="uni0411" unicode="&#x411;" 
d="M105 700l340 0.000976562l5 -5v-10l-5 -5h-325v-285h185c74.667 0 132.5 -17.333 173.5 -52s61.5 -82.334 61.5 -143.001s-20.667 -109.167 -62 -145.5s-99 -54.5 -173 -54.5h-200l-5 5v690zM120 375.001l-0.000976562 -354.999h185c66 0 118 16.667 156 50
s57 76.666 57 129.999c0 55.333 -18.667 98.333 -56 129s-89.666 46 -156.999 46h-185z" />
    <glyph glyph-name="uni0412" unicode="&#x412;" 
d="M105 700h144.999c67.333 0 118.333 -15 153 -45s52 -70 52 -120c0 -34 -9.83301 -63.5 -29.5 -88.5s-46.5 -43.833 -80.5 -56.5c62.667 -7.33301 110.834 -28.5 144.501 -63.5s50.5 -77.167 50.5 -126.5c0 -59.333 -22.167 -107.5 -66.5 -144.5
s-100.5 -55.5 -168.5 -55.5h-200l-5 5v690zM119.999 680l-0.000976562 -290h130c50 0 93 14.167 129 42.5s54 62.5 54 102.5c0 41.333 -15.167 75.833 -45.5 103.5s-76.166 41.5 -137.499 41.5h-130zM119.998 370l-0.00195312 -350.001h185
c62.667 0 113.834 16.833 153.501 50.5s59.5 76.834 59.5 129.501c0 52 -19.667 93.333 -59 124s-90.666 46 -153.999 46h-185z" />
    <glyph glyph-name="uni0413" unicode="&#x413;" horiz-adv-x="480" 
d="M105 700h340l5 -5v-10l-5 -5h-325v-675l-5 -5h-10l-5 5v690z" />
    <glyph glyph-name="uni0414" unicode="&#x414;" horiz-adv-x="740" 
d="M235 700h360l5 -5v-675h75l5 -5v-190l-5 -5h-10l-5 5v175h-580v-175l-5 -5h-10l-5 5v190l5 5h47c26.667 20.667 47.667 69 63 145l55 530zM250 680l-54.999 -530c-8.66699 -56 -25.334 -99.333 -50.001 -130h435v660h-330z" />
    <glyph glyph-name="uni0415" unicode="&#x415;" horiz-adv-x="520" 
d="M105 700h340l5 -5v-10l-5 -5h-325v-285h245l5 -5v-10l-5 -5h-245v-355h355l5 -5v-10l-5 -5h-370l-5 5v690z" />
    <glyph glyph-name="uni0416" unicode="&#x416;" horiz-adv-x="860" 
d="M425 700h10l5 -5v-300h123l232 300l10 5h10l5 -5l-240 -310l250 -380l-5 -5h-10l-10 5l-242 370h-123v-370l-5 -5h-10l-5 5v370h-123l-242 -370l-10 -5h-10l-5 5l250 380l-240 310l5 5h10l10 -5l232 -300h123v300z" />
    <glyph glyph-name="uni0417" unicode="&#x417;" horiz-adv-x="570" 
d="M80 610l-10.0029 10.002c20.667 28.667 47.834 51.667 81.501 69s69.834 26 108.501 26c60 0 110 -18.833 150 -56.5s60 -83.834 60 -138.501c0 -32.667 -8.66699 -61.5 -26 -86.5s-38.666 -44.5 -63.999 -58.5c36.667 -10.667 67.5 -31.5 92.5 -62.5
s37.5 -66.833 37.5 -107.5c0 -61.333 -23 -113.333 -69 -156s-103 -64 -171 -64c-42.667 0 -85.667 9.16699 -129 27.5s-77 44.166 -101 77.499l10 10h10c21.333 -28.667 52.333 -51.667 93 -69s79.667 -26 117 -26c62 0 113.833 19.5 155.5 58.5s62.5 86.167 62.5 141.5
c0 40 -15 75.833 -45 107.5s-67.667 47.5 -113 47.5h-125l-5 5v10l5 5h115c29.333 0 58 13.833 86 41.5s42 60.5 42 98.5c0 49.333 -17.833 90.833 -53.5 124.5s-80.5 50.5 -134.5 50.5c-69.333 0 -126 -28.333 -170 -85h-10z" />
    <glyph glyph-name="uni0418" unicode="&#x418;" horiz-adv-x="740" 
d="M105 700h10l5 -5v-665l492 665l10 5h13l5 -5v-690l-5 -5h-10l-5 5v665l-493 -665l-10 -5h-12l-5 5v690z" />
    <glyph glyph-name="uni0419" unicode="&#x419;" horiz-adv-x="740" 
d="M105 700h10l5 -5v-665l492 665l10 5h13l5 -5v-690l-5 -5h-10l-5 5v665l-493 -665l-10 -5h-12l-5 5v690zM220 875h9.99805l5 -5c4.66699 -39.333 19.834 -68.333 45.501 -87s55.5 -28 89.5 -28s63.833 9.33301 89.5 28s40.834 47.667 45.501 87l5 5h10l5 -5
c-4.66699 -45.333 -21 -79.166 -49 -101.499s-63.333 -33.5 -106 -33.5s-78 11.167 -106 33.5s-44.333 56.166 -49 101.499z" />
    <glyph glyph-name="uni041A" unicode="&#x41a;" horiz-adv-x="580" 
d="M105 700h10l5 -5v-300h120l275 300l10 5h10l5 -5l-280 -310l290 -380l-5 -5h-10l-10 5l-285 370h-120v-370l-5 -5h-10l-5 5v690z" />
    <glyph glyph-name="uni041B" unicode="&#x41b;" horiz-adv-x="700" 
d="M245 700h349.999l5 -5v-690l-5 -5h-10l-5 5v675h-320l-85 -550c-20.667 -96.667 -64 -145 -130 -145l-5 5v10l5 5c56.667 0 93.334 46.667 110.001 140l85 550z" />
    <glyph glyph-name="uni041C" unicode="&#x41c;" horiz-adv-x="820" 
d="M105 700h10l10 -5l285 -360l285 360l10 5h10l5 -5v-690l-5 -5h-10l-5 5v665l-285 -360h-10l-285 360v-665l-5 -5h-10l-5 5v690z" />
    <glyph glyph-name="uni041D" unicode="&#x41d;" horiz-adv-x="700" 
d="M105 700h10l5 -5v-300h460v300l5 5h10l5 -5v-690l-5 -5h-10l-5 5v370h-460v-370l-5 -5h-10l-5 5v690z" />
    <glyph glyph-name="uni041E" unicode="&#x41e;" horiz-adv-x="880" 
d="M440 715c102 0 189.167 -35.667 261.5 -107s108.5 -157.333 108.5 -258s-36.167 -186.667 -108.5 -258s-159.5 -107 -261.5 -107s-189.167 35.667 -261.5 107s-108.5 157.333 -108.5 258s36.167 186.667 108.5 258s159.5 107 261.5 107zM440 695
c-95.333 0 -177.166 -33.833 -245.499 -101.5s-102.5 -148.834 -102.5 -243.501s34.167 -175.834 102.5 -243.501s150.166 -101.5 245.499 -101.5s177.166 33.833 245.499 101.5s102.5 148.834 102.5 243.501s-34.167 175.834 -102.5 243.501s-150.166 101.5 -245.499 101.5
z" />
    <glyph glyph-name="uni041F" unicode="&#x41f;" horiz-adv-x="680" 
d="M105 700h470l5 -5v-690l-5 -5h-10l-5 5v675h-440v-675l-5 -5h-10l-5 5v690z" />
    <glyph glyph-name="uni0420" unicode="&#x420;" horiz-adv-x="540" 
d="M104 700l136 -0.00195312c83.333 0 145.833 -17.167 187.5 -51.5s62.5 -82.166 62.5 -143.499s-20.833 -109.166 -62.5 -143.499s-104.167 -51.5 -187.5 -51.5h-120v-305l-5 -5h-10l-5 5v690zM120 679.998v-350h120c73.333 0 129.666 14.833 168.999 44.5
s59 73.167 59 130.5s-19.667 100.833 -59 130.5s-95.666 44.5 -168.999 44.5h-120z" />
    <glyph glyph-name="uni0421" unicode="&#x421;" horiz-adv-x="760" 
d="M680 620l-5 -4.99805c-68 53.333 -146.333 80 -235 80c-95.333 0 -177.166 -33.833 -245.499 -101.5s-102.5 -148.834 -102.5 -243.501s34.167 -175.834 102.5 -243.501s150.166 -101.5 245.499 -101.5c88.667 0 167 26.667 235 80l5 -5v-20
c-69.333 -50 -149.333 -75 -240 -75c-102 0 -189.167 35.833 -261.5 107.5s-108.5 157.5 -108.5 257.5s36.167 185.833 108.5 257.5s159.5 107.5 261.5 107.5c90.667 0 170.667 -25 240 -75v-20z" />
    <glyph glyph-name="uni0422" unicode="&#x422;" horiz-adv-x="620" 
d="M35 700h550l5 -5v-10l-5 -5h-265v-675l-5 -5h-10l-5 5v675h-265l-5 5v10z" />
    <glyph glyph-name="uni0423" unicode="&#x423;" horiz-adv-x="580" 
d="M35 700h10l5 -5l240 -475l240 475l5 5h10l5 -5l-300 -600c-39.333 -73.333 -99.333 -110 -180 -110l-5 7v8l5 5c68.667 0 122 31.667 160 95l50 95l-250 500z" />
    <glyph glyph-name="uni0424" unicode="&#x424;" horiz-adv-x="820" 
d="M405 740h10l5 -5v-85c110 -4.66699 194.167 -35.334 252.5 -92.001s87.5 -126 87.5 -208s-29.167 -151.333 -87.5 -208s-142.5 -87.334 -252.5 -92.001v-85l-5 -5h-10l-5 5v85c-110 4.66699 -194.167 35.334 -252.5 92.001s-87.5 126 -87.5 208s29.167 151.333 87.5 208
s142.5 87.334 252.5 92.001v85zM400 70v559.998c-104 -4.66699 -183 -33.667 -237 -87s-81 -117.666 -81 -192.999s27 -139.666 81 -192.999s133 -82.333 237 -87zM420 629.998v-559.998c104 4.66699 183 33.667 237 87s81 117.666 81 192.999s-27 139.666 -81 192.999
s-133 82.333 -237 87z" />
    <glyph glyph-name="uni0425" unicode="&#x425;" horiz-adv-x="660" 
d="M55 700h10l10 -5l255 -317l255 317l10 5h10l5 -5l-268 -333l288 -357l-5 -5h-10l-10 5l-275 342l-275 -342l-10 -5h-10l-5 5l288 357l-268 333z" />
    <glyph glyph-name="uni0426" unicode="&#x426;" horiz-adv-x="700" 
d="M105 700h10l5 -5v-675h440v675l5 5h10l5 -5v-675h75l5 -5v-190l-5 -5h-10l-5 5v175h-535l-5 5v690z" />
    <glyph glyph-name="uni0427" unicode="&#x427;" horiz-adv-x="640" 
d="M95 700l10.001 0.000976562l5 -5v-115c0 -91.333 18.833 -160 56.5 -206s92.167 -69 163.5 -69c69.333 0 132.666 23.333 189.999 70v320l5 5h10l5 -5v-690l-5 -5h-10l-5 5v345c-21.333 -18.667 -48.833 -34.167 -82.5 -46.5s-69.5 -18.5 -107.5 -18.5
c-76 0 -135 24.667 -177 74s-63 119.666 -63 210.999v125z" />
    <glyph glyph-name="uni0428" unicode="&#x428;" horiz-adv-x="900" 
d="M105 700h10l5 -5v-675h320v675l5 5h10l5 -5v-675h320v675l5 5h10l5 -5v-690l-5 -5h-690l-5 5v690z" />
    <glyph glyph-name="uni0429" unicode="&#x429;" horiz-adv-x="920" 
d="M105 700h10l5 -5v-675h320v675l5 5h10l5 -5v-675h320v675l5 5h10l5 -5v-675h75l5 -5v-190l-5 -5h-10l-5 5v175h-755l-5 5v690z" />
    <glyph glyph-name="uni042A" unicode="&#x42a;" horiz-adv-x="720" 
d="M35 700l220 0.000976562l5 -5v-300h165c74.667 0 132.5 -17.333 173.5 -52s61.5 -82.334 61.5 -143.001s-20.667 -109.167 -62 -145.5s-99 -54.5 -173 -54.5h-180l-5 5v675h-205l-5 5v10zM260 375.001l-0.000976562 -354.999h165c66 0 118 16.667 156 50
s57 76.666 57 129.999c0 55.333 -18.667 98.333 -56 129s-89.666 46 -156.999 46h-165z" />
    <glyph glyph-name="uni042B" unicode="&#x42b;" horiz-adv-x="760" 
d="M645 700h10l5 -5v-690l-5 -5h-10l-5 5v690zM105 700l10 0.000976562l5 -5v-300h165c74.667 0 132.5 -17.333 173.5 -52s61.5 -82.334 61.5 -143.001s-20.667 -109.167 -62 -145.5s-99 -54.5 -173 -54.5h-180l-5 5v690zM120 375.001l-0.000976562 -354.999h165
c66 0 118 16.667 156 50s57 76.666 57 129.999c0 55.333 -18.667 98.333 -56 129s-89.666 46 -156.999 46h-165z" />
    <glyph glyph-name="uni042C" unicode="&#x42c;" 
d="M105 700l10 0.000976562l5 -5v-300h185c74.667 0 132.5 -17.333 173.5 -52s61.5 -82.334 61.5 -143.001s-20.667 -109.167 -62 -145.5s-99 -54.5 -173 -54.5h-200l-5 5v690zM120 375.001l-0.000976562 -354.999h185c66 0 118 16.667 156 50s57 76.666 57 129.999
c0 55.333 -18.667 98.333 -56 129s-89.666 46 -156.999 46h-185z" />
    <glyph glyph-name="uni042D" unicode="&#x42d;" horiz-adv-x="760" 
d="M80 620l0.00195312 20c69.333 50 149.333 75 240 75c102 0 189.167 -35.833 261.5 -107.5s108.5 -157.5 108.5 -257.5s-36.167 -185.833 -108.5 -257.5s-159.5 -107.5 -261.5 -107.5c-90.667 0 -170.667 25 -240 75v20l5 5c68 -53.333 146.333 -80 235 -80
c95.333 0 177.166 34 245.499 102s102.5 150.667 102.5 248h-413l-5 5v10l5 5h413c-6.66699 90 -43.334 165.833 -110.001 227.5s-146 92.5 -238 92.5c-88.667 0 -167 -26.667 -235 -80z" />
    <glyph glyph-name="uni042E" unicode="&#x42e;" horiz-adv-x="1080" 
d="M105 700h10l5 -5v-320h171c4.66699 93.333 41.5 173.333 110.5 240s151.833 100 248.5 100c101.333 0 186.666 -35.5 255.999 -106.5s104 -157.167 104 -258.5s-34.667 -187.5 -104 -258.5s-154.666 -106.5 -255.999 -106.5c-104 0 -190 35.667 -258 107
s-102 159 -102 263h-170v-350l-5 -5h-10l-5 5v690zM650 695c-94.667 0 -174.667 -33.667 -240 -101s-98 -148.666 -98 -243.999s32.667 -176.666 98 -243.999s145.333 -101 240 -101s174.667 33.667 240 101s98 148.666 98 243.999s-32.667 176.666 -98 243.999
s-145.333 101 -240 101z" />
    <glyph glyph-name="uni042F" unicode="&#x42f;" horiz-adv-x="580" 
d="M475 700l5.00098 -4.99902v-690l-5 -5h-10l-5 5v335h-150l-255 -335l-5 -5h-15l-5 5l255 337c-51.333 10 -93.333 29.5 -126 58.5s-49 68.833 -49 119.5c0 57.333 18.667 101.666 56 132.999s88.666 47 153.999 47h155zM460.001 680.001h-140
c-58.667 0 -104.667 -13.833 -138 -41.5s-50 -67.167 -50 -118.5c0 -54.667 20.833 -95 62.5 -121s90.167 -39 145.5 -39h120v320z" />
    <glyph glyph-name="uni0430" unicode="&#x430;" horiz-adv-x="520" 
d="M95 430l9.99902 19.9971c46.667 23.333 91.667 35 135 35c64.667 0 112.5 -16.333 143.5 -49s46.5 -83 46.5 -151v-280l-5 -5h-10l-5 5v50c-60 -46.667 -123.333 -70 -190 -70c-46.667 0 -85 11.167 -115 33.5s-45 52.833 -45 91.5c0 30.667 8.33301 56.834 25 78.501
s41.334 39.167 74.001 52.5s69.167 23.333 109.5 30s87.5 11.334 141.5 14.001c0 64.667 -14.5 110.834 -43.5 138.501s-71.167 41.5 -126.5 41.5c-40 0 -86.667 -13.333 -140 -40zM409.999 79.9971l0.000976562 185c-50.667 -2.66699 -94.167 -6.83398 -130.5 -12.501
s-70.333 -14.167 -102 -25.5s-55.5 -26.666 -71.5 -45.999s-24 -43 -24 -71c0 -33.333 13.167 -59.166 39.5 -77.499s59.166 -27.5 98.499 -27.5c33.333 0 67.333 7.16699 102 21.5s64 32.166 88 53.499z" />
    <glyph glyph-name="uni0431" unicode="&#x431;" horiz-adv-x="620" 
d="M500 710l0.000976562 -10.001l-5 -5c-26.667 -6.66699 -48.334 -10 -65.001 -10c-13.333 0 -33.333 1.66699 -60 5s-46.667 5 -60 5c-57.333 0 -106.833 -30.167 -148.5 -90.5s-63.834 -140.166 -66.501 -239.499c22.667 28.667 53.167 52.5 91.5 71.5
s82.833 28.5 133.5 28.5c63.333 0 117.5 -23.167 162.5 -69.5s67.5 -101.5 67.5 -165.5c0 -68 -22.333 -125.833 -67 -173.5s-99 -71.5 -163 -71.5c-74.667 0 -135 28.667 -181 86s-69 145.333 -69 264c0 117.333 23.5 210 70.5 278s103.5 102 169.5 102
c16 0 37.333 -1.66699 64 -5s45.334 -5 56.001 -5c23.333 0 45 3.33301 65 10zM95.001 329.999c0 -110 20.332 -191.668 60.999 -245.001s95.334 -80 164.001 -80c57.333 0 106.333 21.833 147 65.5s61 96.834 61 159.501c0 58 -20.333 108.333 -61 151s-89.667 64 -147 64
c-50.667 0 -95.5 -10.667 -134.5 -32s-69.167 -49 -90.5 -83z" />
    <glyph glyph-name="uni0432" unicode="&#x432;" horiz-adv-x="520" 
d="M105 470l195 -0.00292969c38.667 0 70 -11.667 94 -35s36 -51.666 36 -84.999c0 -27.333 -7.16699 -50.166 -21.5 -68.499s-30.5 -30.5 -48.5 -36.5c30.667 -5.33301 55 -18.666 73 -39.999s27 -48 27 -80c0 -36 -12.833 -65.833 -38.5 -89.5s-59.5 -35.5 -101.5 -35.5
h-215l-5 5v460zM120 449.997v-200h180c32 0 58.333 9.66699 79 29s31 43 31 71s-10.333 51.667 -31 71s-47 29 -79 29h-180zM120 229.997v-210h200c36.667 0 65.834 9.83301 87.501 29.5s32.5 44.834 32.5 75.501c0 31.333 -10.333 56.666 -31 75.999s-50.334 29 -89.001 29
h-200z" />
    <glyph glyph-name="uni0433" unicode="&#x433;" horiz-adv-x="440" 
d="M105 470h310l5 -5v-10l-5 -5h-295v-445l-5 -5h-10l-5 5v460z" />
    <glyph glyph-name="uni0434" unicode="&#x434;" horiz-adv-x="540" 
d="M160 470l255 0.000976562l5 -5v-445h75l5 -5v-150l-5 -5h-10l-5 5v135h-420v-135l-5 -5h-10l-5 5v150l5 5h30c21.333 21.333 36.333 59.666 45 114.999l35 330zM175 450.001l-35 -325c-12 -58 -23.667 -93 -35 -105h295v430h-225z" />
    <glyph glyph-name="uni0435" unicode="&#x435;" horiz-adv-x="550" 
d="M480 65l-0.000976562 -15.001c-16.667 -16.667 -41 -31.667 -73 -45s-64.333 -20 -97 -20c-75.333 0 -135.833 24.5 -181.5 73.5s-68.5 109.5 -68.5 181.5c0 69.333 21.167 127.5 63.5 174.5s97.833 70.5 166.5 70.5c45.333 0 83.833 -12 115.5 -36
s53.667 -51.667 66 -83s18.5 -63.333 18.5 -96c0 -9.33301 -1.66699 -17.666 -5 -24.999l-10 -5h-393c0 -66.667 20.833 -122.5 62.5 -167.5s96.834 -67.5 165.501 -67.5c61.333 0 116.333 21.667 165 65zM81.999 259.999h388
c-2.66699 61.333 -19.834 110.833 -51.501 148.5s-74.5 56.5 -128.5 56.5c-60.667 0 -109.167 -19.167 -145.5 -57.5s-57.166 -87.5 -62.499 -147.5z" />
    <glyph glyph-name="uni0436" unicode="&#x436;" horiz-adv-x="680" 
d="M335 470h10l5 -5v-205h117l145 205l10 5h13l5 -5l-155 -215l165 -245l-5 -5h-13l-10 5l-155 235h-117v-235l-5 -5h-10l-5 5v235h-117l-155 -235l-10 -5h-13l-5 5l165 245l-155 215l5 5h13l10 -5l145 -205h117v205z" />
    <glyph glyph-name="uni0437" unicode="&#x437;" horiz-adv-x="480" 
d="M80 430v16.001c26 14 49.5 24 70.5 30s47.5 9 79.5 9c54 0 95.833 -12.833 125.5 -38.5s44.5 -56.167 44.5 -91.5c0 -49.333 -26.667 -86 -80 -110c29.333 -8 53.333 -22 72 -42s28 -44.333 28 -73c0 -42.667 -16.167 -77.5 -48.5 -104.5s-79.5 -40.5 -141.5 -40.5
c-73.333 0 -130 15 -170 45v15l5 5c42.667 -30 97.667 -45 165 -45c53.333 0 94.666 11.833 123.999 35.5s44 53.5 44 89.5c0 26.667 -12 50 -36 70s-56.333 30 -97 30h-90l-5 5v10l5 5h75c34 0 63.833 9.66699 89.5 29s38.5 44.666 38.5 75.999
c0 30 -12.833 55.833 -38.5 77.5s-62.167 32.5 -109.5 32.5c-29.333 0 -53.666 -2.83301 -72.999 -8.5s-43.333 -16.167 -72 -31.5z" />
    <glyph glyph-name="uni0438" unicode="&#x438;" 
d="M105 470h10l5 -5v-435l354 435l10 5h10l6 -5v-460l-6 -5h-10l-4 5v435l-355 -435l-10 -5h-10l-5 5v460z" />
    <glyph glyph-name="uni0439" unicode="&#x439;" 
d="M105 470h10l5 -5v-435l354 435l10 5h10l6 -5v-460l-6 -5h-10l-4 5v435l-355 -435l-10 -5h-10l-5 5v460zM155 670h10l5 -5c4.66699 -39.333 18.667 -70 42 -92s52.666 -33 87.999 -33s64.666 11 87.999 33s37.333 52.667 42 92l5 5h10l5 -5
c-5.33301 -45.333 -21.166 -80.833 -47.499 -106.5s-60.5 -38.5 -102.5 -38.5s-76.167 12.833 -102.5 38.5s-42.166 61.167 -47.499 106.5z" />
    <glyph glyph-name="uni043A" unicode="&#x43a;" horiz-adv-x="500" 
d="M105 470h10l5 -5v-205h127l175 205l10 5h13l5 -5l-185 -215l205 -245l-5 -5h-13l-10 5l-195 235h-127v-235l-5 -5h-10l-5 5v460z" />
    <glyph glyph-name="uni043B" unicode="&#x43b;" horiz-adv-x="540" 
d="M180 470h255.002l5 -5v-460l-5 -5h-10l-5 5v445h-225l-45 -325c-8 -48 -19.833 -83.333 -35.5 -106s-38.834 -34 -69.501 -34l-5 7v8l5 5c41.333 0 69.666 43.333 84.999 130l45 330z" />
    <glyph glyph-name="uni043C" unicode="&#x43c;" horiz-adv-x="660" 
d="M105 470h10l10 -5l205 -260l205 260l10 5h10l5 -5v-460l-5 -5h-10l-5 5v430l-205 -255h-10l-205 255v-430l-5 -5h-10l-5 5v460z" />
    <glyph glyph-name="uni043D" unicode="&#x43d;" horiz-adv-x="580" 
d="M105 470h10l5 -5v-205h340v205l5 5h10l5 -5v-460l-5 -5h-10l-5 5v235h-340v-235l-5 -5h-10l-5 5v460z" />
    <glyph glyph-name="uni043E" unicode="&#x43e;" 
d="M300 485c67.333 0 124.166 -24.167 170.499 -72.5s69.5 -107.5 69.5 -177.5s-23.167 -129.167 -69.5 -177.5s-103.166 -72.5 -170.499 -72.5s-124.166 24.167 -170.499 72.5s-69.5 107.5 -69.5 177.5s23.167 129.167 69.5 177.5s103.166 72.5 170.499 72.5zM300 465
c-60.667 0 -112.167 -22.167 -154.5 -66.5s-63.5 -98.833 -63.5 -163.5s21.167 -119.167 63.5 -163.5s93.833 -66.5 154.5 -66.5s112.167 22.167 154.5 66.5s63.5 98.833 63.5 163.5s-21.167 119.167 -63.5 163.5s-93.833 66.5 -154.5 66.5z" />
    <glyph glyph-name="uni043F" unicode="&#x43f;" horiz-adv-x="580" 
d="M105 470h370l5 -5v-460l-5 -5h-10l-5 5v445h-340v-445l-5 -5h-10l-5 5v460z" />
    <glyph glyph-name="uni0440" unicode="&#x440;" horiz-adv-x="620" 
d="M105 470h10l5 -5v-80c50 66.667 116.667 100 200 100c67.333 0 124.166 -24.167 170.499 -72.5s69.5 -107.5 69.5 -177.5s-23.167 -129.167 -69.5 -177.5s-103.166 -72.5 -170.499 -72.5c-83.333 0 -150 33.333 -200 100v-310l-5 -5h-10l-5 5v690zM120 350v-230
c20 -35.333 47.833 -63.333 83.5 -84s74.5 -31 116.5 -31c60.667 0 112.167 22.167 154.5 66.5s63.5 98.833 63.5 163.5s-21.167 119.167 -63.5 163.5s-93.833 66.5 -154.5 66.5c-42 0 -80.833 -10.333 -116.5 -31s-63.5 -48.667 -83.5 -84z" />
    <glyph glyph-name="uni0441" unicode="&#x441;" horiz-adv-x="530" 
d="M470 420l-5 -5c-46 33.333 -97.667 50 -155 50c-64.667 0 -118.834 -22 -162.501 -66s-65.5 -98.667 -65.5 -164s21.833 -120 65.5 -164s97.834 -66 162.501 -66c57.333 0 109 16.667 155 50l5 -5v-15c-44.667 -33.333 -98 -50 -160 -50c-73.333 0 -133.333 24 -180 72
s-70 107.333 -70 178s23.333 130 70 178s106.667 72 180 72c62 0 115.333 -16.667 160 -50v-15z" />
    <glyph glyph-name="uni0442" unicode="&#x442;" horiz-adv-x="480" 
d="M25 470h430l5 -5v-10l-5 -5h-205v-445l-5 -5h-10l-5 5v445h-205l-5 5v10z" />
    <glyph glyph-name="uni0443" unicode="&#x443;" horiz-adv-x="500" 
d="M35 470h9.99902l10 -5l200 -385l190 385l10 5h10l5 -5l-290 -585c-22 -42 -43.5 -72.5 -64.5 -91.5s-47.833 -28.5 -80.5 -28.5l-5 7v8l5 5c25.333 0 46.833 8.5 64.5 25.5s37.834 45.167 60.501 84.5l80 165l-210 410z" />
    <glyph glyph-name="uni0444" unicode="&#x444;" horiz-adv-x="660" 
d="M325 700h10l5 -5v-210c78.667 -2.66699 141.667 -28.667 189 -78s71 -106.666 71 -171.999c0 -64.667 -24.5 -121.834 -73.5 -171.501s-111.167 -75.834 -186.5 -78.501v-210l-5 -5h-10l-5 5v210c-75.333 2.66699 -137.5 28.834 -186.5 78.501
s-73.5 106.834 -73.5 171.501c0 65.333 23.667 122.666 71 171.999s110.333 75.333 189 78v210zM320 5v460.001c-72 -2.66699 -129.667 -26.5 -173 -71.5s-65 -97.833 -65 -158.5c0 -59.333 22.667 -111.833 68 -157.5s102 -69.834 170 -72.501zM340 465.001v-460.001
c68 2.66699 124.667 26.834 170 72.501s68 98.167 68 157.5c0 60.667 -21.667 113.5 -65 158.5s-101 68.833 -173 71.5z" />
    <glyph glyph-name="uni0445" unicode="&#x445;" horiz-adv-x="440" 
d="M45 470h10l10 -5l155 -210l155 210l10 5h10l5 -5l-167 -225l177 -235l-5 -5h-10l-10 5l-165 220l-165 -220l-10 -5h-10l-5 5l177 235l-167 225z" />
    <glyph glyph-name="uni0446" unicode="&#x446;" 
d="M105 470h10l5 -5v-445h340v445l5 5h10l5 -5v-445h75l5 -5v-150l-5 -5h-10l-5 5v135h-435l-5 5v460z" />
    <glyph glyph-name="uni0447" unicode="&#x447;" horiz-adv-x="520" 
d="M75 470l10 -0.000976562l5 -5v-85c0 -110 56.667 -165 170 -165c25.333 0 51.833 4.33301 79.5 13s47.834 19.334 60.501 32.001v205l5 5h10l5 -5v-460l-5 -5h-10l-5 5v230c-16.667 -12 -38.334 -21.667 -65.001 -29s-51.667 -11 -75 -11c-126.667 0 -190 60 -190 180v90
z" />
    <glyph glyph-name="uni0448" unicode="&#x448;" horiz-adv-x="800" 
d="M105 470h10l5 -5v-445h270v445l5 5h10l5 -5v-445h270v445l5 5h10l5 -5v-460l-5 -5h-590l-5 5v460z" />
    <glyph glyph-name="uni0449" unicode="&#x449;" horiz-adv-x="820" 
d="M105 470h10l5 -5v-445h270v445l5 5h10l5 -5v-445h270v445l5 5h10l5 -5v-445h75l5 -5v-150l-5 -5h-10l-5 5v135h-655l-5 5v460z" />
    <glyph glyph-name="uni044A" unicode="&#x44a;" horiz-adv-x="540" 
d="M35 470h160l5 -5v-185h110c54 0 95.833 -12.5 125.5 -37.5s44.5 -59.167 44.5 -102.5s-14.833 -77.5 -44.5 -102.5s-71.5 -37.5 -125.5 -37.5h-125l-5 5v445h-145l-5 5v10zM200 260v-240h110c48 0 84.667 11 110 33s38 51 38 87s-12.667 65 -38 87s-62 33 -110 33h-110z
" />
    <glyph glyph-name="uni044B" unicode="&#x44b;" horiz-adv-x="620" 
d="M105 470h10l5 -5v-185h110c54 0 95.833 -12.5 125.5 -37.5s44.5 -59.167 44.5 -102.5s-14.833 -77.5 -44.5 -102.5s-71.5 -37.5 -125.5 -37.5h-125l-5 5v460zM120 260v-240.002h110c48.667 0 85.5 10.833 110.5 32.5s37.5 50.834 37.5 87.501s-12.5 65.834 -37.5 87.501
s-61.833 32.5 -110.5 32.5h-110zM505 469.998h10l5 -5v-460l-5 -5h-10l-5 5v460z" />
    <glyph glyph-name="uni044C" unicode="&#x44c;" horiz-adv-x="480" 
d="M105 470h10l5 -5v-185h130c54 0 95.833 -12.5 125.5 -37.5s44.5 -59.167 44.5 -102.5s-14.833 -77.5 -44.5 -102.5s-71.5 -37.5 -125.5 -37.5h-145l-5 5v460zM120 260v-240.002h130c48.667 0 85.5 10.833 110.5 32.5s37.5 50.834 37.5 87.501s-12.5 65.834 -37.5 87.501
s-61.833 32.5 -110.5 32.5h-130z" />
    <glyph glyph-name="uni044D" unicode="&#x44d;" horiz-adv-x="540" 
d="M70 420v15c44.667 33.333 98 50 160 50c73.333 0 133.333 -24 180 -72s70 -107.333 70 -178s-23.333 -130 -70 -178s-106.667 -72 -180 -72c-62 0 -115.333 16.667 -160 50v15l5 5c46 -33.333 97.667 -50 155 -50c63.333 0 116.5 21 159.5 63s65.833 94.333 68.5 157
h-283l-5 5v10l5 5h283c-2.66699 62.667 -25.5 115 -68.5 157s-96.167 63 -159.5 63c-57.333 0 -109 -16.667 -155 -50z" />
    <glyph glyph-name="uni044E" unicode="&#x44e;" horiz-adv-x="820" 
d="M105 470h10.001l5 -5v-215h150c4 66.667 29.5 122.5 76.5 167.5s103.167 67.5 168.5 67.5c68 0 125.833 -24.167 173.5 -72.5s71.5 -107.5 71.5 -177.5s-23.833 -129.167 -71.5 -177.5s-105.5 -72.5 -173.5 -72.5c-67.333 0 -124.833 23.667 -172.5 71
s-71.834 105.333 -72.501 174h-150v-225l-5 -5h-10l-5 5v460zM515.001 465c-60.667 0 -113 -22.333 -157 -67s-66 -99 -66 -163s22 -118.333 66 -163s96.333 -67 157 -67s113 22.333 157 67s66 99 66 163s-22 118.333 -66 163s-96.333 67 -157 67z" />
    <glyph glyph-name="uni044F" unicode="&#x44f;" horiz-adv-x="500" 
d="M395 470l4.99902 -5v-460l-5 -5h-10l-5 5v185h-200l-123 -185l-10 -5h-12l-5 5l130 190c-66.667 22 -100 67 -100 135c0 44.667 14.833 79.167 44.5 103.5s69.834 36.5 120.501 36.5h170zM379.999 450l-155 -0.00195312c-44.667 0 -79.667 -10.667 -105 -32
s-38 -50.666 -38 -87.999c0 -39.333 12.333 -69.166 37 -89.499s60 -30.5 106 -30.5h155v240z" />
    <glyph glyph-name="uni0450" unicode="&#x450;" horiz-adv-x="550" 
d="M480 65l-0.000976562 -15.001c-16.667 -16.667 -41 -31.667 -73 -45s-64.333 -20 -97 -20c-75.333 0 -135.833 24.5 -181.5 73.5s-68.5 109.5 -68.5 181.5c0 69.333 21.167 127.5 63.5 174.5s97.833 70.5 166.5 70.5c45.333 0 83.833 -12 115.5 -36
s53.667 -51.667 66 -83s18.5 -63.333 18.5 -96c0 -9.33301 -1.66699 -17.666 -5 -24.999l-10 -5h-393c0 -66.667 20.833 -122.5 62.5 -167.5s96.834 -67.5 165.501 -67.5c61.333 0 116.333 21.667 165 65zM81.999 259.999h388
c-2.66699 61.333 -19.834 110.833 -51.501 148.5s-74.5 56.5 -128.5 56.5c-60.667 0 -109.167 -19.167 -145.5 -57.5s-57.166 -87.5 -62.499 -147.5zM173.999 669.999h16l10 -5l145 -145l-5 -5h-10l-10 5l-150 145z" />
    <glyph glyph-name="uni0451" unicode="&#x451;" horiz-adv-x="550" 
d="M480 65l-0.000976562 -15.001c-16.667 -16.667 -41 -31.667 -73 -45s-64.333 -20 -97 -20c-75.333 0 -135.833 24.5 -181.5 73.5s-68.5 109.5 -68.5 181.5c0 69.333 21.167 127.5 63.5 174.5s97.833 70.5 166.5 70.5c45.333 0 83.833 -12 115.5 -36
s53.667 -51.667 66 -83s18.5 -63.333 18.5 -96c0 -9.33301 -1.66699 -17.666 -5 -24.999l-10 -5h-393c0 -66.667 20.833 -122.5 62.5 -167.5s96.834 -67.5 165.501 -67.5c61.333 0 116.333 21.667 165 65zM81.999 259.999h388
c-2.66699 61.333 -19.834 110.833 -51.501 148.5s-74.5 56.5 -128.5 56.5c-60.667 0 -109.167 -19.167 -145.5 -57.5s-57.166 -87.5 -62.499 -147.5zM174.999 629.999h10l25 -25v-10l-25 -25h-10l-25 25v10zM394.999 629.999h10l25 -25v-10l-25 -25h-10l-25 25v10z" />
    <glyph glyph-name="uni0452" unicode="&#x452;" 
d="M105 700h9.99707l5 -5v-120h255l5 -5v-10l-5 -5h-255v-210c22.667 30.667 50.834 55 84.501 73s68.834 27 105.501 27c133.333 0 200 -80 200 -240v-315c0 -103.333 -35 -155 -105 -155c-23.333 0 -41.666 3.33301 -54.999 10v15l5 5c13.333 -6.66699 30 -10 50 -10
c56.667 0 85 46.667 85 140v305c0 76 -14.5 132.5 -43.5 169.5s-74.5 55.5 -136.5 55.5c-37.333 0 -73.333 -10.5 -108 -31.5s-62 -48.833 -82 -83.5v-305l-5 -5h-10l-5 5v550h-75l-5 5v10l5 5h75v120z" />
    <glyph glyph-name="uni0453" unicode="&#x453;" horiz-adv-x="440" 
d="M360 670h16l4 -5l-150 -145l-10 -5h-10l-5 5l145 145zM105 470h310l5 -5v-10l-5 -5h-295v-445l-5 -5h-10l-5 5v460z" />
    <glyph glyph-name="uni0454" unicode="&#x454;" horiz-adv-x="530" 
d="M470 420l-5 -5c-46 33.333 -97.667 50 -155 50c-63.333 0 -116.5 -21 -159.5 -63s-65.833 -94.333 -68.5 -157h283l5 -5v-10l-5 -5h-283c2.66699 -62.667 25.5 -115 68.5 -157s96.167 -63 159.5 -63c57.333 0 109 16.667 155 50l5 -5v-15
c-44.667 -33.333 -98 -50 -160 -50c-73.333 0 -133.333 24 -180 72s-70 107.333 -70 178s23.333 130 70 178s106.667 72 180 72c62 0 115.333 -16.667 160 -50v-15z" />
    <glyph glyph-name="uni0455" unicode="&#x455;" horiz-adv-x="460" 
d="M380 428l-5.00195 -5.00391c-44 28 -94 42 -150 42c-37.333 0 -68.833 -10 -94.5 -30s-38.5 -45 -38.5 -75c0 -24.667 10.5 -44.667 31.5 -60s46.667 -27.166 77 -35.499l91 -26c30.333 -9 56 -22.833 77 -41.5s31.5 -42.667 31.5 -72
c0 -39.333 -17.167 -72.5 -51.5 -99.5s-75.5 -40.5 -123.5 -40.5c-62 0 -115.333 13.333 -160 40v17l5 5c41.333 -28 93 -42 155 -42c42.667 0 78.834 11.333 108.501 34s44.5 51.334 44.5 86.001c0 24.667 -10.5 44.834 -31.5 60.501s-46.667 27.834 -77 36.501l-91 26.5
c-30.333 9 -56 22.667 -77 41s-31.5 41.833 -31.5 70.5c0 34.667 15.167 64.167 45.5 88.5s66.833 36.5 109.5 36.5c60.667 0 112.334 -13.333 155.001 -40v-17z" />
    <glyph glyph-name="uni0456" unicode="&#x456;" horiz-adv-x="220" 
d="M105 470h10l5 -5v-460l-5 -5h-10l-5 5v460zM105 630h10l25 -25v-10l-25 -25h-10l-25 25v10z" />
    <glyph glyph-name="uni0457" unicode="&#x457;" horiz-adv-x="220" 
d="M105 470h10l5 -5v-460l-5 -5h-10l-5 5v460zM15 630h10l25 -25v-10l-25 -25h-10l-25 25v10zM195 630h10l25 -25v-10l-25 -25h-10l-25 25v10z" />
    <glyph glyph-name="uni0458" unicode="&#x458;" horiz-adv-x="220" 
d="M105 470h9.99902l5 -5v-575c0 -103.333 -35 -155 -105 -155c-23.333 0 -41.666 3.33301 -54.999 10v15l5 5c13.333 -6.66699 30 -10 50 -10c56.667 0 85 46.667 85 140v570zM104.999 630h10l25 -25v-10l-25 -25h-10l-25 25v10z" />
    <glyph glyph-name="uni0459" unicode="&#x459;" horiz-adv-x="740" 
d="M180 470h235.002l5 -5v-185h90c54 0 95.833 -12.5 125.5 -37.5s44.5 -59.167 44.5 -102.5s-14.833 -77.5 -44.5 -102.5s-71.5 -37.5 -125.5 -37.5h-105l-5 5v445h-205l-45 -325c-8 -48 -19.833 -83.333 -35.5 -106s-38.834 -34 -69.501 -34l-5 7v8l5 5
c41.333 0 69.666 43.333 84.999 130l45 330zM420.002 260v-240.002h90c48.667 0 85.5 10.833 110.5 32.5s37.5 50.834 37.5 87.501s-12.5 65.834 -37.5 87.501s-61.833 32.5 -110.5 32.5h-90z" />
    <glyph glyph-name="uni045A" unicode="&#x45a;" horiz-adv-x="800" 
d="M105 470l10 0.00195312l5 -5v-195h340v195l5 5h10l5 -5v-195h90c54.667 0 96.667 -11.833 126 -35.5s44 -56.834 44 -99.501s-14.667 -75.834 -44 -99.501s-71.333 -35.5 -126 -35.5h-105l-5 5v245h-340v-245l-5 -5h-10l-5 5v460zM480 250.002v-230h90
c48.667 0 85.5 10.167 110.5 30.5s37.5 48.5 37.5 84.5s-12.5 64.167 -37.5 84.5s-61.833 30.5 -110.5 30.5h-90z" />
    <glyph glyph-name="uni045B" unicode="&#x45b;" 
d="M105 700h9.99805l5 -5v-120h255l5 -5v-10l-5 -5h-255v-210c22.667 30.667 50.834 55 84.501 73s68.834 27 105.501 27c133.333 0 200 -80 200 -240v-200l-5 -5h-10l-5 5v195c0 76 -14.5 132.5 -43.5 169.5s-74.5 55.5 -136.5 55.5c-37.333 0 -73.333 -10.5 -108 -31.5
s-62 -48.833 -82 -83.5v-305l-5 -5h-10l-5 5v550h-75l-5 5v10l5 5h75v120z" />
    <glyph glyph-name="uni045C" unicode="&#x45c;" horiz-adv-x="500" 
d="M380 670h16l4 -5l-150 -145l-10 -5h-10l-5 5l145 145zM105 470h10l5 -5v-205h127l175 205l10 5h13l5 -5l-185 -215l205 -245l-5 -5h-13l-10 5l-195 235h-127v-235l-5 -5h-10l-5 5v460z" />
    <glyph glyph-name="uni045D" unicode="&#x45d;" 
d="M105 470h10l5 -5v-435l354 435l10 5h10l6 -5v-460l-6 -5h-10l-4 5v435l-355 -435l-10 -5h-10l-5 5v460zM184 670h16l10 -5l145 -145l-5 -5h-10l-10 5l-150 145z" />
    <glyph glyph-name="uni045E" unicode="&#x45e;" horiz-adv-x="500" 
d="M35 470h9.99902l10 -5l200 -385l190 385l10 5h10l5 -5l-290 -585c-22 -42 -43.5 -72.5 -64.5 -91.5s-47.833 -28.5 -80.5 -28.5l-5 7v8l5 5c25.333 0 46.833 8.5 64.5 25.5s37.834 45.167 60.501 84.5l80 165l-210 410zM109.999 670h10l5 -5
c4.66699 -39.333 18.667 -70 42 -92s52.666 -33 87.999 -33s64.666 11 87.999 33s37.333 52.667 42 92l5 5h10l5 -5c-5.33301 -45.333 -21.166 -80.833 -47.499 -106.5s-60.5 -38.5 -102.5 -38.5s-76.167 12.833 -102.5 38.5s-42.166 61.167 -47.499 106.5z" />
    <glyph glyph-name="uni045F" unicode="&#x45f;" horiz-adv-x="580" 
d="M105 470h10l5 -5v-445h340v445l5 5h10l5 -5v-460l-5 -5h-175v-135l-5 -5h-10l-5 5v135h-175l-5 5v460z" />
    <glyph glyph-name="uni0460" unicode="&#x460;" horiz-adv-x="1000" 
d="M215 700h15l5 -5c-95.333 -116.667 -143 -241.667 -143 -375c0 -98 22.167 -175 66.5 -231s103.166 -84 176.499 -84c36.667 0 71.667 12 105 36s50 58.667 50 104v351l4 4h12l4 -4v-351c0 -45.333 16.667 -80 50 -104s68.333 -36 105 -36
c73.333 0 132.166 28 176.499 84s66.5 133 66.5 231c0 133.333 -47.667 258.333 -143 375l5 5h15l10 -5c90 -116.667 135 -241.667 135 -375c0 -102.667 -24.5 -184.167 -73.5 -244.5s-112.833 -90.5 -191.5 -90.5c-37.333 0 -70.666 8.83301 -99.999 26.5
s-51 38.834 -65 63.501c-14 -24.667 -35.667 -45.834 -65 -63.501s-62.666 -26.5 -99.999 -26.5c-78.667 0 -142.5 30.167 -191.5 90.5s-73.5 141.833 -73.5 244.5c0 133.333 45 258.333 135 375z" />
    <glyph glyph-name="uni0461" unicode="&#x461;" horiz-adv-x="820" 
d="M404 370h11.998l4 -4v-221c0 -46 13.833 -80.833 41.5 -104.5s58.834 -35.5 93.501 -35.5c52.667 0 94.667 20.833 126 62.5s47 97.5 47 167.5c0 64.667 -21 141.667 -63 231l4 4h17l4 -4c21.333 -49.333 36.666 -90.666 45.999 -123.999s14 -69 14 -107
c0 -78 -17 -139.167 -51 -183.5s-82 -66.5 -144 -66.5c-63.333 0 -111.666 30 -144.999 90c-33.333 -60 -81.666 -90 -144.999 -90c-62 0 -110 22.167 -144 66.5s-51 105.5 -51 183.5c0 38 4.66699 73.667 14 107s24.666 74.666 45.999 123.999l4 4h17l4 -4
c-42 -89.333 -63 -166.333 -63 -231c0 -70 15.667 -125.833 47 -167.5s73.333 -62.5 126 -62.5c34.667 0 65.834 11.833 93.501 35.5s41.5 58.5 41.5 104.5v221z" />
    <glyph glyph-name="uni0462" unicode="&#x462;" horiz-adv-x="760" 
d="M245 740l10 0.000976562l5 -5v-135h305l5 -5v-10l-5 -5h-305v-185h185c74.667 0 132.5 -17.333 173.5 -52s61.5 -82.334 61.5 -143.001s-20.667 -109.167 -62 -145.5s-99 -54.5 -173 -54.5h-200l-5 5v575h-185l-5 5v10l5 5h185v135zM260 375.001l-0.000976562 -354.999
h185c66 0 118 16.667 156 50s57 76.666 57 129.999c0 55.333 -18.667 98.333 -56 129s-89.666 46 -156.999 46h-185z" />
    <glyph glyph-name="uni0463" unicode="&#x463;" horiz-adv-x="580" 
d="M205 700h10l5 -5v-215h165l5 -5v-10l-5 -5h-165v-180h130c54 0 95.833 -12.5 125.5 -37.5s44.5 -59.167 44.5 -102.5s-14.833 -77.5 -44.5 -102.5s-71.5 -37.5 -125.5 -37.5h-145l-5 5v455h-145l-5 5v10l5 5h145v215zM220 260v-240.002h130
c48.667 0 85.5 10.833 110.5 32.5s37.5 50.834 37.5 87.501s-12.5 65.834 -37.5 87.501s-61.833 32.5 -110.5 32.5h-130z" />
    <glyph glyph-name="uni0464" unicode="&#x464;" horiz-adv-x="1080" 
d="M105 700h10.001l5 -5v-320h171c6.66699 94.667 45.334 175 116.001 241s155 99 253 99c90.667 0 170.667 -25 240 -75v-20l-5 -5c-68 53.333 -146.333 80 -235 80c-92 0 -171.333 -30.833 -238 -92.5s-103.334 -137.5 -110.001 -227.5h403l5 -5v-10l-5 -5h-403
c0 -97.333 34.167 -180 102.5 -248s150.166 -102 245.499 -102c88.667 0 167 26.667 235 80l5 -5v-20c-69.333 -50 -149.333 -75 -240 -75c-104 0 -191.667 36.167 -263 108.5s-107 159.5 -107 261.5h-170v-350l-5 -5h-10l-5 5v690z" />
    <glyph glyph-name="uni0465" unicode="&#x465;" horiz-adv-x="740" 
d="M105 470l10 -0.000976562l5 -5v-220h150c2 68 26.167 125 72.5 171s105.5 69 177.5 69c62 0 115.333 -16.667 160 -50v-15l-5 -5c-46 33.333 -97.667 50 -155 50c-63.333 0 -116.5 -21 -159.5 -63s-65.833 -94.333 -68.5 -157h283l5 -5v-10l-5 -5h-283
c2.66699 -62.667 25.5 -115 68.5 -157s96.167 -63 159.5 -63c57.333 0 109 16.667 155 50l5 -5v-15c-44.667 -33.333 -98 -50 -160 -50c-72 0 -131.167 22.833 -177.5 68.5s-70.5 102.834 -72.5 171.501h-150v-220l-5 -5h-10l-5 5v460z" />
    <glyph glyph-name="uni0466" unicode="&#x466;" horiz-adv-x="640" 
d="M310 700h20l5 -5l275 -690l-5 -5h-10l-5 5l-97 240h-163v-240l-5 -5h-10l-5 5v240h-163l-97 -240l-5 -5h-10l-5 5l275 690zM320 680l-165 -415h330z" />
    <glyph glyph-name="uni0467" unicode="&#x467;" horiz-adv-x="460" 
d="M220 470h20l5 -5l185 -460l-5 -5h-13l-5 5l-70 170h-97v-170l-5 -5h-10l-5 5v170h-97l-70 -170l-5 -5h-13l-5 5l185 460zM230 450l-100 -255h200z" />
    <glyph glyph-name="uni0468" unicode="&#x468;" horiz-adv-x="840" 
d="M105 700h10l5 -5v-300h265l120 300l5 5h20l5 -5l275 -690l-5 -5h-10l-5 5l-97 240h-163v-240l-5 -5h-10l-5 5v240h-163l-97 -240l-5 -5h-10l-5 5l147 370h-257v-370l-5 -5h-10l-5 5v690zM520 680l-165 -415h330z" />
    <glyph glyph-name="uni0469" unicode="&#x469;" horiz-adv-x="640" 
d="M105 470h10l5 -5v-215h188l87 215l5 5h20l5 -5l185 -460l-5 -5h-13l-5 5l-70 170h-97v-170l-5 -5h-10l-5 5v170h-97l-70 -170l-5 -5h-13l-5 5l90 225h-180v-225l-5 -5h-10l-5 5v460zM410 450l-100 -255h200z" />
    <glyph glyph-name="uni046A" unicode="&#x46a;" horiz-adv-x="700" 
d="M65 700h570l5 -5l-275 -305l305 -385l-5 -5h-15l-10 5l-280 360v-360l-5 -5h-10l-5 5v360l-280 -360l-10 -5h-15l-5 5l305 385l-275 305zM105 680l245 -275l245 275h-490z" />
    <glyph glyph-name="uni046B" unicode="&#x46b;" horiz-adv-x="480" 
d="M35 470h410l5 -5l-195 -215l195 -245l-5 -5h-15l-10 5l-170 220v-220l-5 -5h-10l-5 5v220l-170 -220l-10 -5h-15l-5 5l195 245l-195 215zM74 450l166 -185l166 185h-332z" />
    <glyph glyph-name="uni046C" unicode="&#x46c;" horiz-adv-x="900" 
d="M105 700h10l5 -5v-300h370l-270 300l5 5h570l5 -5l-275 -305l305 -385l-5 -5h-15l-10 5l-280 360v-360l-5 -5h-10l-5 5v360l-280 -360l-10 -5h-15l-5 5l293 370h-363v-370l-5 -5h-10l-5 5v690zM264 680l246 -275l246 275h-492z" />
    <glyph glyph-name="uni046D" unicode="&#x46d;" horiz-adv-x="640" 
d="M105 470h10l5 -5v-215h256l-186 215l5 5h410l5 -5l-195 -225l195 -235l-5 -5h-15l-10 5l-170 210v-210l-5 -5h-10l-5 5v210l-170 -210l-10 -5h-15l-5 5l186 225h-256v-225l-5 -5h-10l-5 5v460zM234 450l166 -195l166 195h-332z" />
    <glyph glyph-name="uni046E" unicode="&#x46e;" horiz-adv-x="570" 
d="M130 876h10l10 -5l110 -115l110 115l10 5h10l5 -5l-120 -125l-10 -5h-10l-10 7l-120 123zM80 610l-10.0039 10.001c20.667 28.667 47.834 51.667 81.501 69s69.834 26 108.501 26c60 0 110 -18.833 150 -56.5s60 -83.834 60 -138.501c0 -32.667 -8.66699 -61.5 -26 -86.5
s-38.666 -44.5 -63.999 -58.5c36.667 -10.667 67.5 -31.5 92.5 -62.5s37.5 -66.833 37.5 -107.5c0 -62 -23.333 -114.167 -70 -156.5s-106.667 -63.5 -180 -63.5h-135l35 -160l-5 -5h-10l-5 5l-40 175l5 5h155c66.667 0 121.334 19.333 164.001 58s64 86 64 142
c0 40 -15 75.833 -45 107.5s-67.667 47.5 -113 47.5h-125l-5 5v10l5 5h115c29.333 0 58 13.833 86 41.5s42 60.5 42 98.5c0 49.333 -17.833 90.833 -53.5 124.5s-80.5 50.5 -134.5 50.5c-69.333 0 -126 -28.333 -170 -85h-10z" />
    <glyph glyph-name="uni046F" unicode="&#x46f;" horiz-adv-x="480" 
d="M100 670h10l10 -5l110 -135l110 135l10 5h10l5 -5l-120 -145l-10 -5h-10l-10 5l-120 145zM80 430v16.001c26 14 49.5 24 70.5 30s47.5 9 79.5 9c54 0 95.833 -12.833 125.5 -38.5s44.5 -56.167 44.5 -91.5c0 -49.333 -26.667 -86 -80 -110c29.333 -8 53.333 -22 72 -42
s28 -44.333 28 -73c0 -42.667 -16.167 -77.5 -48.5 -104.5s-79.5 -40.5 -141.5 -40.5h-95l30 -140l-5 -5h-10l-5 5l-35 155l5 5h115c53.333 0 94.666 11.833 123.999 35.5s44 53.5 44 89.5c0 26.667 -12 50 -36 70s-56.333 30 -97 30h-90l-5 5v10l5 5h75
c34 0 63.833 9.66699 89.5 29s38.5 44.666 38.5 75.999c0 30 -12.833 55.833 -38.5 77.5s-62.167 32.5 -109.5 32.5c-29.333 0 -53.666 -2.83301 -72.999 -8.5s-43.333 -16.167 -72 -31.5z" />
    <glyph glyph-name="uni0470" unicode="&#x470;" horiz-adv-x="700" 
d="M85 700h10.002l5 -5v-115c0 -94.667 21.167 -168.5 63.5 -221.5s101.166 -80.833 176.499 -83.5v420l5 5h10l5 -5v-420c75.333 2.66699 134.166 30.5 176.499 83.5s63.5 126.833 63.5 221.5v115l5 5h10l5 -5v-115c0 -100 -22.667 -178.5 -68 -235.5
s-109.333 -86.833 -192 -89.5v-250l-5 -5h-10l-5 5v250c-82.667 2.66699 -146.667 32.5 -192 89.5s-68 135.5 -68 235.5v115z" />
    <glyph glyph-name="uni0471" unicode="&#x471;" 
d="M95 470l11 0.00195312l4 -4v-250c0 -66 16 -117.667 48 -155s77.667 -56 137 -56v691l4 4h12l4 -4v-691c54 0 98 21.167 132 63.5s51 101.166 51 176.499c0 71.333 -13.333 145 -40 221l4 4h14l4 -4c26.667 -88 40 -161.667 40 -221c0 -80 -19.333 -143.333 -58 -190
s-87.667 -70 -147 -70v-211l-4 -4h-12l-4 4v211c-66 0 -116.667 20.167 -152 60.5s-53 95.166 -53 164.499v256z" />
    <glyph glyph-name="uni0472" unicode="&#x472;" horiz-adv-x="880" 
d="M440 715c102 0 189.167 -35.667 261.5 -107s108.5 -157.333 108.5 -258s-36.167 -186.667 -108.5 -258s-159.5 -107 -261.5 -107s-189.167 35.667 -261.5 107s-108.5 157.333 -108.5 258s36.167 186.667 108.5 258s159.5 107 261.5 107zM92 375h695
c-6 87.333 -42.167 162.5 -108.5 225.5s-145.833 94.5 -238.5 94.5s-172.167 -31.5 -238.5 -94.5s-102.833 -138.167 -109.5 -225.5zM788 355h-695.998c1.33301 -98.667 36.166 -181.667 104.499 -249s149.5 -101 243.5 -101s175.167 33.667 243.5 101
s103.166 150.333 104.499 249z" />
    <glyph glyph-name="uni0473" unicode="&#x473;" 
d="M300 485c67.333 0 124.166 -24.167 170.499 -72.5s69.5 -107.5 69.5 -177.5s-23.167 -129.167 -69.5 -177.5s-103.166 -72.5 -170.499 -72.5s-124.166 24.167 -170.499 72.5s-69.5 107.5 -69.5 177.5s23.167 129.167 69.5 177.5s103.166 72.5 170.499 72.5zM82 245h436
c-2.66699 62 -25 114.167 -67 156.5s-92.333 63.5 -151 63.5s-109 -21.167 -151 -63.5s-64.333 -94.5 -67 -156.5zM518 225h-436c2.66699 -62 25 -114.167 67 -156.5s92.333 -63.5 151 -63.5s109 21.167 151 63.5s64.333 94.5 67 156.5z" />
    <glyph glyph-name="uni0474" unicode="&#x474;" horiz-adv-x="680" 
d="M35 700h9.99902l5 -5l260 -675l205 550c18.667 49.333 38.334 85.833 59.001 109.5s47.667 35.5 81 35.5l5 -5v-10l-5 -5c-26 0 -48.5 -11 -67.5 -33s-36.5 -54.333 -52.5 -97l-210 -560l-5 -5h-20l-5 5l-265 690z" />
    <glyph glyph-name="uni0475" unicode="&#x475;" horiz-adv-x="540" 
d="M35 470h9.99902l5 -5l200 -445l135 320c18.667 49.333 38.334 85.833 59.001 109.5s47.667 35.5 81 35.5l5 -5v-10l-5 -5c-26 0 -48.5 -11 -67.5 -33s-36.5 -54.333 -52.5 -97l-140 -330l-5 -5h-20l-5 5l-205 460z" />
    <glyph glyph-name="uni0476" unicode="&#x476;" horiz-adv-x="680" 
d="M35 700h9.99902l5 -5l260 -675l205 550c18.667 49.333 38.334 85.833 59.001 109.5s47.667 35.5 81 35.5l5 -5v-10l-5 -5c-26 0 -48.5 -11 -67.5 -33s-36.5 -54.333 -52.5 -97l-210 -560l-5 -5h-20l-5 5l-265 690zM99.999 875h15l10 -5l95 -125l-5 -5h-10l-10 5l-100 125
zM309.999 875h15l10 -5l95 -125l-5 -5h-10l-10 5l-100 125z" />
    <glyph glyph-name="uni0477" unicode="&#x477;" horiz-adv-x="540" 
d="M60 670h15l10 -5l90 -145l-5 -5h-10l-10 5l-95 145zM250 670h15l10 -5l90 -145l-5 -5h-10l-10 5l-95 145zM35 470h9.99902l5 -5l200 -445l135 320c18.667 49.333 38.334 85.833 59.001 109.5s47.667 35.5 81 35.5l5 -5v-10l-5 -5c-26 0 -48.5 -11 -67.5 -33
s-36.5 -54.333 -52.5 -97l-140 -330l-5 -5h-20l-5 5l-205 460z" />
    <glyph glyph-name="uni0478" unicode="&#x478;" horiz-adv-x="1380" 
d="M440 715c102 0 189.167 -35.667 261.5 -107s108.5 -157.333 108.5 -258s-36.167 -186.667 -108.5 -258s-159.5 -107 -261.5 -107s-189.167 35.667 -261.5 107s-108.5 157.333 -108.5 258s36.167 186.667 108.5 258s159.5 107 261.5 107zM440 695
c-95.333 0 -177.166 -33.833 -245.499 -101.5s-102.5 -148.834 -102.5 -243.501s34.167 -175.834 102.5 -243.501s150.166 -101.5 245.499 -101.5s177.166 33.833 245.499 101.5s102.5 148.834 102.5 243.501s-34.167 175.834 -102.5 243.501s-150.166 101.5 -245.499 101.5
zM915 470h9.99902l10 -5l200 -385l190 385l10 5h10l5 -5l-290 -585c-22 -42 -43.5 -72.5 -64.5 -91.5s-47.833 -28.5 -80.5 -28.5l-5 7v8l5 5c25.333 0 46.833 8.5 64.5 25.5s37.834 45.167 60.501 84.5l80 165l-210 410z" />
    <glyph glyph-name="uni0479" unicode="&#x479;" horiz-adv-x="1060" 
d="M300 485c67.333 0 124.166 -24.167 170.499 -72.5s69.5 -107.5 69.5 -177.5s-23.167 -129.167 -69.5 -177.5s-103.166 -72.5 -170.499 -72.5s-124.166 24.167 -170.499 72.5s-69.5 107.5 -69.5 177.5s23.167 129.167 69.5 177.5s103.166 72.5 170.499 72.5zM300 465
c-60.667 0 -112.167 -22.167 -154.5 -66.5s-63.5 -98.833 -63.5 -163.5s21.167 -119.167 63.5 -163.5s93.833 -66.5 154.5 -66.5s112.167 22.167 154.5 66.5s63.5 98.833 63.5 163.5s-21.167 119.167 -63.5 163.5s-93.833 66.5 -154.5 66.5zM595 470h9.99902l10 -5l200 -385
l190 385l10 5h10l5 -5l-290 -585c-22 -42 -43.5 -72.5 -64.5 -91.5s-47.833 -28.5 -80.5 -28.5l-5 7v8l5 5c25.333 0 46.833 8.5 64.5 25.5s37.834 45.167 60.501 84.5l80 165l-210 410z" />
    <glyph glyph-name="uni047A" unicode="&#x47a;" horiz-adv-x="880" 
d="M435 735h10l21 -21c96 -6.66699 177.333 -45 244 -115s100 -153 100 -249s-33.333 -179 -100 -249s-148 -108.333 -244 -115l-21 -21h-10l-21 21c-96 6.66699 -177.333 45 -244 115s-100 153 -100 249s33.333 179 100 249s148 108.333 244 115zM435 675l-19 19
c-90 -6.66699 -166.5 -43 -229.5 -109s-94.5 -144.333 -94.5 -235s31.5 -169.167 94.5 -235.5s139.5 -102.5 229.5 -108.5l19 19h10l19 -19c90 6 166.5 42.167 229.5 108.5s94.5 144.833 94.5 235.5s-31.5 169 -94.5 235s-139.5 102.333 -229.5 109l-19 -19h-10z" />
    <glyph glyph-name="uni047B" unicode="&#x47b;" 
d="M295 500l9.99805 -0.000976562l16 -16c62.667 -5.33301 114.834 -31.666 156.501 -78.999s62.5 -104 62.5 -170s-20.833 -122.667 -62.5 -170s-93.834 -73.666 -156.501 -78.999l-16 -16h-10l-16 16c-63.333 5.33301 -115.666 31.5 -156.999 78.5s-62 103.833 -62 170.5
c0 66 20.833 122.667 62.5 170s93.834 73.666 156.501 78.999zM294.998 449.999l-14.999 14c-56.667 -5.33301 -103.834 -29.5 -141.501 -72.5s-56.5 -95.167 -56.5 -156.5s19 -113.666 57 -156.999s85 -67.666 141 -72.999l15 15h10l14 -15
c56.667 5.33301 104 29.666 142 72.999s57 95.666 57 156.999s-19 113.5 -57 156.5s-85.333 67.167 -142 72.5l-14 -14h-10z" />
    <glyph glyph-name="uni047C" unicode="&#x47c;" horiz-adv-x="1000" 
d="M315 845h15l340 -50v80l5 5h10l5 -5v-100l-5 -5h-15l-340 50v-80l-5 -5h-10l-5 5v100zM215 700h15l5 -5c-95.333 -116.667 -143 -241.667 -143 -375c0 -98 22.167 -175 66.5 -231s103.166 -84 176.499 -84c36.667 0 71.667 12 105 36s50 58.667 50 104v351l4 4h12l4 -4
v-351c0 -45.333 16.667 -80 50 -104s68.333 -36 105 -36c73.333 0 132.166 28 176.499 84s66.5 133 66.5 231c0 133.333 -47.667 258.333 -143 375l5 5h15l10 -5c90 -116.667 135 -241.667 135 -375c0 -102.667 -24.5 -184.167 -73.5 -244.5s-112.833 -90.5 -191.5 -90.5
c-37.333 0 -70.666 8.83301 -99.999 26.5s-51 38.834 -65 63.501c-14 -24.667 -35.667 -45.834 -65 -63.501s-62.666 -26.5 -99.999 -26.5c-78.667 0 -142.5 30.167 -191.5 90.5s-73.5 141.833 -73.5 244.5c0 133.333 45 258.333 135 375z" />
    <glyph glyph-name="uni047D" unicode="&#x47d;" horiz-adv-x="820" 
d="M235 625h15l320 -40v80l5 5h10l5 -5v-100l-5 -5h-15l-320 40v-80l-5 -5h-10l-5 5v100zM404 370h11.998l4 -4v-221c0 -46 13.833 -80.833 41.5 -104.5s58.834 -35.5 93.501 -35.5c52.667 0 94.667 20.833 126 62.5s47 97.5 47 167.5c0 64.667 -21 141.667 -63 231l4 4h17
l4 -4c21.333 -49.333 36.666 -90.666 45.999 -123.999s14 -69 14 -107c0 -78 -17 -139.167 -51 -183.5s-82 -66.5 -144 -66.5c-63.333 0 -111.666 30 -144.999 90c-33.333 -60 -81.666 -90 -144.999 -90c-62 0 -110 22.167 -144 66.5s-51 105.5 -51 183.5
c0 38 4.66699 73.667 14 107s24.666 74.666 45.999 123.999l4 4h17l4 -4c-42 -89.333 -63 -166.333 -63 -231c0 -70 15.667 -125.833 47 -167.5s73.333 -62.5 126 -62.5c34.667 0 65.834 11.833 93.501 35.5s41.5 58.5 41.5 104.5v221z" />
    <glyph glyph-name="uni047E" unicode="&#x47e;" horiz-adv-x="1000" 
d="M315 875h370l5 -5v-125l-5 -5h-10l-5 5v110h-160v-110l-5 -5h-10l-5 5v110h-160v-110l-5 -5h-10l-5 5v125zM215 700h15l5 -5c-95.333 -116.667 -143 -241.667 -143 -375c0 -98 22.167 -175 66.5 -231s103.166 -84 176.499 -84c36.667 0 71.667 12 105 36
s50 58.667 50 104v351l4 4h12l4 -4v-351c0 -45.333 16.667 -80 50 -104s68.333 -36 105 -36c73.333 0 132.166 28 176.499 84s66.5 133 66.5 231c0 133.333 -47.667 258.333 -143 375l5 5h15l10 -5c90 -116.667 135 -241.667 135 -375
c0 -102.667 -24.5 -184.167 -73.5 -244.5s-112.833 -90.5 -191.5 -90.5c-37.333 0 -70.666 8.83301 -99.999 26.5s-51 38.834 -65 63.501c-14 -24.667 -35.667 -45.834 -65 -63.501s-62.666 -26.5 -99.999 -26.5c-78.667 0 -142.5 30.167 -191.5 90.5
s-73.5 141.833 -73.5 244.5c0 133.333 45 258.333 135 375z" />
    <glyph glyph-name="uni047F" unicode="&#x47f;" horiz-adv-x="820" 
d="M235 670h350l5 -5v-145l-5 -5h-10l-5 5v130h-150v-130l-5 -5h-10l-5 5v130h-150v-130l-5 -5h-10l-5 5v145zM404 370h11.998l4 -4v-221c0 -46 13.833 -80.833 41.5 -104.5s58.834 -35.5 93.501 -35.5c52.667 0 94.667 20.833 126 62.5s47 97.5 47 167.5
c0 64.667 -21 141.667 -63 231l4 4h17l4 -4c21.333 -49.333 36.666 -90.666 45.999 -123.999s14 -69 14 -107c0 -78 -17 -139.167 -51 -183.5s-82 -66.5 -144 -66.5c-63.333 0 -111.666 30 -144.999 90c-33.333 -60 -81.666 -90 -144.999 -90c-62 0 -110 22.167 -144 66.5
s-51 105.5 -51 183.5c0 38 4.66699 73.667 14 107s24.666 74.666 45.999 123.999l4 4h17l4 -4c-42 -89.333 -63 -166.333 -63 -231c0 -70 15.667 -125.833 47 -167.5s73.333 -62.5 126 -62.5c34.667 0 65.834 11.833 93.501 35.5s41.5 58.5 41.5 104.5v221z" />
    <glyph glyph-name="uni0480" unicode="&#x480;" horiz-adv-x="740" 
d="M680 620l-5 -4.99805c-68 53.333 -146.333 80 -235 80c-95.333 0 -177.166 -33.833 -245.499 -101.5s-102.5 -148.834 -102.5 -243.501s34.167 -175.834 102.5 -243.501s150.166 -101.5 245.499 -101.5h115l5 -5l-40 -175l-5 -5h-10l-5 5l35 160h-95
c-102 0 -189.167 35.833 -261.5 107.5s-108.5 157.5 -108.5 257.5s36.167 185.833 108.5 257.5s159.5 107.5 261.5 107.5c90.667 0 170.667 -25 240 -75v-20z" />
    <glyph glyph-name="uni0481" unicode="&#x481;" horiz-adv-x="530" 
d="M470 420l-5.00195 -5c-47.333 33.333 -95.666 50 -144.999 50c-68.667 0 -125.5 -21.833 -170.5 -65.5s-67.5 -96.834 -67.5 -159.501c0 -68.667 23.333 -125 70 -169s109.334 -66 188.001 -66h55l5 -5l-35 -155l-5 -5h-10l-5 5l30 140h-35
c-87.333 0 -155.833 23.833 -205.5 71.5s-74.5 108.834 -74.5 183.501c0 68.667 24.333 126.667 73 174s111 71 187 71c55.333 0 105.333 -16.667 150 -50v-15z" />
    <glyph glyph-name="uni048A" unicode="&#x48a;" horiz-adv-x="740" 
d="M105 700h10l5 -5v-665l492 665l10 5h13l5 -5v-675h75l5 -5l-40 -190l-5 -5h-10l-5 5l35 175h-70l-5 5v665l-493 -665l-10 -5h-12l-5 5v690zM220 875h9.99805l5 -5c4.66699 -39.333 19.834 -68.333 45.501 -87s55.5 -28 89.5 -28s63.833 9.33301 89.5 28
s40.834 47.667 45.501 87l5 5h10l5 -5c-4.66699 -45.333 -21 -79.166 -49 -101.499s-63.333 -33.5 -106 -33.5s-78 11.167 -106 33.5s-44.333 56.166 -49 101.499z" />
    <glyph glyph-name="uni048B" unicode="&#x48b;" 
d="M105 470h10l5 -5v-435l354 435l10 5h10l6 -5v-445h75l5 -5l-32 -150l-5 -5h-10l-5 5l27 135h-71l-4 5v435l-355 -435l-10 -5h-10l-5 5v460zM155 670h10l5 -5c4.66699 -39.333 18.667 -70 42 -92s52.666 -33 87.999 -33s64.666 11 87.999 33s37.333 52.667 42 92l5 5h10
l5 -5c-5.33301 -45.333 -21.166 -80.833 -47.499 -106.5s-60.5 -38.5 -102.5 -38.5s-76.167 12.833 -102.5 38.5s-42.166 61.167 -47.499 106.5z" />
    <glyph glyph-name="uni048C" unicode="&#x48c;" horiz-adv-x="640" 
d="M125 740l10 0.000976562l5 -5v-135h95l5 -5v-10l-5 -5h-95v-185h185c74.667 0 132.5 -17.333 173.5 -52s61.5 -82.334 61.5 -143.001s-20.667 -109.167 -62 -145.5s-99 -54.5 -173 -54.5h-200l-5 5v575h-95l-5 5v10l5 5h95v135zM140 375.001l-0.000976562 -354.999h185
c66 0 118 16.667 156 50s57 76.666 57 129.999c0 55.333 -18.667 98.333 -56 129s-89.666 46 -156.999 46h-185z" />
    <glyph glyph-name="uni048D" unicode="&#x48d;" horiz-adv-x="580" 
d="M125 700h10l5 -5v-215h95l5 -5v-10l-5 -5h-95v-180h130c54 0 95.833 -12.5 125.5 -37.5s44.5 -59.167 44.5 -102.5s-14.833 -77.5 -44.5 -102.5s-71.5 -37.5 -125.5 -37.5h-145l-5 5v455h-95l-5 5v10l5 5h95v215zM140 260v-240.002h130c48.667 0 85.5 10.833 110.5 32.5
s37.5 50.834 37.5 87.501s-12.5 65.834 -37.5 87.501s-61.833 32.5 -110.5 32.5h-130z" />
    <glyph glyph-name="uni048E" unicode="&#x48e;" horiz-adv-x="560" 
d="M104 700l156 -0.000976562c83.333 0 145.833 -17.167 187.5 -51.5s62.5 -82.166 62.5 -143.499c0 -72 -28.333 -125 -85 -159l95 -81v-10l-5 -5h-10l-100 86c-38.667 -17.333 -87 -26 -145 -26h-140v-305l-5 -5h-10l-5 5v690zM120 679.999v-350h140
c49.333 0 91.666 7 126.999 21l-92 79v10l5 5h10l98 -84c53.333 28.667 80 76.667 80 144c0 57.333 -19.667 100.833 -59 130.5s-95.666 44.5 -168.999 44.5h-140z" />
    <glyph glyph-name="uni048F" unicode="&#x48f;" horiz-adv-x="620" 
d="M100 465l5.00098 4.99902h10l5 -5v-80c50 66.667 116.667 100 200 100c67.333 0 124.166 -24.167 170.499 -72.5s69.5 -107.5 69.5 -177.5c0 -63.333 -19 -117.666 -57 -162.999l67 -57v-10l-5 -5h-10l-66 56c-46 -47.333 -102.333 -71 -169 -71
c-83.333 0 -150 33.333 -200 100v-310l-5 -5h-10l-5 5v690zM120.001 349.999v-230c20 -35.333 47.833 -63.333 83.5 -84s74.5 -31 116.5 -31c58.667 0 109.667 21.667 153 65l-128 110v10l5 5h10l127 -109c34 41.333 51 91 51 149c0 64.667 -21.167 119.167 -63.5 163.5
s-93.833 66.5 -154.5 66.5c-42 0 -80.833 -10.333 -116.5 -31s-63.5 -48.667 -83.5 -84z" />
    <glyph glyph-name="uni0490" unicode="&#x490;" horiz-adv-x="500" 
d="M105 700h325v135l5 5h10l5 -5v-150l-5 -5h-325v-675l-5 -5h-10l-5 5v690z" />
    <glyph glyph-name="uni0491" unicode="&#x491;" horiz-adv-x="420" 
d="M105 470h255v115l5 5h10l5 -5v-130l-5 -5h-255v-445l-5 -5h-10l-5 5v460z" />
    <glyph glyph-name="uni0492" unicode="&#x492;" horiz-adv-x="480" 
d="M105 700h340l5 -5v-10l-5 -5h-325v-285h205l5 -5v-10l-5 -5h-205v-370l-5 -5h-10l-5 5v370h-75l-5 5v10l5 5h75v300z" />
    <glyph glyph-name="uni0493" unicode="&#x493;" horiz-adv-x="440" 
d="M105 470h310l5 -5v-10l-5 -5h-295v-205h115l5 -5v-10l-5 -5h-115v-220l-5 -5h-10l-5 5v220h-75l-5 5v10l5 5h75v220z" />
    <glyph glyph-name="uni0494" unicode="&#x494;" horiz-adv-x="640" 
d="M105 700l339.999 -0.000976562l5 -5v-10l-5 -5h-325v-310c21.333 18.667 48.833 34.167 82.5 46.5s69.5 18.5 107.5 18.5c81.333 0 145 -26 191 -78s69 -127.667 69 -227c0 -93.333 -21.667 -170.833 -65 -232.5s-101.666 -92.5 -174.999 -92.5
c-46.667 0 -83.334 11.667 -110.001 35v15l5 5c32.667 -23.333 68 -35 106 -35c66 0 118.667 28.5 158 85.5s59 130.167 59 219.5c0 94.667 -21 165.834 -63 213.501s-100.333 71.5 -175 71.5c-69.333 0 -132.666 -23.333 -189.999 -70v-340l-5 -5h-10l-5 5v690z" />
    <glyph glyph-name="uni0495" unicode="&#x495;" horiz-adv-x="540" 
d="M105 470h310l5 -5v-10l-5 -5h-295v-220c48.667 36.667 98.667 55 150 55c57.333 0 105 -20.833 143 -62.5s57 -109.167 57 -202.5c0 -88 -17 -157.5 -51 -208.5s-77 -76.5 -129 -76.5c-35.333 0 -65.333 8.33301 -90 25v15l5 5c18 -10 32.333 -16.667 43 -20s25 -5 43 -5
c44.667 0 82 23.167 112 69.5s45 111.5 45 195.5c0 88.667 -17 151.667 -51 189s-76.333 56 -127 56c-28 0 -52.5 -4.5 -73.5 -13.5s-46.5 -24.5 -76.5 -46.5v-200l-5 -5h-10l-5 5v460z" />
    <glyph glyph-name="uni0496" unicode="&#x496;" horiz-adv-x="860" 
d="M425 700h10l5 -5v-300h123l232 300l10 5h10l5 -5l-240 -310l250 -380v-180l-5 -5h-10l-5 5l-1 175l-4 5l-242 370h-123v-370l-5 -5h-10l-5 5v370h-123l-242 -370l-10 -5h-10l-5 5l250 380l-240 310l5 5h10l10 -5l232 -300h123v300z" />
    <glyph glyph-name="uni0497" unicode="&#x497;" horiz-adv-x="680" 
d="M335 470h10l5 -5v-205h115l147 205l10 5h13l5 -5l-155 -215l165 -245v-140l-5 -5h-10l-5 5v135l-8 5l-157 235h-115v-235l-5 -5h-10l-5 5v235h-115l-157 -235l-10 -5h-13l-5 5l165 245l-155 215l5 5h13l10 -5l147 -205h115v205z" />
    <glyph glyph-name="uni0498" unicode="&#x498;" 
d="M70 610l-9.99805 10.002c20 28 48.5 50.833 85.5 68.5s75.167 26.5 114.5 26.5c71.333 0 129.166 -18.5 173.499 -55.5s66.5 -83.5 66.5 -139.5c0 -32.667 -8.66699 -61.5 -26 -86.5s-38.666 -44.5 -63.999 -58.5c36.667 -10.667 67.5 -31.5 92.5 -62.5
s37.5 -66.833 37.5 -107.5c0 -61.333 -25.333 -113.333 -76 -156s-115.334 -64 -194.001 -64c26.667 -29.333 45 -54.333 55 -75s15 -42.334 15 -65.001c0 -26.667 -9 -48.334 -27 -65.001s-39 -25 -63 -25c-25.333 0 -47 6.66699 -65 20v15l5 5
c13.333 -13.333 33.333 -20 60 -20c18.667 0 34.667 6.33301 48 19s20 29.667 20 51c0 41.333 -24.333 88.333 -73 141c-38.667 4 -75.5 14.833 -110.5 32.5s-63.167 41.5 -84.5 71.5l10 10h10c22 -29.333 51.667 -52.5 89 -69.5s74.333 -25.5 111 -25.5
c71.333 0 130.5 19.333 177.5 58s70.5 86 70.5 142c0 40 -15 75.833 -45 107.5s-67.667 47.5 -113 47.5h-175l-5 5v10l5 5h165c29.333 0 58 13.833 86 41.5s42 60.5 42 98.5c0 48.667 -21.333 90 -64 124s-94 51 -154 51c-38 0 -72.833 -8 -104.5 -24
s-56.834 -36.333 -75.501 -61h-10z" />
    <glyph glyph-name="uni0499" unicode="&#x499;" horiz-adv-x="480" 
d="M80 430v16.0029c26 14 49.5 24 70.5 30s47.5 9 79.5 9c54 0 95.833 -12.833 125.5 -38.5s44.5 -56.167 44.5 -91.5c0 -49.333 -26.667 -86 -80 -110c29.333 -8 53.333 -22 72 -42s28 -44.333 28 -73c0 -42.667 -16.167 -77.5 -48.5 -104.5s-79.5 -40.5 -141.5 -40.5
c26.667 -29.333 45 -54.333 55 -75s15 -42.334 15 -65.001c0 -26.667 -9 -48.334 -27 -65.001s-39 -25 -63 -25c-25.333 0 -47 6.66699 -65 20v15l5 5c13.333 -13.333 33.333 -20 60 -20c18.667 0 34.667 6.33301 48 19s20 29.667 20 51c0 41.333 -24.333 88.333 -73 141
c-62.667 3.33301 -111 18 -145 44v15l5 5c42.667 -30 97.667 -45 165 -45c53.333 0 94.666 11.833 123.999 35.5s44 53.5 44 89.5c0 26.667 -12 50 -36 70s-56.333 30 -97 30h-90l-5 5v10l5 5h75c34 0 63.833 9.66699 89.5 29s38.5 44.666 38.5 75.999
c0 30 -12.833 55.833 -38.5 77.5s-62.167 32.5 -109.5 32.5c-29.333 0 -53.666 -2.83301 -72.999 -8.5s-43.333 -16.167 -72 -31.5z" />
    <glyph glyph-name="uni049A" unicode="&#x49a;" horiz-adv-x="580" 
d="M105 700h10l5 -5v-300h120l275 300l10 5h10l5 -5l-280 -310l290 -380v-180l-5 -5h-10l-5 5v175l-5 5l-285 370h-120v-370l-5 -5h-10l-5 5v690z" />
    <glyph glyph-name="uni049B" unicode="&#x49b;" horiz-adv-x="500" 
d="M105 470h10l5 -5v-205h127l175 205l10 5h13l5 -5l-185 -215l205 -245v-140l-5 -5h-10l-5 5v135l-8 5l-195 235h-127v-235l-5 -5h-10l-5 5v460z" />
    <glyph glyph-name="uni049C" unicode="&#x49c;" horiz-adv-x="580" 
d="M105 700h10l5 -5v-300h110v190l5 5h10l5 -5v-179l265 289l10 5h10l5 -5l-280 -310l290 -380l-5 -5h-10l-10 5l-275 357v-157l-5 -5h-10l-5 5v170h-110v-370l-5 -5h-10l-5 5v690z" />
    <glyph glyph-name="uni049D" unicode="&#x49d;" horiz-adv-x="500" 
d="M105 470h10l5 -5v-205h115v85l5 5h10l5 -5v-76l167 196l10 5h13l5 -5l-185 -215l205 -245l-5 -5h-13l-10 5l-187 225v-85l-5 -5h-10l-5 5v95h-115v-235l-5 -5h-10l-5 5v460z" />
    <glyph glyph-name="uni049E" unicode="&#x49e;" horiz-adv-x="580" 
d="M105 700h10l5 -5v-130h75l5 -5v-10l-5 -5h-75v-150h120l275 300l10 5h10l5 -5l-280 -310l290 -380l-5 -5h-10l-10 5l-285 370h-120v-370l-5 -5h-10l-5 5v540h-75l-5 5v10l5 5h75v130z" />
    <glyph glyph-name="uni049F" unicode="&#x49f;" horiz-adv-x="500" 
d="M105 700h10l5 -5v-120h95l5 -5v-10l-5 -5h-95v-295h127l175 205l10 5h13l5 -5l-185 -215l205 -245l-5 -5h-13l-10 5l-195 235h-127v-235l-5 -5h-10l-5 5v550h-75l-5 5v11l5 4h75v120z" />
    <glyph glyph-name="uni04A0" unicode="&#x4a0;" horiz-adv-x="720" 
d="M35 700h220l5 -5v-300h120l275 300l10 5h10l5 -5l-280 -310l290 -380l-5 -5h-10l-10 5l-285 370h-120v-370l-5 -5h-10l-5 5v675h-205l-5 5v10z" />
    <glyph glyph-name="uni04A1" unicode="&#x4a1;" horiz-adv-x="580" 
d="M35 470h160l5 -5v-205h127l175 205l10 5h13l5 -5l-185 -215l205 -245l-5 -5h-13l-10 5l-195 235h-127v-235l-5 -5h-10l-5 5v445h-145l-5 5v10z" />
    <glyph glyph-name="uni04A2" unicode="&#x4a2;" horiz-adv-x="720" 
d="M105 700h10l5 -5v-300h460v300l5 5h10l5 -5v-675h75l5 -5v-190l-5 -5h-10l-5 5v175h-75l-5 5v370h-460v-370l-5 -5h-10l-5 5v690z" />
    <glyph glyph-name="uni04A3" unicode="&#x4a3;" horiz-adv-x="560" 
d="M105 470h10l5 -5v-205h300v205l5 5h10l5 -5v-445h75l5 -5v-150l-5 -5h-10l-5 5v135h-75l-5 5v235h-300v-235l-5 -5h-10l-5 5v460z" />
    <glyph glyph-name="uni04A4" unicode="&#x4a4;" horiz-adv-x="820" 
d="M105 700h10l5 -5v-300h440v300l5 5h220l5 -5v-10l-5 -5h-205v-675l-5 -5h-10l-5 5v370h-440v-370l-5 -5h-10l-5 5v690z" />
    <glyph glyph-name="uni04A5" unicode="&#x4a5;" horiz-adv-x="620" 
d="M105 470h10l5 -5v-205h300v205l5 5h160l5 -5v-10l-5 -5h-145v-445l-5 -5h-10l-5 5v235h-300v-235l-5 -5h-10l-5 5v460z" />
    <glyph glyph-name="uni04A6" unicode="&#x4a6;" horiz-adv-x="1080" 
d="M105 700l449.999 -0.000976562l5 -5v-325c21.333 18.667 48.833 34.167 82.5 46.5s69.5 18.5 107.5 18.5c81.333 0 145 -26 191 -78s69 -127.667 69 -227c0 -93.333 -21.667 -170.833 -65 -232.5s-101.666 -92.5 -174.999 -92.5c-46.667 0 -83.334 11.667 -110.001 35v15
l5 5c32.667 -23.333 68 -35 106 -35c66 0 118.667 28.5 158 85.5s59 130.167 59 219.5c0 94.667 -21 165.834 -63 213.501s-100.333 71.5 -175 71.5c-69.333 0 -132.666 -23.333 -189.999 -70v-340l-5 -5h-10l-5 5v675h-420v-675l-5 -5h-10l-5 5v690z" />
    <glyph glyph-name="uni04A7" unicode="&#x4a7;" horiz-adv-x="880" 
d="M105 470l350.001 -0.000976562l5 -5v-215c48.667 36.667 98.667 55 150 55c57.333 0 105 -20.833 143 -62.5s57 -109.167 57 -202.5c0 -97.333 -16.833 -172.5 -50.5 -225.5s-76.834 -79.5 -129.501 -79.5c-35.333 0 -65.333 8.33301 -90 25v15l5 5
c18 -10 32.333 -16.667 43 -20s25 -5 43 -5c44.667 0 82 24.333 112 73s45 119.334 45 212.001c0 88.667 -17 151.667 -51 189s-76.333 56 -127 56c-28 0 -52.5 -4.5 -73.5 -13.5s-46.5 -24.5 -76.5 -46.5v-220l-5 -5h-10l-5 5v445h-320v-445l-5 -5h-10l-5 5v460z" />
    <glyph glyph-name="uni04A8" unicode="&#x4a8;" horiz-adv-x="860" 
d="M680 620l-5.00195 -5.00098c-68 53.333 -146.333 80 -235 80c-95.333 0 -177.166 -33.833 -245.499 -101.5s-102.5 -148.834 -102.5 -243.501c0 -81.333 25.833 -153.5 77.5 -216.5s116.834 -103.167 195.501 -120.5c-16.667 40.667 -25 83 -25 127
c0 90.667 24 164.167 72 220.5s107.333 84.5 178 84.5c56.667 0 104.167 -19.333 142.5 -58s57.5 -87.667 57.5 -147c0 -68 -32.5 -127.5 -97.5 -178.5s-149.167 -76.5 -252.5 -76.5c-8.66699 0 -21.667 0.666992 -39 2c27.333 -49.333 65 -88.666 113 -117.999
s100 -44 156 -44c59.333 0 114.333 18.333 165 55l5 -5v-15c-47.333 -36.667 -104 -55 -170 -55c-61.333 0 -118.5 17 -171.5 51s-93.833 79 -122.5 135c-88 14.667 -161 55.834 -219 123.501s-87 146.167 -87 235.5c0 100 36.167 185.833 108.5 257.5
s159.5 107.5 261.5 107.5c90.667 0 170.667 -25 240 -75v-20zM389.998 7.99902c102.667 -13.333 191.333 4 266 52s112 108 112 180c0 52 -17 95.833 -51 131.5s-76 53.5 -126 53.5c-66 0 -120.667 -27 -164 -81s-65 -122 -65 -204c0 -46.667 9.33301 -90.667 28 -132z" />
    <glyph glyph-name="uni04A9" unicode="&#x4a9;" horiz-adv-x="580" 
d="M470 420l-5 -4.99902c-46 33.333 -97.667 50 -155 50c-64 0 -118 -23.5 -162 -70.5s-66 -103.5 -66 -169.5c0 -44 12.167 -85.667 36.5 -125s54.833 -68.666 91.5 -87.999c2 91.333 22.667 159.666 62 204.999s88.666 68 147.999 68c36 0 66.667 -12.667 92 -38
s38 -56 38 -92c0 -58.667 -22.667 -105 -68 -139s-102.666 -51 -171.999 -51c-24.667 0 -50.334 4.66699 -77.001 14c8.66699 -62.667 34.5 -115.667 77.5 -159s92.5 -65 148.5 -65c18 0 32.333 1.66699 43 5s25 10 43 20l5 -5v-15c-24.667 -16.667 -54.667 -25 -90 -25
c-64.667 0 -120.667 24.167 -168 72.5s-74.666 108.5 -81.999 180.5c-44 19.333 -80 51.166 -108 95.499s-42 91.5 -42 141.5c0 71.333 23.333 132.5 70 183.5s106.667 76.5 180 76.5c62 0 115.333 -16.667 160 -50v-15zM232 1.00098
c23.333 -10.667 49.333 -16.001 78 -16.001c62.667 0 114.667 15 156 45s62 71.667 62 125c0 30.667 -10.5 56.667 -31.5 78s-46.5 32 -76.5 32c-51.333 0 -95.5 -21.667 -132.5 -65s-55.5 -109.666 -55.5 -198.999z" />
    <glyph glyph-name="uni04AA" unicode="&#x4aa;" horiz-adv-x="760" 
d="M680 620l-5.00098 -4.99609c-68 53.333 -146.333 80 -235 80c-95.333 0 -177.166 -33.833 -245.499 -101.5s-102.5 -148.834 -102.5 -243.501s34.167 -175.834 102.5 -243.501s150.166 -101.5 245.499 -101.5c88.667 0 167 26.667 235 80l5 -5v-20
c-69.333 -50 -149.333 -75 -240 -75c26.667 -29.333 45 -54.333 55 -75s15 -42.334 15 -65.001c0 -26.667 -9 -48.334 -27 -65.001s-39 -25 -63 -25c-25.333 0 -47 6.66699 -65 20v15l5 5c13.333 -13.333 33.333 -20 60 -20c18.667 0 34.667 6.33301 48 19s20 29.667 20 51
c0 41.333 -24.333 88.333 -73 141c-97.333 6.66699 -179.166 45 -245.499 115s-99.5 153 -99.5 249c0 100 36.167 185.833 108.5 257.5s159.5 107.5 261.5 107.5c90.667 0 170.667 -25 240 -75v-20z" />
    <glyph glyph-name="uni04AB" unicode="&#x4ab;" horiz-adv-x="530" 
d="M470 420l-5.00098 -4.99902c-46 33.333 -97.667 50 -155 50c-64.667 0 -118.834 -22 -162.501 -66s-65.5 -98.667 -65.5 -164s21.833 -120 65.5 -164s97.834 -66 162.501 -66c57.333 0 109 16.667 155 50l5 -5v-15c-44.667 -33.333 -98 -50 -160 -50
c26.667 -29.333 45 -54.333 55 -75s15 -42.334 15 -65.001c0 -26.667 -9 -48.334 -27 -65.001s-39 -25 -63 -25c-25.333 0 -47 6.66699 -65 20v15l5 5c13.333 -13.333 33.333 -20 60 -20c18.667 0 34.667 6.33301 48 19s20 29.667 20 51c0 41.333 -24.333 88.333 -73 141
c-67.333 6 -121.666 32.333 -162.999 79s-62 103.334 -62 170.001c0 70.667 23.333 130 70 178s106.667 72 180 72c62 0 115.333 -16.667 160 -50v-15z" />
    <glyph glyph-name="uni04AC" unicode="&#x4ac;" horiz-adv-x="620" 
d="M35 700h550l5 -5v-10l-5 -5h-265v-660h75l5 -5v-190l-5 -5h-10l-5 5v175h-75l-5 5v675h-265l-5 5v10z" />
    <glyph glyph-name="uni04AD" unicode="&#x4ad;" horiz-adv-x="480" 
d="M25 470h430l5 -5v-10l-5 -5h-205v-430h75l5 -5v-150l-5 -5h-10l-5 5v135h-75l-5 5v445h-205l-5 5v10z" />
    <glyph glyph-name="uni04AE" unicode="&#x4ae;" 
d="M35 700h10l10 -5l245 -310l246 310l9 5h10l5 -5l-260 -330v-360l-5 -5h-10l-5 5v360l-260 330z" />
    <glyph glyph-name="uni04AF" unicode="&#x4af;" horiz-adv-x="500" 
d="M35 470h12l5 -5l198 -445l198 445l5 5h12l5 -5l-210 -470v-220l-5 -5h-10l-5 5v220l-210 470z" />
    <glyph glyph-name="uni04B0" unicode="&#x4b0;" 
d="M35 700h10l10 -5l245 -310l246 310l9 5h10l5 -5l-253 -320h168l5 -5v-10l-5 -5h-175v-350l-5 -5h-10l-5 5v350h-175l-5 5v10l5 5h168l-253 320z" />
    <glyph glyph-name="uni04B1" unicode="&#x4b1;" horiz-adv-x="500" 
d="M35 470h12l5 -5l198 -445l198 445l5 5h12l5 -5l-205 -460h140l5 -5v-10l-5 -5h-145v-210l-5 -5h-10l-5 5v210h-145l-5 5v10l5 5h140l-205 460z" />
    <glyph glyph-name="uni04B2" unicode="&#x4b2;" horiz-adv-x="660" 
d="M55 700h10l10 -5l255 -317l255 317l10 5h10l5 -5l-268 -333l288 -357v-180l-5 -5h-10l-5 5v175l-5 5l-275 342l-275 -342l-10 -5h-10l-5 5l288 357l-268 333z" />
    <glyph glyph-name="uni04B3" unicode="&#x4b3;" horiz-adv-x="440" 
d="M45 470h10l10 -5l155 -210l155 210l10 5h10l5 -5l-167 -225l177 -235v-140l-5 -5h-10l-5 5v135l-5 5l-165 220l-165 -220l-10 -5h-10l-5 5l177 235l-167 225z" />
    <glyph glyph-name="uni04B4" unicode="&#x4b4;" horiz-adv-x="860" 
d="M35 700h490l5 -5v-10l-5 -5h-245v-660h440v675l5 5h10l5 -5v-675h75l5 -5v-190l-5 -5h-10l-5 5v175h-535l-5 5v675h-225l-5 5v10z" />
    <glyph glyph-name="uni04B5" unicode="&#x4b5;" horiz-adv-x="680" 
d="M35 470h330l5 -5v-10l-5 -5h-165v-430h340v445l5 5h10l5 -5v-445h75l5 -5v-150l-5 -5h-10l-5 5v135h-435l-5 5v445h-145l-5 5v10z" />
    <glyph glyph-name="uni04B6" unicode="&#x4b6;" horiz-adv-x="660" 
d="M95 700l10.001 0.000976562l5 -5v-115c0 -91.333 18.833 -160 56.5 -206s92.167 -69 163.5 -69c69.333 0 132.666 23.333 189.999 70v320l5 5h10l5 -5v-675h75l5 -5v-190l-5 -5h-10l-5 5v175h-75l-5 5v345c-21.333 -18.667 -48.833 -34.167 -82.5 -46.5
s-69.5 -18.5 -107.5 -18.5c-76 0 -135 24.667 -177 74s-63 119.666 -63 210.999v125z" />
    <glyph glyph-name="uni04B7" unicode="&#x4b7;" horiz-adv-x="560" 
d="M95 470l10 -0.000976562l5 -5v-85c0 -110 56.667 -165 170 -165c25.333 0 51.833 4.33301 79.5 13s47.834 19.334 60.501 32.001v205l5 5h10l5 -5v-445h75l5 -5v-150l-5 -5h-10l-5 5v135h-75l-5 5v230c-16.667 -12 -38.334 -21.667 -65.001 -29s-51.667 -11 -75 -11
c-126.667 0 -190 60 -190 180v90z" />
    <glyph glyph-name="uni04B8" unicode="&#x4b8;" horiz-adv-x="720" 
d="M95 700h10l5 -5v-115c0 -89.333 18 -157 54 -203s88 -70 156 -72v140l5 5h10l5 -5v-140c64.667 2 124.667 25.333 180 70v320l5 5h10l5 -5v-690l-5 -5h-10l-5 5v345c-47.333 -41.333 -107.333 -63 -180 -65v-120l-5 -5h-10l-5 5v120c-72.667 2 -129.167 27.5 -169.5 76.5
s-60.5 118.5 -60.5 208.5v125z" />
    <glyph glyph-name="uni04B9" unicode="&#x4b9;" horiz-adv-x="540" 
d="M95 470l9.99902 -0.00195312l5 -5v-85c0 -106 51.667 -161 155 -165v90l5 5h10l5 -5v-90c24.667 0.666992 50.334 5.33398 77.001 14.001s46 19 58 31v205l5 5h10l5 -5v-460l-5 -5h-10l-5 5v230c-36 -25.333 -81 -38.666 -135 -39.999v-90l-5 -5h-10l-5 5v90
c-116.667 5.33301 -175 65.333 -175 180v90z" />
    <glyph glyph-name="uni04BA" unicode="&#x4ba;" horiz-adv-x="640" 
d="M105 700l9.99902 -0.000976562l5 -5v-325c21.333 18.667 48.833 34.167 82.5 46.5s69.5 18.5 107.5 18.5c76 0 135 -24.667 177 -74s63 -119.666 63 -210.999v-145l-5 -5h-10l-5 5v135c0 91.333 -18.833 160 -56.5 206s-92.167 69 -163.5 69
c-69.333 0 -132.666 -23.333 -189.999 -70v-340l-5 -5h-10l-5 5v690z" />
    <glyph glyph-name="uni04BB" unicode="&#x4bb;" 
d="M105 700h9.99805l5 -5v-310c22.667 30.667 50.834 55 84.501 73s68.834 27 105.501 27c133.333 0 200 -80 200 -240v-240l-5 -5h-10l-5 5v235c0 76 -14.5 132.5 -43.5 169.5s-74.5 55.5 -136.5 55.5c-37.333 0 -73.333 -10.5 -108 -31.5s-62 -48.833 -82 -83.5v-345
l-5 -5h-10l-5 5v690z" />
    <glyph glyph-name="uni04BC" unicode="&#x4bc;" horiz-adv-x="980" 
d="M65 505l5.00098 -5c-6.66699 -13.333 -10 -30 -10 -50c0 -55.333 43.333 -83.666 130 -84.999c4 96.667 41.833 179.167 113.5 247.5s157.167 102.5 256.5 102.5c39.333 0 78.166 -6.5 116.499 -19.5s74.666 -32.5 108.999 -58.5s62 -62.167 83 -108.5
s31.5 -99.166 31.5 -158.499c0 -6 -1.66699 -12.667 -5 -20l-10 -5h-675c5.33301 -96 40.833 -176.667 106.5 -242s146.834 -98 243.501 -98c98 0 183 28.333 255 85l5 -5v-20c-77.333 -53.333 -164 -80 -260 -80c-102 0 -188.833 35.167 -260.5 105.5
s-108.167 155.166 -109.5 254.499c-100 0.666992 -150 35.667 -150 105c0 23.333 3.33301 41.666 10 54.999h15zM210.001 365h669.997c0 58 -10.333 109.333 -31 154s-47.667 79.167 -81 103.5s-67.666 42.5 -102.999 54.5s-70.333 18 -105 18
c-95.333 0 -176.166 -32.5 -242.499 -97.5s-102.166 -142.5 -107.499 -232.5z" />
    <glyph glyph-name="uni04BD" unicode="&#x4bd;" horiz-adv-x="690" 
d="M65 400l4.99902 -5.00195c-6.66699 -13.333 -10 -30 -10 -50c0 -25.333 10 -45.666 30 -60.999s56.667 -23.333 110 -24c4.66699 64.667 28 118.334 70 161.001s95.333 64 160 64c45.333 0 83.833 -12 115.5 -36s53.667 -51.667 66 -83s18.5 -63.333 18.5 -96
c0 -9.33301 -1.66699 -17.666 -5 -24.999l-10 -5h-393c0 -64.667 22.333 -120 67 -166s98.334 -69 161.001 -69c61.333 0 116.333 21.667 165 65l5 -5v-15c-16.667 -16.667 -41 -31.667 -73 -45s-64.333 -20 -97 -20c-69.333 0 -128.333 25 -177 75s-73 110 -73 180
c-106.667 0.666992 -160 35.667 -160 105c0 23.333 3.33301 41.666 10 54.999h15zM221.999 259.998h388c-2.66699 61.333 -19.834 110.833 -51.501 148.5s-74.5 56.5 -128.5 56.5c-60.667 0 -109.167 -19.167 -145.5 -57.5s-57.166 -87.5 -62.499 -147.5z" />
    <glyph glyph-name="uni04BE" unicode="&#x4be;" horiz-adv-x="980" 
d="M65 505l5.00098 -5.00293c-6.66699 -13.333 -10 -30 -10 -50c0 -55.333 43.333 -83.666 130 -84.999c4 96.667 41.833 179.167 113.5 247.5s157.167 102.5 256.5 102.5c39.333 0 78.166 -6.5 116.499 -19.5s74.666 -32.5 108.999 -58.5s62 -62.167 83 -108.5
s31.5 -99.166 31.5 -158.499c0 -6 -1.66699 -12.667 -5 -20l-10 -5h-675c5.33301 -96 40.833 -176.667 106.5 -242s146.834 -98 243.501 -98c98 0 183 28.333 255 85l5 -5v-20c-72 -49.333 -150.667 -75.666 -236 -78.999c-48 -52.667 -72 -99.667 -72 -141
c0 -21.333 6.66699 -38.333 20 -51s29.333 -19 48 -19c26.667 0 46.667 6.66699 60 20l5 -5v-15c-18 -13.333 -39.667 -20 -65 -20c-24 0 -45 8.33301 -63 25s-27 38.334 -27 65.001c0 22.667 5 44.334 15 65.001s28.333 45.667 55 75c-102 0 -188.833 35.167 -260.5 105.5
s-108.167 155.166 -109.5 254.499c-100 0.666992 -150 35.667 -150 105c0 23.333 3.33301 41.666 10 54.999h15zM210.001 364.997h669.997c0 58 -10.333 109.333 -31 154s-47.667 79.167 -81 103.5s-67.666 42.5 -102.999 54.5s-70.333 18 -105 18
c-95.333 0 -176.166 -32.5 -242.499 -97.5s-102.166 -142.5 -107.499 -232.5z" />
    <glyph glyph-name="uni04BF" unicode="&#x4bf;" horiz-adv-x="690" 
d="M65 400l4.99902 -5c-6.66699 -13.333 -10 -30 -10 -50c0 -26.667 10 -47.334 30 -62.001s56.667 -22.334 110 -23.001c4.66699 64.667 28 118.334 70 161.001s95.333 64 160 64c45.333 0 83.833 -12 115.5 -36s53.667 -51.667 66 -83s18.5 -63.333 18.5 -96
c0 -9.33301 -1.66699 -17.666 -5 -24.999l-10 -5h-393c0 -64.667 22.333 -120 67 -166s98.334 -69 161.001 -69c61.333 0 116.333 21.667 165 65l5 -5v-15c-92 -66 -138 -129.333 -138 -190c0 -24.667 8.16699 -45 24.5 -61s35.833 -24 58.5 -24c21.333 0 38 6 50 18l5 -5
v-15c-16 -12 -34.333 -18 -55 -18c-30 0 -55 9.83301 -75 29.5s-30 44.834 -30 75.501c0 23.333 4.66699 45.5 14 66.5s28 45.5 56 73.5c-25.333 -10 -52 -15 -80 -15c-69.333 0 -128.333 25 -177 75s-73 110 -73 180c-106.667 0.666992 -160 35.667 -160 105
c0 23.333 3.33301 41.666 10 54.999h15zM221.999 260h388c-2.66699 61.333 -19.834 110.833 -51.501 148.5s-74.5 56.5 -128.5 56.5c-60.667 0 -109.167 -19.167 -145.5 -57.5s-57.166 -87.5 -62.499 -147.5z" />
    <glyph glyph-name="uni04C0" unicode="&#x4c0;" horiz-adv-x="220" 
d="M105 700h10l5 -5v-690l-5 -5h-10l-5 5v690z" />
    <glyph glyph-name="uni04C1" unicode="&#x4c1;" horiz-adv-x="860" 
d="M425 700h10l5 -5v-300h123l232 300l10 5h10l5 -5l-240 -310l250 -380l-5 -5h-10l-10 5l-242 370h-123v-370l-5 -5h-10l-5 5v370h-123l-242 -370l-10 -5h-10l-5 5l250 380l-240 310l5 5h10l10 -5l232 -300h123v300zM280 875h9.99805l5 -5
c4.66699 -39.333 19.834 -68.333 45.501 -87s55.5 -28 89.5 -28s63.833 9.33301 89.5 28s40.834 47.667 45.501 87l5 5h10l5 -5c-4.66699 -45.333 -21 -79.166 -49 -101.499s-63.333 -33.5 -106 -33.5s-78 11.167 -106 33.5s-44.333 56.166 -49 101.499z" />
    <glyph glyph-name="uni04C2" unicode="&#x4c2;" horiz-adv-x="680" 
d="M335 470h10l5 -5v-205h117l145 205l10 5h13l5 -5l-155 -215l165 -245l-5 -5h-13l-10 5l-155 235h-117v-235l-5 -5h-10l-5 5v235h-117l-155 -235l-10 -5h-13l-5 5l165 245l-155 215l5 5h13l10 -5l145 -205h117v205zM195 670h10l5 -5c4.66699 -39.333 18.667 -70 42 -92
s52.666 -33 87.999 -33s64.666 11 87.999 33s37.333 52.667 42 92l5 5h10l5 -5c-5.33301 -45.333 -21.166 -80.833 -47.499 -106.5s-60.5 -38.5 -102.5 -38.5s-76.167 12.833 -102.5 38.5s-42.166 61.167 -47.499 106.5z" />
    <glyph glyph-name="uni04C3" unicode="&#x4c3;" 
d="M105 700h10.001l5 -5v-300h100l275 300l10 5h10l5 -5l-270 -300c36 -4 69.833 -13 101.5 -27s61.167 -33.333 88.5 -58s49.166 -57.667 65.499 -99s24.5 -88.333 24.5 -141c0 -73.333 -19.167 -135.833 -57.5 -187.5s-89.166 -77.5 -152.499 -77.5
c-46.667 0 -83.334 11.667 -110.001 35v15l5 5c32.667 -23.333 68 -35 106 -35c56 0 101.167 23.5 135.5 70.5s51.5 105.167 51.5 174.5c0 54 -9 101.333 -27 142s-42.333 72.5 -73 95.5s-63.5 40 -98.5 51s-71.5 16.5 -109.5 16.5h-80v-370l-5 -5h-10l-5 5v690z" />
    <glyph glyph-name="uni04C4" unicode="&#x4c4;" horiz-adv-x="500" 
d="M105 470l10.0029 -0.000976562l5 -5v-205h105l177 205l10 5h13l5 -5l-180 -207c19.333 -4 39.166 -11.167 59.499 -21.5s41.666 -25 63.999 -44s40.666 -45.167 54.999 -78.5s21.5 -71.333 21.5 -114c0 -86.667 -16.833 -152.5 -50.5 -197.5
s-76.834 -67.5 -129.501 -67.5c-35.333 0 -65.333 8.33301 -90 25v15l5 5c18 -10 32.333 -16.667 43 -20s25 -5 43 -5c45.333 0 82.833 20.167 112.5 60.5s44.5 101.833 44.5 184.5c0 36.667 -5.66699 69.834 -17 99.501s-25.5 53 -42.5 70s-36.167 31 -57.5 42
s-40.666 18.5 -57.999 22.5s-33.333 6 -48 6h-85v-235l-5 -5h-10l-5 5v460z" />
    <glyph glyph-name="uni04C5" unicode="&#x4c5;" horiz-adv-x="700" 
d="M245 700h349.999l5 -5v-675h75l5 -5l-40 -190l-5 -5h-10l-5 5l35 175h-70l-5 5v675h-320l-85 -550c-20.667 -96.667 -64 -145 -130 -145l-5 5v10l5 5c56.667 0 93.334 46.667 110.001 140l85 550z" />
    <glyph glyph-name="uni04C6" unicode="&#x4c6;" horiz-adv-x="540" 
d="M180 470h255.002l5 -5v-445h75l5 -5l-32 -150l-5 -5h-10l-5 5l27 135h-70l-5 5v445h-225l-45 -325c-8 -48 -19.833 -83.333 -35.5 -106s-38.834 -34 -69.501 -34l-5 7v8l5 5c41.333 0 69.666 43.333 84.999 130l45 330z" />
    <glyph glyph-name="uni04C7" unicode="&#x4c7;" horiz-adv-x="700" 
d="M105 700h9.99902l5 -5v-300h460v300l5 5h10l5 -5v-735c0 -103.333 -35 -155 -105 -155c-23.333 0 -41.666 3.33301 -54.999 10v15l5 5c13.333 -6.66699 30 -10 50 -10c56.667 0 85 46.667 85 140v410h-460v-370l-5 -5h-10l-5 5v690z" />
    <glyph glyph-name="uni04C8" unicode="&#x4c8;" horiz-adv-x="540" 
d="M105 470h9.99902l5 -5v-205h300v205l5 5h10l5 -5v-575c0 -103.333 -35 -155 -105 -155c-23.333 0 -41.666 3.33301 -54.999 10v15l5 5c13.333 -6.66699 30 -10 50 -10c56.667 0 85 46.667 85 140v345h-300v-235l-5 -5h-10l-5 5v460z" />
    <glyph glyph-name="uni04C9" unicode="&#x4c9;" horiz-adv-x="700" 
d="M105 700h10l5 -5v-300h460v300l5 5h10l5 -5v-675h75l5 -5l-40 -190l-5 -5h-10l-5 5l35 175h-70l-5 5v370h-460v-370l-5 -5h-10l-5 5v690z" />
    <glyph glyph-name="uni04CA" unicode="&#x4ca;" horiz-adv-x="540" 
d="M105 470h10l5 -5v-205h300v205l5 5h10l5 -5v-445h75l5 -5l-32 -150l-5 -5h-10l-5 5l27 135h-70l-5 5v235h-300v-235l-5 -5h-10l-5 5v460z" />
    <glyph glyph-name="uni04CB" unicode="&#x4cb;" horiz-adv-x="640" 
d="M95 700l10.001 0.000976562l5 -5v-115c0 -91.333 18.833 -160 56.5 -206s92.167 -69 163.5 -69c69.333 0 132.666 23.333 189.999 70v320l5 5h10l5 -5v-690l-5 -5h-75v-175l-5 -5h-10l-5 5v190l5 5h75v330c-21.333 -18.667 -48.833 -34.167 -82.5 -46.5
s-69.5 -18.5 -107.5 -18.5c-76 0 -135 24.667 -177 74s-63 119.666 -63 210.999v125z" />
    <glyph glyph-name="uni04CC" unicode="&#x4cc;" horiz-adv-x="540" 
d="M95 470l10 -0.000976562l5 -5v-85c0 -110 56.667 -165 170 -165c25.333 0 51.833 4.33301 79.5 13s47.834 19.334 60.501 32.001v205l5 5h10l5 -5v-460l-5 -5h-75v-135l-5 -5h-10l-5 5v150l5 5h75v215c-16.667 -12 -38.334 -21.667 -65.001 -29s-51.667 -11 -75 -11
c-126.667 0 -190 60 -190 180v90z" />
    <glyph glyph-name="uni04CD" unicode="&#x4cd;" horiz-adv-x="860" 
d="M145 700h10l10 -5l285 -360l285 360l10 5h10l5 -5v-675h75l5 -5l-40 -190l-5 -5h-10l-5 5l35 175h-70l-5 5v665l-285 -360h-10l-285 360v-665l-5 -5h-10l-5 5v690z" />
    <glyph glyph-name="uni04CE" unicode="&#x4ce;" horiz-adv-x="660" 
d="M105 470h10l10 -5l205 -260l205 260l10 5h10l5 -5v-445h75l5 -5l-32 -150l-5 -5h-10l-5 5l27 135h-70l-5 5v430l-205 -255h-10l-205 255v-430l-5 -5h-10l-5 5v460z" />
    <glyph glyph-name="uni04CF" unicode="&#x4cf;" horiz-adv-x="220" 
d="M105 700h10l5 -5v-690l-5 -5h-10l-5 5v690z" />
    <glyph glyph-name="uni04D0" unicode="&#x4d0;" horiz-adv-x="640" 
d="M310 700h20l5 -5l275 -690l-5 -5h-10l-5 5l-97 240h-346l-97 -240l-5 -5h-10l-5 5l275 690zM320 680l-165 -415h330zM170 875h9.99805l5 -5c4.66699 -39.333 19.834 -68.333 45.501 -87s55.5 -28 89.5 -28s63.833 9.33301 89.5 28s40.834 47.667 45.501 87l5 5h10l5 -5
c-4.66699 -45.333 -21 -79.166 -49 -101.499s-63.333 -33.5 -106 -33.5s-78 11.167 -106 33.5s-44.333 56.166 -49 101.499z" />
    <glyph glyph-name="uni04D1" unicode="&#x4d1;" horiz-adv-x="520" 
d="M95 430l9.99902 19.9971c46.667 23.333 91.667 35 135 35c64.667 0 112.5 -16.333 143.5 -49s46.5 -83 46.5 -151v-280l-5 -5h-10l-5 5v50c-60 -46.667 -123.333 -70 -190 -70c-46.667 0 -85 11.167 -115 33.5s-45 52.833 -45 91.5c0 30.667 8.33301 56.834 25 78.501
s41.334 39.167 74.001 52.5s69.167 23.333 109.5 30s87.5 11.334 141.5 14.001c0 64.667 -14.5 110.834 -43.5 138.501s-71.167 41.5 -126.5 41.5c-40 0 -86.667 -13.333 -140 -40zM409.999 79.9971l0.000976562 185c-50.667 -2.66699 -94.167 -6.83398 -130.5 -12.501
s-70.333 -14.167 -102 -25.5s-55.5 -26.666 -71.5 -45.999s-24 -43 -24 -71c0 -33.333 13.167 -59.166 39.5 -77.499s59.166 -27.5 98.499 -27.5c33.333 0 67.333 7.16699 102 21.5s64 32.166 88 53.499zM110 669.997h10l5 -5c4.66699 -39.333 18.667 -70 42 -92
s52.666 -33 87.999 -33s64.666 11 87.999 33s37.333 52.667 42 92l5 5h10l5 -5c-5.33301 -45.333 -21.166 -80.833 -47.499 -106.5s-60.5 -38.5 -102.5 -38.5s-76.167 12.833 -102.5 38.5s-42.166 61.167 -47.499 106.5z" />
    <glyph glyph-name="uni04D2" unicode="&#x4d2;" horiz-adv-x="640" 
d="M310 700h20l5 -5l275 -690l-5 -5h-10l-5 5l-97 240h-346l-97 -240l-5 -5h-10l-5 5l275 690zM320 680l-165 -415h330zM200 840h10l30 -30v-10l-30 -30h-10l-30 30v10zM430 840h10l30 -30v-10l-30 -30h-10l-30 30v10z" />
    <glyph glyph-name="uni04D3" unicode="&#x4d3;" horiz-adv-x="520" 
d="M95 430l9.99902 19.9971c46.667 23.333 91.667 35 135 35c64.667 0 112.5 -16.333 143.5 -49s46.5 -83 46.5 -151v-280l-5 -5h-10l-5 5v50c-60 -46.667 -123.333 -70 -190 -70c-46.667 0 -85 11.167 -115 33.5s-45 52.833 -45 91.5c0 30.667 8.33301 56.834 25 78.501
s41.334 39.167 74.001 52.5s69.167 23.333 109.5 30s87.5 11.334 141.5 14.001c0 64.667 -14.5 110.834 -43.5 138.501s-71.167 41.5 -126.5 41.5c-40 0 -86.667 -13.333 -140 -40zM409.999 79.9971l0.000976562 185c-50.667 -2.66699 -94.167 -6.83398 -130.5 -12.501
s-70.333 -14.167 -102 -25.5s-55.5 -26.666 -71.5 -45.999s-24 -43 -24 -71c0 -33.333 13.167 -59.166 39.5 -77.499s59.166 -27.5 98.499 -27.5c33.333 0 67.333 7.16699 102 21.5s64 32.166 88 53.499zM140 629.997h10l25 -25v-10l-25 -25h-10l-25 25v10zM360 629.997h10
l25 -25v-10l-25 -25h-10l-25 25v10z" />
    <glyph glyph-name="uni04D4" unicode="&#x4d4;" horiz-adv-x="1000" 
d="M560 700h345l5 -5v-10l-5 -5h-325v-285h245l5 -5v-10l-5 -5h-245v-355h355l5 -5v-10l-5 -5h-370l-5 5v240h-325l-180 -240l-10 -5h-10l-5 5l520 690zM560 675l-310 -410h310v410z" />
    <glyph glyph-name="uni04D5" unicode="&#x4d5;" horiz-adv-x="860" 
d="M95 430l10.0029 19.999c46.667 23.333 90 35 130 35c101.333 0 158.666 -50 171.999 -150c14.667 44 40 80 76 108s78.333 42 127 42c32 0 60.667 -6.83301 86 -20.5s45.333 -31.5 60 -53.5s25.667 -45 33 -69s11 -48 11 -72c0 -9.33301 -1.66699 -17.666 -5 -24.999
l-10 -5h-373c0 -65.333 20.5 -120.833 61.5 -166.5s91.5 -68.5 151.5 -68.5c58 0 111.333 21.667 160 65l5 -5v-15c-17.333 -17.333 -40.5 -32.5 -69.5 -45.5s-60.833 -19.5 -95.5 -19.5c-50.667 0 -95.334 15 -134.001 45s-66.667 68.333 -84 115
c-10.667 -50 -34.834 -89.167 -72.501 -117.5s-79.167 -42.5 -124.5 -42.5c-42 0 -77.5 11.167 -106.5 33.5s-43.5 52.833 -43.5 91.5c0 100 110 150 330 150c0 76.667 -13.833 130 -41.5 160s-65.5 45 -113.5 45c-36.667 0 -81.667 -13.333 -135 -40zM390.003 189.999
l-0.000976562 49.999c-205.333 0 -308 -43.333 -308 -130c0 -33.333 12.5 -59.166 37.5 -77.499s55.167 -27.5 90.5 -27.5c46.667 0 88.334 16.667 125.001 50s55 78.333 55 135zM412.002 259.998h368c-2.66699 60.667 -19.334 110 -50.001 148s-70.667 57 -120 57
c-56 0 -101.667 -19.333 -137 -58s-55.666 -87.667 -60.999 -147z" />
    </font>
</defs>
</svg>
